<?xml version="1.0" encoding="UTF-8" standalone="no"?>
<!-- Created with Inkscape (http://www.inkscape.org/) -->

<svg
   xmlns:dc="http://purl.org/dc/elements/1.1/"
   xmlns:cc="http://creativecommons.org/ns#"
   xmlns:rdf="http://www.w3.org/1999/02/22-rdf-syntax-ns#"
   xmlns:svg="http://www.w3.org/2000/svg"
   xmlns="http://www.w3.org/2000/svg"
   xmlns:sodipodi="http://sodipodi.sourceforge.net/DTD/sodipodi-0.dtd"
   xmlns:inkscape="http://www.inkscape.org/namespaces/inkscape"
   width="297mm"
   height="24mm"
   viewBox="0 0 297 24"
   version="1.1"
   id="svg6597"
   inkscape:version="0.92.4 (5da689c313, 2019-01-14)"
   sodipodi:docname="line.svg">
  <defs
     id="defs6591" />
  <sodipodi:namedview
     id="base"
     pagecolor="#ffffff"
     bordercolor="#666666"
     borderopacity="1.0"
     inkscape:pageopacity="0.0"
     inkscape:pageshadow="2"
     inkscape:zoom="0.32656155"
     inkscape:cx="357.14286"
     inkscape:cy="517.14286"
     inkscape:document-units="mm"
     inkscape:current-layer="layer1"
     showgrid="false"
     inkscape:window-width="1366"
     inkscape:window-height="705"
     inkscape:window-x="-8"
     inkscape:window-y="-8"
     inkscape:window-maximized="1" />
  <metadata
     id="metadata6594">
    <rdf:RDF>
      <cc:Work
         rdf:about="">
        <dc:format>image/svg+xml</dc:format>
        <dc:type
           rdf:resource="http://purl.org/dc/dcmitype/StillImage" />
        <dc:title></dc:title>
      </cc:Work>
    </rdf:RDF>
  </metadata>
  <g
     inkscape:label="Layer 1"
     inkscape:groupmode="layer"
     id="layer1"
     transform="translate(0,-273)">
    <path
       style="fill:#784421;stroke:none;stroke-width:0.01542126"
       inkscape:connector-curvature="0"
       id="path6340"
       d="m 15.89755,275.30713 c -1.594885,0.82188 -2.407716,2.40361 -2.300397,4.49707 0.09201,1.61275 0.582827,2.68274 1.748332,3.79925 l 0.858759,0.82189 -3.205229,-0.10856 c -1.748177,-0.062 -3.7878871,-0.13956 -4.5240213,-0.18608 l -1.3341993,-0.093 0.1533539,-0.4187 c 0.2147286,-0.55825 0.030798,-1.34912 -0.368039,-1.64375 -0.8128141,-0.57377 -2.1010049,0 -2.1010049,0.96144 0,0.41869 -0.030798,0.4342 -0.5827909,0.38768 -0.4600493,-0.0465 -0.690058,0.031 -1.0427725,0.32565 -0.4141114,0.35666 -0.4447876,0.48072 -0.4447876,1.42665 0,0.94594 0.030547,1.07 0.4447876,1.42667 0.3527145,0.29463 0.5827232,0.37217 1.0427725,0.32564 0.5521128,-0.0465 0.5827909,-0.031 0.5827909,0.38769 0,0.62028 0.6133743,1.19405 1.3035241,1.19405 0.9201247,0 1.5029474,-0.89942 1.1808328,-1.84536 l -0.153352,-0.44971 1.7023379,-0.093 c 0.9507903,-0.0465 2.9904478,-0.13956 4.5547038,-0.18608 l 2.837132,-0.10855 -0.858781,0.79086 c -2.622441,2.41912 -2.392487,6.77663 0.460023,8.28082 0.674762,0.35667 1.012183,0.4342 1.932356,0.4342 1.426233,0 2.331014,-0.4342 4.524117,-2.21752 1.702178,-1.36463 2.591678,-1.82984 3.557847,-1.84535 0.751423,-0.0155 1.042811,0.24811 1.042811,0.91492 0,0.40319 -0.07666,0.55826 -0.337377,0.6513 -0.414101,0.15507 -0.705434,0.0775 -1.150215,-0.34115 l -0.3373,-0.31015 -0.15342,0.40319 c -0.214708,0.55825 0.230018,1.87636 0.705489,2.13999 0.521345,0.27913 1.564203,0.21709 2.039618,-0.13957 0.567422,-0.4342 1.073523,-1.25608 1.073523,-1.76782 0,-0.63579 -0.521392,-1.58172 -1.104157,-2.00042 -0.659491,-0.48072 -2.101031,-0.58927 -3.17455,-0.2171 -0.414052,0.13957 -1.380159,0.6358 -2.11632,1.11652 -0.736115,0.46521 -1.39559,0.8839 -1.456929,0.91492 -0.06134,0.0465 -0.07671,-0.34116 -0.03089,-0.85289 0.153375,-1.36464 -0.138029,-2.24854 -1.027465,-3.14796 -0.766831,-0.77535 -1.594928,-1.03898 -2.576466,-0.82188 -1.165478,0.24812 -1.916905,1.55072 -1.564254,2.71376 0.245394,0.82187 0.567398,1.03897 1.717653,1.16303 1.042737,0.10855 1.456898,-0.0465 1.073454,-0.4342 -0.09191,-0.093 -0.168673,-0.35666 -0.168673,-0.57376 0,-0.77536 0.674922,-1.02348 1.226857,-0.46522 0.38342,0.38768 0.42944,1.79883 0.07672,2.48115 -0.613476,1.19405 -2.867857,1.25608 -4.140774,0.13956 -1.993585,-1.76782 -0.828033,-5.72214 2.009064,-6.79213 0.843464,-0.32565 0.920071,-0.34116 1.058186,-0.0775 0.4754,0.83739 1.211562,1.07 1.870969,0.60478 0.306688,-0.2171 0.337399,-0.2016 0.429386,0.23261 0.199323,0.94593 1.318921,1.24057 2.024316,0.52724 0.29141,-0.29463 0.368157,-0.49623 0.306737,-0.82188 -0.09201,-0.4342 -0.07668,-0.4342 0.843469,-0.54275 0.521401,-0.0465 2.576399,-0.093 4.60079,-0.093 h 3.665185 l -0.567362,0.49622 c -1.840316,1.64377 -1.349584,4.80723 0.843554,5.3965 1.610127,0.4342 3.404445,-0.91493 3.419731,-2.55868 0.01595,-0.97695 -0.475396,-1.48869 -1.518199,-1.58174 -0.996795,-0.0775 -1.502934,0.2016 -1.502934,0.83739 0,0.26363 -0.04598,0.54275 -0.107292,0.60478 -0.07665,0.062 -0.12273,0.24811 -0.12273,0.4187 0,0.24811 0.07669,0.27913 0.39873,0.20159 0.59808,-0.15507 0.981508,0.031 0.981508,0.46521 0,0.79087 -1.610225,0.89942 -2.254342,0.15508 -0.50609,-0.60478 -0.598127,-1.61275 -0.230087,-2.46565 0.352709,-0.79086 1.088826,-1.36462 2.285041,-1.78331 0.690108,-0.24812 4.692746,-0.26363 56.113759,-0.31015 l 55.377731,-0.031 0.36798,0.57376 c 0.56744,0.88391 1.08887,1.19405 1.97832,1.19405 0.88944,0 1.41091,-0.31014 1.97836,-1.19405 l 0.36797,-0.57376 55.37774,0.031 c 51.42092,0.0465 55.42352,0.062 56.11359,0.31015 1.19625,0.41869 1.93224,0.99245 2.28507,1.78331 0.36826,0.8529 0.27611,1.86087 -0.22998,2.46565 -0.64406,0.74434 -2.25435,0.63579 -2.25435,-0.15508 0,-0.4342 0.38326,-0.62028 0.98142,-0.46521 0.32205,0.0775 0.39892,0.0465 0.39892,-0.20159 0,-0.17059 -0.0459,-0.35667 -0.10753,-0.4187 -0.0766,-0.062 -0.12264,-0.34115 -0.12264,-0.60478 0,-0.63579 -0.50612,-0.91492 -1.50289,-0.83739 -1.04287,0.0931 -1.5336,0.60479 -1.51828,1.58174 0.0308,2.13998 2.71442,3.39606 4.40143,2.06245 0.93541,-0.74434 1.27287,-2.52767 0.70537,-3.76824 -0.15334,-0.34116 -0.52115,-0.8529 -0.84346,-1.13203 l -0.56731,-0.49622 h 3.66517 c 2.02437,0 4.07931,0.0465 4.60077,0.093 0.92022,0.10855 0.93536,0.10855 0.84358,0.54275 -0.0615,0.32565 0.0157,0.52725 0.30661,0.82188 0.70547,0.71333 1.82492,0.41869 2.02421,-0.52724 0.092,-0.43421 0.12283,-0.44971 0.42952,-0.23261 0.65943,0.46522 1.39569,0.23261 1.87094,-0.60478 0.13789,-0.26362 0.21482,-0.24811 1.05812,0.0775 2.83716,1.06999 4.00276,5.02431 2.00896,6.79213 -1.27277,1.11652 -3.52722,1.05449 -4.14056,-0.13956 -0.35282,-0.68232 -0.30665,-2.09347 0.077,-2.48115 0.55184,-0.55826 1.2269,-0.31014 1.2269,0.46522 0,0.2171 -0.0768,0.48072 -0.16875,0.57376 -0.38341,0.38768 0.0306,0.54275 1.07352,0.4342 1.15004,-0.12406 1.47222,-0.34116 1.71765,-1.16303 0.35266,-1.16304 -0.39866,-2.46564 -1.56426,-2.71376 -0.98156,-0.2171 -1.80967,0.0465 -2.57654,0.82188 -0.8894,0.89942 -1.18076,1.78332 -1.02747,3.14796 0.0457,0.51173 0.0307,0.89941 -0.031,0.85289 -0.0611,-0.031 -0.72085,-0.44971 -1.45692,-0.91492 -0.7361,-0.48072 -1.70237,-0.97695 -2.11623,-1.11652 -1.07355,-0.37217 -2.5153,-0.26362 -3.17466,0.2171 -0.58276,0.4187 -1.10423,1.36463 -1.10423,2.00042 0,0.51174 0.50614,1.33362 1.07352,1.76782 0.47542,0.35666 1.51849,0.4187 2.03963,0.13957 0.47552,-0.26363 0.92024,-1.58174 0.70545,-2.13999 l -0.15319,-0.40319 -0.33739,0.31015 c -0.44491,0.41869 -0.73601,0.49622 -1.13487,0.34115 -0.27609,-0.093 -0.35278,-0.24811 -0.35278,-0.6513 0,-0.66681 0.29136,-0.93043 1.04275,-0.91492 0.96621,0.0155 1.85567,0.48072 3.55801,1.84535 2.19302,1.78332 3.09792,2.21752 4.524,2.21752 0.92024,0 1.25756,-0.0775 1.93238,-0.4342 1.56421,-0.82188 2.39223,-2.49665 2.25433,-4.59011 -0.092,-1.47318 -0.67481,-2.65173 -1.79432,-3.69071 l -0.85876,-0.79086 2.83707,0.10855 c 1.56432,0.0465 3.60396,0.13956 4.55475,0.18608 l 1.7023,0.093 -0.15324,0.44971 c -0.32208,0.94594 0.2607,1.84536 1.18071,1.84536 0.69021,0 1.30363,-0.57377 1.30363,-1.19405 0,-0.4187 0.0308,-0.4342 0.58273,-0.38769 0.46001,0.0465 0.69004,-0.031 1.04273,-0.32564 0.41418,-0.35667 0.44486,-0.48073 0.44486,-1.42667 0,-0.94593 -0.0314,-1.06999 -0.44486,-1.42665 -0.35269,-0.29464 -0.58272,-0.37217 -1.04273,-0.32565 -0.5521,0.0465 -0.58273,0.031 -0.58273,-0.38768 0,-0.96144 -1.28822,-1.53521 -2.10108,-0.96144 -0.39867,0.29463 -0.58279,1.0855 -0.36801,1.64375 l 0.15334,0.4187 -1.33421,0.093 c -0.73614,0.0465 -2.7756,0.12406 -4.52399,0.18608 l -3.20525,0.10856 0.85875,-0.82189 c 1.16578,-1.11651 1.65629,-2.1865 1.74831,-3.79925 0.0768,-1.58173 -0.32178,-2.77578 -1.27286,-3.72171 -0.88943,-0.91492 -1.77906,-1.22506 -3.18983,-1.13202 -1.39557,0.093 -2.02434,0.41869 -4.34002,2.27955 -1.36497,1.0855 -1.88631,1.41114 -2.65316,1.62825 -0.79745,0.2171 -0.99679,0.23261 -1.36479,0.062 -0.3528,-0.17057 -0.41412,-0.31014 -0.41412,-0.82187 0,-0.58927 0.0305,-0.62029 0.52138,-0.66681 0.36805,-0.0465 0.61334,0.0465 0.87409,0.29463 l 0.35286,0.34117 0.15323,-0.4032 c 0.1841,-0.46521 -0.12267,-1.51969 -0.55197,-2.00042 -0.39883,-0.44971 -1.73305,-0.38767 -2.3465,0.12406 -0.93544,0.80637 -1.13475,1.65926 -0.6134,2.69825 0.99681,1.9694 3.40465,1.90737 6.44098,-0.15508 0.46024,-0.31014 0.93559,-0.62028 1.0276,-0.68231 0.15338,-0.0775 0.16875,0.10855 0.10725,0.82188 -0.13792,1.20956 0.13809,2.15549 0.82846,2.97737 0.88922,1.05449 2.14686,1.36463 3.23558,0.79087 0.7822,-0.40319 1.13492,-0.97695 1.15024,-1.87637 0.0163,-1.00796 -0.41429,-1.62825 -1.15024,-1.69028 -0.29134,-0.0155 -0.76675,-0.0775 -1.07345,-0.12406 -0.59814,-0.093 -0.92023,0.13957 -0.61343,0.44971 0.26072,0.26363 0.21468,1.14753 -0.0766,1.25608 -0.4142,0.15507 -0.65936,0.10855 -0.98134,-0.2171 -0.38354,-0.38768 -0.42962,-1.79883 -0.0764,-2.46564 0.58274,-1.14752 2.83695,-1.27158 4.07915,-0.2171 1.77911,1.51971 1.21177,4.96229 -1.05802,6.41997 -0.39866,0.24811 -0.95087,0.52724 -1.24228,0.60477 -0.50594,0.13957 -0.56748,0.10856 -0.98153,-0.38767 -0.49075,-0.60478 -1.02743,-0.71333 -1.59497,-0.31015 -0.30661,0.2171 -0.33721,0.20159 -0.42952,-0.2326 -0.19908,-0.94594 -1.31873,-1.24058 -2.02393,-0.52725 -0.29171,0.29464 -0.36799,0.49623 -0.30677,0.83739 0.0768,0.38768 0.0461,0.4342 -0.38353,0.52724 -0.26066,0.0465 -2.31573,0.093 -4.58533,0.093 h -4.12533 l 0.59797,-0.55826 c 0.81285,-0.72883 1.16562,-1.65926 1.04288,-2.77577 -0.16879,-1.61275 -1.10428,-2.55868 -2.56106,-2.55868 -1.5643,0 -2.76051,1.11651 -2.79115,2.57418 0,0.6513 0.0615,0.79087 0.47532,1.17855 0.36802,0.32564 0.62889,0.4342 1.13495,0.4342 0.95074,0 1.41082,-0.29464 1.41082,-0.88391 0,-0.26362 0.0459,-0.54275 0.12269,-0.60478 0.0609,-0.062 0.10743,-0.23261 0.10743,-0.38768 0,-0.2326 -0.12264,-0.26362 -0.64408,-0.24811 -0.61358,0.031 -0.65941,0 -0.65941,-0.35667 0,-0.55825 0.64404,-0.8839 1.39546,-0.69782 1.71759,0.44971 1.65628,3.07041 -0.0919,4.14041 -1.53359,0.94594 2.31572,0.89942 -57.75478,0.89942 h -54.9182 l -0.36797,-0.57377 c -0.56748,-0.8839 -1.05821,-1.16303 -1.97827,-1.16303 -0.92028,0 -1.41093,0.27913 -1.97844,1.16303 l -0.36791,0.57377 H 90.490866 c -60.070499,0 -56.2211,0.0465 -57.754703,-0.89942 -1.748292,-1.07 -1.809597,-3.6907 -0.09192,-4.14041 0.751449,-0.18608 1.395545,0.13957 1.395545,0.69782 0,0.35667 -0.04609,0.38768 -0.644096,0.35667 -0.536745,-0.0155 -0.659469,0.0155 -0.659469,0.24811 0,0.15507 0.04637,0.32565 0.122724,0.38768 0.06108,0.062 0.107326,0.34116 0.107326,0.60478 0,0.58927 0.460097,0.88391 1.410936,0.88391 0.50603,0 0.766793,-0.10856 1.134814,-0.4342 0.414064,-0.38768 0.475432,-0.52725 0.475432,-1.17855 -0.03046,-1.45767 -1.226877,-2.57418 -2.791152,-2.57418 -1.456842,0 -2.392377,0.94593 -2.561085,2.55868 -0.122684,1.11651 0.230018,2.04694 1.04285,2.77577 l 0.598067,0.55826 h -4.125297 c -2.269666,0 -4.324678,-0.0465 -4.585396,-0.093 -0.429396,-0.093 -0.460074,-0.13956 -0.383424,-0.52724 0.06096,-0.34116 -0.0159,-0.54275 -0.306727,-0.83739 -0.705354,-0.71333 -1.824958,-0.41869 -2.024168,0.52725 -0.09212,0.43419 -0.122838,0.4497 -0.429506,0.2326 -0.567481,-0.40318 -1.104195,-0.29463 -1.594963,0.31015 -0.414044,0.49623 -0.475407,0.52724 -0.981446,0.38767 -0.291432,-0.0775 -0.843506,-0.35666 -1.242293,-0.60477 -2.269669,-1.45768 -2.837057,-4.90026 -1.058172,-6.41997 1.242235,-1.05448 3.4966,-0.93042 4.07936,0.2171 0.35274,0.66681 0.306752,2.07796 -0.07672,2.46564 -0.32202,0.32565 -0.567243,0.37217 -0.981463,0.2171 -0.291405,-0.10855 -0.337406,-0.99245 -0.07672,-1.25608 0.306756,-0.31014 -0.01575,-0.54275 -0.613397,-0.44971 -0.306743,0.0465 -0.782124,0.10856 -1.073521,0.12406 -0.736087,0.062 -1.165529,0.68232 -1.15018,1.69028 0.01557,0.89942 0.368086,1.47318 1.15018,1.87637 1.088812,0.57376 2.346381,0.26362 3.23582,-0.79087 0.690134,-0.82188 0.966219,-1.76781 0.828146,-2.97737 -0.06118,-0.71333 -0.04584,-0.89942 0.107373,-0.82188 0.09191,0.062 0.567407,0.37217 1.027569,0.68231 3.036402,2.06245 5.444199,2.12448 6.440976,0.15508 0.521409,-1.03899 0.322028,-1.89188 -0.6134,-2.69825 -0.613451,-0.51173 -1.947641,-0.57377 -2.346455,-0.12406 -0.429379,0.48073 -0.736118,1.53521 -0.552046,2.00042 l 0.153414,0.4032 0.352685,-0.34117 c 0.260729,-0.24811 0.506036,-0.34115 0.874113,-0.29463 0.490722,0.0465 0.521442,0.0775 0.521442,0.66681 0,0.51173 -0.06124,0.6513 -0.41402,0.82187 -0.368099,0.17059 -0.567464,0.15508 -1.364967,-0.062 -0.766769,-0.21711 -1.288159,-0.54275 -2.653059,-1.62825 -2.377025,-1.90738 -2.944487,-2.20202 -4.462743,-2.27955 -1.088959,-0.0465 -1.318863,-0.0155 -2.039663,0.35666 z" />
  </g>
</svg>
