<svg xmlns="http://www.w3.org/2000/svg" width="56" height="56"><defs><filter id="a" width="78" height="80" x="-11" y="-13" filterUnits="userSpaceOnUse"><feOffset dy="2" in="SourceGraphic" result="FeOffset1023Out"/><feGaussianBlur in="FeOffset1023Out" result="FeGaussianBlur1024Out" stdDeviation="1.6 1.6"/></filter><mask id="b" width="2" height="2" x="-1" y="-1"><path fill="#fff" d="M3 1h50v50H3z"/><path d="M28 1c13.807 0 25 11.193 25 25S41.807 51 28 51 3 39.807 3 26 14.193 1 28 1z"/></mask></defs><g filter="url(#a)"><path fill="none" d="M28 1c13.807 0 25 11.193 25 25S41.807 51 28 51 3 39.807 3 26 14.193 1 28 1z" mask="url(&quot;#b&quot;)"/><path fill="#000101" fill-opacity=".2" d="M28 1c13.807 0 25 11.193 25 25S41.807 51 28 51 3 39.807 3 26 14.193 1 28 1z"/></g><path fill="#fff" d="M28 1c13.807 0 25 11.193 25 25S41.807 51 28 51 3 39.807 3 26 14.193 1 28 1z"/><path fill="#525252" d="M33 21l3 3-8 8-8-8 3-3 5 5z"/></svg>