<svg xmlns="http://www.w3.org/2000/svg" width="30" height="31"><path fill="#999" d="M30 15.5c0 8.284-6.715 15-15 15-8.284 0-15-6.716-15-15C0 7.216 6.716.5 15 .5c8.285 0 15 6.716 15 15zm-18.671-3.558H8.29v9.775h3.038zm.1-2.717c-.02-.86-.62-1.52-1.6-1.52-.979 0-1.618.66-1.618 1.52 0 .839.62 1.518 1.579 1.518 1.02 0 1.638-.68 1.638-1.518zm10.992 6.714c0-2.877-1.499-4.216-3.497-4.216-1.64 0-2.619.939-3.019 1.579h-.06l-.14-1.36h-2.638c.04.88.08 1.9.08 3.118v6.657h3.038V16.08c0-.28.02-.56.1-.76.22-.56.72-1.14 1.56-1.14 1.098 0 1.538.86 1.538 2.12v5.417h3.038z"/></svg>