<svg xmlns="http://www.w3.org/2000/svg" width="30" height="31"><path fill="#999" d="M30 15.5c0 8.284-6.716 15-15 15-8.285 0-15-6.716-15-15C0 7.216 6.715.5 15 .5c8.284 0 15 6.716 15 15zm-7.425-4.24c-.53.235-1.1.393-1.697.465a2.967 2.967 0 001.3-1.635 5.921 5.921 0 01-1.877.717 2.954 2.954 0 00-5.034 2.695 8.386 8.386 0 01-6.09-3.088 2.954 2.954 0 00.914 3.946 2.939 2.939 0 01-1.337-.371v.037a2.957 2.957 0 002.369 2.898 2.971 2.971 0 01-1.334.05 2.957 2.957 0 002.76 2.051 5.922 5.922 0 01-4.374 1.224 8.366 8.366 0 004.528 1.327c5.434 0 8.406-4.502 8.406-8.405a6.91 6.91 0 00-.009-.382 6.01 6.01 0 001.475-1.529z"/></svg>