<svg xmlns="http://www.w3.org/2000/svg" width="130" height="130" viewBox="0 0 34.396 34.396"><path d="M24.867 1.44c0 .13-.075 2.229-.163 4.672a836.24 836.24 0 00-.163 4.666v.22l1.848 1.534a108.93 108.93 0 001.862 1.523c.01-.005-.093-2.868-.218-6.36-.126-3.488-.233-6.378-.233-6.415 0-.049-.326-.065-1.467-.065h-1.466zm-13.944 9.112c-3.483 2.89-6.35 5.273-6.374 5.306-.028.027 4.703.048 12.72.048 7.02 0 12.765-.016 12.76-.043 0-.043-12.64-10.526-12.718-10.547-.033-.005-2.906 2.351-6.388 5.236zm5.773-.662c-.182.167-.447.84-.475 1.216-.046.592.186 1.108.61 1.334.694.372 1.406-.102 1.536-1.027.06-.415-.153-1.109-.451-1.47l-.145-.172.187-.226c.097-.129.186-.242.195-.253.005-.016.089.06.182.167.144.167.158.21.111.28-.05.07-.037.13.089.355.354.64.456 1.335.275 1.948-.364 1.254-1.467 1.781-2.338 1.114-.535-.409-.893-1.345-.777-2.034.056-.344.21-.786.377-1.07.112-.19.126-.254.084-.313-.047-.064-.028-.118.102-.27l.159-.193.195.259.196.252zM5.592 18.457v2.335l-1.816 2.573-1.815 2.577v7.023H12.11V24.14h4.842v8.825h.652V24.14h4.888v8.825h10.15V25.98l-1.816-2.578-1.811-2.572-.005-2.357v-2.352H5.592z" fill="#ffbf2f"/></svg>