<svg xmlns="http://www.w3.org/2000/svg" width="35" height="35" viewBox="0 0 9.26 9.26"><path d="M2.881.682a.289.289 0 00-.05.025 57.16 57.16 0 00-.134 1.445c-.004.071.61 1.733.657 1.779.027.028.043.03.173.03.322 0 .65-.1.93-.28.153-.1.191-.142.191-.21 0-.037-.094-.311-.313-.9l-.313-.845-.533-.53a13.39 13.39 0 00-.547-.53.322.322 0 00-.06.016zm4.944.077c-.054.01-3.595 1.253-3.61 1.268-.005.005.263.737.273.746.01.01 3.57-1.195 3.64-1.23a.646.646 0 00.255-.262c.104-.215.007-.43-.227-.5a.886.886 0 00-.33-.022zM2.68 2.656a.403.403 0 00-.123.27c-.001.17.125.277.361.303l.083.01-.055-.153c-.157-.427-.184-.497-.194-.497a.368.368 0 00-.071.067zM.738 4.696l.004.277.22.097c.58.259 1.212.6 1.514.821.401.292.563.565.566.945 0 .125-.014.17-.08.274-.1.156-.473.475-.795.678l-.1.064v.752h.886l.683-.116.684-.116.69.116.689.116h.885v-.748L6.41 7.74c-.368-.244-.673-.52-.758-.685a.312.312 0 01-.043-.172c.002-.298.178-.565.514-.78.204-.13.476-.239.998-.399.304-.093.676-.296.987-.54.128-.1.522-.479.548-.527l.017-.03H6.378V4.42H.735zm5.441-.163c0 .027-.01.027-2.598.031l-2.599.003v.12c0 .122-.012.152-.048.122-.016-.013-.02-.05-.02-.163V4.5l2.633.002c2.621.004 2.632.004 2.632.031zM3 7.977c.013.014.011.024-.005.04-.02.019-.066.022-.331.022h-.308v.18c0 .142-.004.183-.02.196-.017.014-.025.014-.041 0-.017-.013-.021-.056-.021-.228 0-.116.004-.216.01-.22a3.44 3.44 0 01.354-.01c.28 0 .35.005.362.02zm3.436.002c.015.02.013.025-.009.04-.02.016-.092.02-.332.02h-.306v.18c0 .148-.004.183-.022.198-.02.014-.025.013-.041-.008-.015-.02-.02-.077-.02-.23 0-.112.005-.208.01-.212a3.44 3.44 0 01.354-.01c.302 0 .35.003.366.022z" fill="#ffbf2f"/></svg>