<svg xmlns="http://www.w3.org/2000/svg" width="297mm" height="24mm" viewBox="0 0 297 24"><path d="M15.898 2.307c-1.595.822-2.408 2.404-2.3 4.497.091 1.613.582 2.683 1.747 3.8l.86.821-3.206-.108c-1.748-.062-3.788-.14-4.524-.186l-1.334-.093.153-.419c.215-.558.03-1.35-.368-1.644-.813-.574-2.1 0-2.1.962 0 .418-.032.434-.584.387-.46-.046-.69.031-1.042.326-.415.357-.445.48-.445 1.427 0 .946.03 1.07.445 1.426.352.295.582.373 1.042.326.552-.047.583-.031.583.388 0 .62.613 1.194 1.304 1.194.92 0 1.503-.9 1.18-1.846l-.153-.45 1.702-.092c.951-.047 2.99-.14 4.555-.186l2.837-.109-.858.79c-2.623 2.42-2.393 6.778.46 8.282.674.356 1.012.434 1.932.434 1.426 0 2.33-.434 4.524-2.218 1.702-1.364 2.592-1.83 3.558-1.845.751-.015 1.043.248 1.043.915 0 .403-.077.558-.338.651-.414.155-.705.078-1.15-.34l-.337-.311-.154.403c-.214.558.23 1.876.706 2.14.521.28 1.564.217 2.04-.14.567-.434 1.073-1.256 1.073-1.767 0-.636-.521-1.582-1.104-2-.66-.481-2.101-.59-3.175-.218-.414.14-1.38.636-2.116 1.117-.736.465-1.396.884-1.457.915-.061.046-.077-.342-.03-.853.153-1.365-.139-2.249-1.028-3.148-.767-.776-1.595-1.04-2.577-.822-1.165.248-1.917 1.55-1.564 2.714.245.822.567 1.039 1.718 1.163 1.042.108 1.456-.047 1.073-.434-.092-.093-.169-.357-.169-.574 0-.776.675-1.024 1.227-.465.384.387.43 1.798.077 2.48-.614 1.195-2.868 1.257-4.14.14-1.994-1.768-.829-5.722 2.008-6.792.844-.326.92-.341 1.058-.077.476.837 1.212 1.07 1.871.604.307-.217.338-.201.43.233.2.946 1.319 1.24 2.024.527.292-.294.368-.496.307-.822-.092-.434-.077-.434.843-.542.522-.047 2.577-.093 4.601-.093h3.665l-.567.496c-1.84 1.644-1.35 4.807.843 5.396 1.61.435 3.405-.915 3.42-2.558.016-.977-.475-1.489-1.518-1.582-.997-.078-1.503.202-1.503.837 0 .264-.046.543-.107.605-.077.062-.123.248-.123.419 0 .248.077.279.399.201.598-.155.981.031.981.466 0 .79-1.61.899-2.254.155-.506-.605-.598-1.613-.23-2.466.353-.79 1.089-1.365 2.285-1.783.69-.248 4.693-.264 56.114-.31l55.377-.031.368.573c.568.884 1.09 1.194 1.979 1.194.89 0 1.41-.31 1.978-1.194l.368-.573 55.378.03c51.42.047 55.423.063 56.113.31 1.197.42 1.933.993 2.285 1.784.369.853.277 1.86-.23 2.466-.644.744-2.254.635-2.254-.155 0-.435.383-.62.982-.466.322.078.398.047.398-.201 0-.17-.045-.357-.107-.419-.077-.062-.123-.341-.123-.605 0-.635-.506-.915-1.503-.837-1.042.093-1.533.605-1.518 1.582.03 2.14 2.715 3.396 4.402 2.062.935-.744 1.272-2.528.705-3.768a3.88 3.88 0 00-.844-1.132l-.567-.496h3.665c2.025 0 4.08.046 4.601.093.92.108.935.108.844.542-.062.326.015.528.306.822.706.714 1.825.419 2.024-.527.092-.434.123-.45.43-.233.66.466 1.396.233 1.87-.604.139-.264.216-.248 1.059.077 2.837 1.07 4.003 5.024 2.009 6.792-1.273 1.117-3.527 1.055-4.14-.14-.353-.682-.307-2.093.076-2.48.552-.559 1.227-.31 1.227.465 0 .217-.076.48-.168.574-.384.387.03.542 1.073.434 1.15-.124 1.472-.341 1.718-1.163.352-1.163-.399-2.466-1.565-2.714-.981-.217-1.81.046-2.576.822-.89.9-1.18 1.783-1.028 3.148.046.511.031.9-.03.853-.062-.031-.721-.45-1.457-.915-.737-.481-1.703-.977-2.117-1.117-1.073-.372-2.515-.263-3.174.217-.583.419-1.105 1.365-1.105 2 0 .512.507 1.334 1.074 1.769.475.356 1.518.418 2.04.14.475-.265.92-1.583.705-2.14l-.153-.404-.338.31c-.444.419-.736.496-1.134.341-.276-.093-.353-.248-.353-.651 0-.667.291-.93 1.043-.915.966.016 1.855.48 3.558 1.845 2.193 1.784 3.097 2.218 4.524 2.218.92 0 1.257-.078 1.932-.434 1.564-.822 2.392-2.497 2.254-4.59-.092-1.474-.675-2.652-1.794-3.691l-.859-.791 2.837.109c1.565.046 3.604.14 4.555.186l1.702.093-.153.45c-.322.945.26 1.845 1.18 1.845.691 0 1.304-.574 1.304-1.194 0-.419.031-.435.583-.388.46.046.69-.031 1.043-.326.414-.356.445-.48.445-1.426s-.032-1.07-.445-1.427c-.353-.295-.583-.372-1.043-.326-.552.047-.583.031-.583-.387 0-.962-1.288-1.536-2.1-.962-.4.295-.583 1.086-.369 1.644l.154.419-1.335.093c-.736.046-2.775.124-4.524.186l-3.205.108.859-.822c1.166-1.116 1.656-2.186 1.748-3.799.077-1.582-.321-2.776-1.273-3.722-.889-.914-1.779-1.225-3.19-1.132-1.395.093-2.024.42-4.34 2.28-1.364 1.086-1.886 1.411-2.653 1.628-.797.217-.996.233-1.364.062-.353-.17-.414-.31-.414-.822 0-.589.03-.62.52-.666.369-.047.614.046.875.294l.353.341.153-.403c.184-.465-.123-1.52-.552-2-.399-.45-1.733-.388-2.346.124-.936.806-1.135 1.66-.614 2.698.997 1.97 3.405 1.907 6.441-.155.46-.31.936-.62 1.028-.682.153-.078.169.108.107.822-.138 1.21.138 2.155.828 2.977.89 1.054 2.147 1.365 3.236.79.782-.402 1.135-.976 1.15-1.876.017-1.008-.414-1.628-1.15-1.69a13.383 13.383 0 01-1.073-.124c-.599-.093-.92.14-.614.45.26.263.215 1.147-.076 1.256-.415.155-.66.108-.982-.217-.383-.388-.43-1.799-.076-2.466.583-1.147 2.837-1.271 4.079-.217 1.78 1.52 1.212 4.962-1.058 6.42-.399.248-.95.527-1.242.605-.506.14-.568.108-.982-.388-.49-.605-1.027-.713-1.595-.31-.306.217-.337.202-.43-.233-.198-.946-1.318-1.24-2.023-.527-.292.295-.368.496-.307.838.077.387.046.434-.384.527-.26.046-2.315.093-4.585.093h-4.125l.598-.559c.813-.728 1.165-1.659 1.043-2.775-.17-1.613-1.105-2.559-2.561-2.559-1.565 0-2.76 1.117-2.792 2.574 0 .652.062.791.476 1.179.368.325.629.434 1.135.434.95 0 1.41-.295 1.41-.884 0-.264.046-.543.123-.605.061-.062.108-.232.108-.387 0-.233-.123-.264-.644-.249-.614.031-.66 0-.66-.356 0-.558.644-.884 1.396-.698 1.717.45 1.656 3.07-.092 4.14-1.534.946 2.315.9-57.755.9H150.1l-.368-.574c-.568-.884-1.058-1.163-1.979-1.163-.92 0-1.41.28-1.978 1.163l-.368.574H90.491c-60.07 0-56.221.046-57.755-.9-1.748-1.07-1.81-3.69-.092-4.14.752-.186 1.396.14 1.396.698 0 .356-.046.387-.644.356-.537-.015-.66.016-.66.249 0 .155.047.325.123.387.061.062.107.341.107.605 0 .59.46.884 1.411.884.506 0 .767-.109 1.135-.434.414-.388.475-.527.475-1.179-.03-1.457-1.226-2.574-2.79-2.574-1.458 0-2.393.946-2.562 2.559-.122 1.116.23 2.047 1.043 2.775l.598.559h-4.125c-2.27 0-4.325-.047-4.586-.093-.429-.093-.46-.14-.383-.527.061-.342-.016-.543-.307-.838-.705-.713-1.825-.419-2.024.527-.092.435-.123.45-.43.233-.567-.403-1.104-.295-1.594.31-.414.496-.476.527-.982.388-.291-.078-.843-.357-1.242-.605-2.27-1.458-2.837-4.9-1.058-6.42 1.242-1.054 3.496-.93 4.08.217.352.667.306 2.078-.078 2.466-.322.325-.567.372-.981.217-.291-.109-.337-.993-.077-1.256.307-.31-.016-.543-.613-.45-.307.047-.782.109-1.074.124-.736.062-1.165.682-1.15 1.69.016.9.368 1.474 1.15 1.877 1.09.574 2.347.263 3.236-.791.69-.822.966-1.768.828-2.977-.06-.714-.046-.9.108-.822.092.062.567.372 1.027.682 3.037 2.062 5.444 2.124 6.441.155.522-1.039.322-1.892-.613-2.698-.614-.512-1.948-.574-2.347-.124-.43.48-.736 1.535-.552 2l.154.403.352-.34c.261-.249.506-.342.874-.295.491.046.522.077.522.666 0 .512-.061.652-.414.822-.368.17-.568.155-1.365-.062-.767-.217-1.288-.542-2.653-1.628-2.377-1.907-2.945-2.202-4.463-2.28-1.089-.046-1.319-.015-2.04.357z" fill="#784421"/></svg>