<svg xmlns="http://www.w3.org/2000/svg" xmlns:xlink="http://www.w3.org/1999/xlink" width="38" height="35"><defs><path id="a" d="M413.885 664.254c-7.755 8.64-14.607 14.763-14.675 14.824a1.666 1.666 0 0 1-2.22 0c-.068-.061-6.92-6.185-14.675-14.824-3.203-3.567-4.015-8.16-2.173-12.285 1.783-3.99 5.567-6.569 9.642-6.569 4.128 0 6.778 1.835 8.316 3.793 1.538-1.958 4.189-3.793 8.317-3.793 4.074 0 7.858 2.579 9.64 6.57 1.843 4.124 1.03 8.717-2.172 12.284zm-.873-10.926c-1.227-2.749-3.878-4.595-6.595-4.595-5.548 0-6.653 4.253-6.697 4.433a1.668 1.668 0 0 1-3.24 0c-.116-.441-1.322-4.433-6.696-4.433-2.718 0-5.368 1.846-6.596 4.595-1.31 2.931-.723 6.102 1.61 8.7a215.016 215.016 0 0 0 13.302 13.547 215.068 215.068 0 0 0 13.302-13.547c2.333-2.598 2.92-5.769 1.61-8.7zm-1.4 3.56a1.667 1.667 0 0 1-3.328.221c-.195-2.933-2.248-3.246-2.335-3.258a1.666 1.666 0 1 1 .45-3.302c1.672.228 4.914 1.846 5.213 6.339zm-2.504 2.985c.309.307.488.737.488 1.179 0 .437-.18.866-.488 1.178a1.696 1.696 0 0 1-1.18.488 1.7 1.7 0 0 1-1.18-.488 1.692 1.692 0 0 1-.487-1.178c0-.442.179-.872.487-1.18a1.694 1.694 0 0 1 1.18-.487c.438 0 .867.18 1.18.488z"/></defs><use fill="#50c3af" xlink:href="#a" transform="translate(-379 -645)"/></svg>