<svg xmlns="http://www.w3.org/2000/svg" width="115" height="125" viewBox="0 0 30.427 33.073"><g fill="#ffbf2f"><path d="M12.068.48a9.98 9.98 0 00-1.952.519C8.03 1.774 6.192 3.423 5.63 5.007c-.167.462-.24 1.372-.147 1.693.06.214.054.225-.16.363-.18.118-.228.183-.228.342-.006.107.154 1.05.348 2.094.354 1.9.354 1.9.568 2.077l.207.182-.34 1.588c-.308 1.452-.341 1.66-.335 2.421 0 .888.074 1.274.395 2.028.775 1.814 2.613 3.314 4.92 4.02.581.177 2.186.525 2.82.615.763.101 2.193.101 2.955 0a26.012 26.012 0 002.941-.663c1.525-.472 3.009-1.424 3.87-2.484.93-1.156 1.331-2.216 1.324-3.543 0-.653-.046-.959-.347-2.371l-.341-1.628.194-.144c.113-.08.214-.208.234-.28.093-.31.708-3.719.708-3.9 0-.155-.04-.236-.187-.333-.174-.117-.187-.149-.2-.615-.034-1.349-.883-3.073-1.98-4.02-.393-.341-1.242-.834-1.797-1.048-.749-.284-1.244-.376-2.052-.37-.762 0-1.244.101-1.712.36l-.247.132-.341-.208c-.488-.294-1.344-.626-1.959-.755-.668-.145-1.992-.181-2.673-.08zm5.989 3.73c1.832.761 2.975 1.435 3.663 2.152.455.47 1.357 1.702 1.357 1.853 0 .069-.134.325-.287.562-.16.24-.796 1.181-1.404 2.098l-1.116 1.664-1.016-.294c-3.049-.868-5.388-.852-8.43.064l-.782.236-.294-.44C7.669 9.044 7.235 8.36 7.235 8.13c0-.203.02-.241.173-.283.094-.037.388-.166.649-.3.481-.252.722-.403 2.253-1.408 1.677-1.108 1.885-1.19 4.411-1.766a28.888 28.888 0 001.672-.424c.274-.09.528-.166.561-.166.033-.006.528.188 1.103.428zM6.071 7.37c.18.09.442.25.582.357.227.177.247.22.247.482 0 .235-.44 2.536-.575 3.002-.093.344-.227-.101-.568-1.905-.347-1.841-.347-1.89-.227-1.997.067-.061.14-.107.167-.107.02 0 .187.075.374.167zm18.784 0c.067.09-.648 3.81-.748 3.895-.08.07-.094.07-.12 0-.094-.224-.576-2.767-.576-3.04 0-.316 0-.316.348-.568.582-.418.923-.508 1.096-.288zm-10.709 6.71c.836.16 2.006.076 2.795-.203.287-.102.394-.124.448-.07.093.091.02.16-.315.295-1.076.438-2.78.428-3.883-.025-.355-.139-.388-.183-.268-.279.054-.05.174-.025.441.07.2.075.555.167.782.209z"/><path d="M10.898 8.016a1.184 1.184 0 00-.455.235c-.174.161-.2.226-.2.499 0 .235.033.348.14.455.2.203.501.31.862.31.522 0 .903-.213 1.003-.568.12-.433-.18-.829-.702-.936-.327-.065-.314-.065-.648.006zm7.794-.011c-.274.07-.608.375-.662.61-.16.67.81 1.135 1.625.787.394-.166.541-.722.28-1.06-.22-.289-.795-.444-1.243-.337zM3.458 17.95l-1.738.578-.02 6.728-.014 6.728h26.94l-.014-6.728-.02-6.722-1.671-.558c-.916-.3-1.725-.566-1.785-.583-.114-.03-.12.151-.12 3.24v3.27H5.296v-3.266c0-1.798-.02-3.265-.047-3.265-.033.006-.835.262-1.791.578z"/></g></svg>