<svg xmlns="http://www.w3.org/2000/svg" width="125" height="125" viewBox="0 0 33.073 33.073"><path d="M15.323.62c-.094.01-.493.059-.88.107a17.69 17.69 0 00-3.143.738c-2.023.721-3.73 1.744-5.271 3.16a16.172 16.172 0 00-4.926 8.88c-.264 1.421-.299 3.186-.088 4.467.487 2.955 2.199 6.492 4.539 9.393l.398.49-.492.478c-.27.27-.569.57-.663.679l-.17.188 1.718 1.577 1.718 1.572 1.754-1.76a371.95 371.95 0 012.099-2.105c.188-.188.322-.366.293-.387-.03-.022-.24-.173-.463-.34-.516-.376-1.53-1.334-2.011-1.889-1.466-1.695-2.575-3.789-3.208-6.039-.276-.985-.381-1.711-.381-2.642 0-2.59 1.096-5.022 3.137-6.96 1.267-1.2 2.633-2.013 4.269-2.53 3.06-.968 6.163-.56 9.001 1.19 3.155 1.948 5.149 5.668 4.82 9.01-.158 1.647-.727 3.396-1.671 5.162-.75 1.4-1.519 2.454-2.545 3.493-.487.495-1.272 1.162-1.66 1.42-.123.082-.216.162-.205.184.006.016.552.56 1.214 1.21.669.647 1.56 1.524 1.994 1.955.428.43.81.785.844.796.035.005.827-.689 1.76-1.545l1.694-1.555-.592-.597-.598-.593.492-.618c2.287-2.875 3.906-6.255 4.416-9.204.152-.856.146-3.192 0-4.07-.938-5.516-4.498-10.102-9.447-12.153C21.844 1.276 20.6.937 19.123.717c-.546-.081-3.354-.156-3.8-.097zm2.322 2.836c.287.14.522.452.522.705 0 .086-.053.264-.123.393-.317.598-1.05.722-1.537.259-.392-.372-.404-.862-.029-1.195.352-.312.745-.366 1.167-.162zm-6.75 1.384c.212.134.405.484.411.715 0 .383-.393.808-.815.872-.31.049-.739-.134-.926-.398-.311-.43-.053-1.103.51-1.313.182-.07.633 0 .82.124zm13.482-.081c.41.194.65.651.54 1.033-.083.275-.446.587-.74.64-.445.076-.95-.236-1.079-.661-.205-.668.628-1.324 1.279-1.012zm-18.624 5.43c.246.092.493.361.569.614.082.285-.024.582-.287.824a.94.94 0 01-1.29-.011c-.704-.646.1-1.776 1.008-1.426zm23.514 0c.422.162.686.614.604 1.029-.076.36-.504.672-.926.672-.24 0-.61-.188-.774-.392-.194-.237-.176-.765.035-1.018.275-.333.674-.441 1.061-.29zM4.234 17.484c.446.274.434.786-.023 1-.27.13-.458.103-.68-.101-.159-.146-.2-.227-.2-.399a.59.59 0 01.903-.5zm26.51.016c.089.064.2.194.241.29.159.35-.152.775-.563.775-.299 0-.645-.328-.645-.608 0-.075.07-.215.159-.307.264-.29.545-.339.809-.15zM5.86 22.305c.328.162.34.512.023.705-.205.124-.428.054-.575-.177-.093-.151-.1-.194-.029-.323a.55.55 0 01.223-.216c.182-.086.147-.086.358.011zm23.156.124c.158.183.147.318-.053.5-.21.189-.375.2-.563.022-.187-.167-.193-.404-.011-.549.24-.204.44-.2.627.027zm-2.498 8.09l-1.055.968-.81-.678c-.44-.376-.791-.71-.78-.748.053-.15.235-.054.862.48.37.306.704.564.733.564.036 0 .481-.387.997-.86.833-.765.944-.851 1.026-.781.077.075-.029.188-.973 1.055zm-16.401-.732c.012.032-.452.49-1.032 1.017l-1.044.958-.786-.657c-.434-.366-.786-.7-.786-.748 0-.194.212-.08.85.452.37.312.699.565.734.565.035 0 .469-.376.967-.834.833-.764 1.038-.91 1.097-.753z" fill="#ffbf2f"/></svg>