<svg width="20" height="32" viewBox="0 0 20 32" fill="none" xmlns="http://www.w3.org/2000/svg">
<path fill-rule="evenodd" clip-rule="evenodd" d="M11.6522 13.6759C11.6522 13.6759 12.9732 14.77 12.7632 16.2289C12.5662 17.5962 10.8622 18.6739 9.11519 19.0283C7.36819 19.3817 4.71519 18.9953 4.32419 18.8706C3.93319 18.747 3.31619 19.2405 3.26619 19.8226C3.21619 20.4048 6.86819 30.2431 6.86819 30.2431C6.86819 30.2431 10.2702 31.0066 14.1782 29.083C18.3642 27.0234 18.9532 24.7207 18.9532 24.7207L15.2072 14.0911L14.0562 13.3719L12.7102 13.1082L11.6522 13.6759Z" fill="#B0A7D2"/>
<path fill-rule="evenodd" clip-rule="evenodd" d="M5.09342 22.0329L4.77942 21.3354C4.77942 21.3354 8.70142 21.0552 10.5274 20.404C12.5964 19.6674 14.6084 17.8746 14.6084 17.8746C14.6084 17.8746 16.3114 22.8685 16.4034 23.2188C16.4944 23.5691 14.6884 24.7777 14.1204 25.1249C13.5514 25.4721 11.3034 26.8424 9.43242 26.9331C7.56242 27.0248 6.69142 27.034 6.69142 27.034L5.09342 22.0329Z" fill="white"/>
<mask id="mask0" mask-type="alpha" maskUnits="userSpaceOnUse" x="0" y="0" width="12" height="19">
<path fill-rule="evenodd" clip-rule="evenodd" d="M11.7868 0.0301514H0V18.3068H11.7868V0.0301514Z" fill="white"/>
</mask>
<g mask="url(#mask0)">
<path fill-rule="evenodd" clip-rule="evenodd" d="M11.2688 15.1784L5.54682 0.896333L5.91582 1.22088C5.82182 1.19718 5.69482 1.17142 5.58082 1.15288C5.46482 1.13227 5.34582 1.11476 5.22782 1.10136C4.99082 1.07458 4.75182 1.05603 4.51582 1.055C4.04382 1.05397 3.57182 1.10033 3.14482 1.23839L2.98482 1.29197C2.95082 1.30227 2.87282 1.3373 2.81982 1.35894C2.69382 1.40839 2.60182 1.45682 2.49582 1.50524C2.28282 1.61342 2.07282 1.73088 1.86982 1.86276C1.66682 1.99567 1.46982 2.13888 1.28182 2.29342C1.18682 2.36967 1.09582 2.45003 1.00582 2.53142C0.918817 2.61076 0.825817 2.70245 0.756817 2.77561V2.77664L0.838817 2.37688L5.35682 17.6223L5.16382 17.4378C5.44482 17.5038 5.73982 17.5605 6.02982 17.6078C6.32082 17.6542 6.61382 17.6923 6.90582 17.7202C7.19882 17.7428 7.49182 17.7634 7.78082 17.7572C7.92582 17.7603 8.06782 17.7449 8.21182 17.7387C8.35082 17.7191 8.49582 17.7119 8.62982 17.6779C8.76882 17.6563 8.89482 17.612 9.02382 17.5718C9.14982 17.5203 9.30482 17.4605 9.43282 17.4018C9.69382 17.2864 9.95582 17.1494 10.2058 17.002C10.4548 16.8516 10.6948 16.6857 10.9178 16.5023C11.0298 16.4106 11.3888 16.1077 11.4428 15.879L11.5508 16.0068C11.6958 16.1768 11.6988 16.4302 11.5598 16.6054C11.4468 16.7496 11.3198 16.8712 11.2498 16.9289C11.0028 17.1318 10.7428 17.3122 10.4728 17.4749C10.2008 17.6346 9.92682 17.7789 9.63482 17.9077C9.48882 17.9746 9.36082 18.0231 9.20782 18.0859C9.04882 18.1374 8.88982 18.19 8.73082 18.2157C8.57182 18.2538 8.41482 18.2631 8.25682 18.2848C8.09982 18.292 7.94182 18.3085 7.78682 18.3054C7.47482 18.3126 7.16682 18.2909 6.85982 18.2662C6.55282 18.2384 6.24882 18.1982 5.94682 18.1498C5.64282 18.1014 5.34682 18.0447 5.04082 17.9726L4.89582 17.9386L4.84782 17.7871L0.0698169 2.62621L-0.000183105 2.40573L0.151817 2.22748L0.152817 2.22542C0.256817 2.10488 0.346817 2.01215 0.445817 1.91118C0.544817 1.81433 0.643817 1.71955 0.747817 1.62888C0.952817 1.44755 1.16782 1.27651 1.39082 1.11682C1.61482 0.958151 1.84782 0.813909 2.08982 0.678939C2.21382 0.61506 2.34982 0.540878 2.46082 0.492454C2.52582 0.463606 2.56482 0.441969 2.64982 0.406939L2.85182 0.329666C3.39482 0.130818 3.95382 0.0556056 4.50182 0.0339692C4.77682 0.0236662 5.04982 0.0339692 5.32182 0.053545C5.45882 0.0628177 5.59382 0.0772419 5.73082 0.0947571C5.86982 0.113303 5.99582 0.131848 6.15082 0.163787H6.15182L6.42082 0.226636L6.52182 0.488333L11.6988 13.8369C11.8198 14.1512 11.8318 14.3593 11.6338 14.7848C11.4698 15.1351 11.2688 15.1784 11.2688 15.1784Z" fill="#181716"/>
</g>
<path fill-rule="evenodd" clip-rule="evenodd" d="M7.53068 22.4552C7.93968 22.4067 8.34968 22.3552 8.75868 22.2852C8.96368 22.2522 9.16668 22.2141 9.37368 22.1739C9.58368 22.1306 9.79168 22.0863 9.98568 22.0358C10.1927 21.9864 10.4037 21.9204 10.6067 21.8535C10.8107 21.7824 11.0107 21.7061 11.2057 21.6206C11.4027 21.5392 11.5937 21.4455 11.7827 21.3507C11.9717 21.2549 12.1577 21.1549 12.3407 21.0498C12.7067 20.8417 13.0637 20.6192 13.4117 20.3843C13.5857 20.2668 13.7577 20.1463 13.9257 20.0206C13.9497 20.003 13.9737 19.9845 13.9977 19.967C13.9977 19.967 15.1547 23.0218 15.2547 23.3474C15.3307 23.5978 15.3217 23.8028 15.3217 23.8028C15.3467 23.8327 15.4627 23.8183 15.6327 23.6565C15.7907 23.5061 15.9097 23.2011 15.8247 22.9466L14.5617 19.1613L14.3837 18.6317L13.9337 18.9758V18.9769C13.7837 19.0923 13.6177 19.2128 13.4547 19.3261L12.9577 19.6641C12.6237 19.8846 12.2827 20.0927 11.9367 20.2864C11.5907 20.4832 11.2347 20.6532 10.8777 20.8108C10.6987 20.8891 10.5177 20.9592 10.3367 21.023C10.1537 21.0849 9.97568 21.1426 9.78768 21.1879C9.58768 21.2404 9.39668 21.2817 9.20868 21.3218C9.01668 21.36 8.81968 21.3981 8.62368 21.431C8.23168 21.5001 7.83368 21.5516 7.43668 21.601C7.03868 21.6505 6.63768 21.6763 6.23768 21.7134C5.83768 21.7484 5.43268 21.7731 5.03768 21.7875L4.47968 21.8081L6.54868 27.4171L6.76168 27.4181C7.13968 27.4171 7.49368 27.4068 7.86468 27.3883C8.23368 27.3697 8.59668 27.346 8.96668 27.31C9.33568 27.276 9.70168 27.2317 10.0707 27.174C10.4397 27.1173 10.8057 27.0431 11.1737 26.9514C11.3567 26.9009 11.5397 26.8525 11.7217 26.7866C11.9047 26.7227 12.0857 26.6526 12.2537 26.5733C12.6067 26.4105 12.9327 26.2302 13.2567 26.0355C13.7417 25.7418 14.1187 25.5193 14.6647 25.0763C14.9027 24.8836 14.9637 24.5415 14.7837 24.2912L14.7567 24.2582C14.2727 24.7723 13.6087 25.1834 12.9837 25.543C12.6727 25.7212 12.3487 25.8881 12.0317 26.0252C11.8657 26.0994 11.7027 26.156 11.5387 26.2096C11.3747 26.2642 11.2027 26.3054 11.0317 26.3487C10.6867 26.426 10.3357 26.4888 9.98068 26.5341C9.62568 26.5815 9.26768 26.6155 8.90768 26.6403C8.54868 26.667 8.18768 26.6804 7.82768 26.6907C7.54968 26.698 7.27068 26.699 6.99368 26.6959L5.61168 22.6138C5.84168 22.6015 6.07168 22.587 6.30168 22.5706C6.71168 22.5407 7.12168 22.5026 7.53068 22.4552Z" fill="#181716"/>
<path fill-rule="evenodd" clip-rule="evenodd" d="M3.98483 17.1871C3.98483 17.1871 3.80383 17.2015 3.53883 17.3715C3.26383 17.5487 2.86883 17.831 2.49483 18.2813C2.40583 18.3895 2.30683 18.5286 2.23983 18.6419L2.20483 18.7037C2.19483 18.7223 2.19383 18.7284 2.18683 18.7418C2.17783 18.7624 2.16183 18.7985 2.15083 18.8284C2.12783 18.8902 2.10883 18.9561 2.09483 19.0241C2.06583 19.1601 2.06083 19.3075 2.08583 19.4569C2.10383 19.5743 2.18983 19.8298 2.25183 20.0493C2.52583 20.9539 2.81683 21.9801 3.13783 23.0979C3.46183 24.2148 3.81283 25.4244 4.18383 26.704C4.37383 27.3418 4.56783 27.997 4.76783 28.6667C4.86883 28.9995 4.97183 29.3364 5.07583 29.6764C5.18083 30.0051 5.29483 30.376 5.40183 30.6542L5.42083 30.7057C5.40783 30.683 5.45683 30.7747 5.39383 30.6583L5.40283 30.6727L5.42083 30.7006L5.43983 30.7294C5.44483 30.7346 5.43883 30.7191 5.43783 30.716C5.43183 30.7047 5.42383 30.6944 5.41383 30.6882C5.41383 30.6882 5.44383 30.7057 5.45683 30.717L5.53583 30.7572C5.65683 30.8108 5.80583 30.8592 5.96283 30.8984C6.27683 30.9777 6.62083 31.0272 6.96683 31.0632C7.66283 31.1343 8.38383 31.1426 9.10683 31.1137C10.5508 31.0447 12.0328 30.8273 13.3868 30.3224C13.4728 30.2926 13.5538 30.2555 13.6368 30.2225L13.7548 30.173L13.8838 30.1133C14.0528 30.0329 14.2338 29.9567 14.3938 29.8722C14.7178 29.7115 15.0428 29.5353 15.3628 29.3509C15.9998 28.9789 16.6128 28.5647 17.1818 28.1104C17.7438 27.657 18.2948 27.1584 18.6718 26.6195C18.7188 26.5526 18.7508 26.4876 18.7918 26.4227C18.8118 26.3898 18.8168 26.363 18.8308 26.3331C18.8388 26.3084 18.8648 26.2682 18.8598 26.2558C18.8608 26.2383 18.8658 26.2229 18.8728 26.2064C18.8738 26.195 18.8758 26.2909 18.8738 26.2414L18.8718 26.2239L18.8668 26.1899L18.8578 26.1209C18.8488 26.0199 18.8248 25.9581 18.8068 25.8829C18.7758 25.7489 18.7248 25.5676 18.6758 25.3945C18.6288 25.2224 18.5748 25.0493 18.5228 24.8763C18.1018 23.4967 17.6488 22.1655 17.2218 20.9065C16.7898 19.6464 16.3808 18.4564 16.0038 17.3571C15.8138 16.808 15.6308 16.2825 15.4578 15.7818C15.3698 15.5324 15.2848 15.2883 15.2018 15.0513C15.1138 14.8071 15.0548 14.5928 14.9548 14.4383C14.8558 14.2734 14.7288 14.1343 14.5868 14.0282C14.5148 13.9756 14.4408 13.9303 14.3638 13.8932C14.2858 13.8541 14.2158 13.8314 14.1138 13.7964C13.7668 13.6872 13.4198 13.6274 13.1108 13.6016C12.4858 13.5522 11.9868 13.6192 11.6518 13.6758C11.4848 13.7078 11.3558 13.7335 11.2708 13.7552C11.1838 13.7758 11.1398 13.7861 11.1398 13.7861C11.0958 13.6161 11.0528 13.445 11.0088 13.274C11.0548 13.2616 11.1008 13.2493 11.1468 13.2369C11.2378 13.2112 11.3748 13.1782 11.5548 13.138C11.9138 13.0659 12.4518 12.9742 13.1488 13.0072C13.4978 13.0247 13.8788 13.0793 14.2958 13.2029C14.3828 13.2307 14.5078 13.2689 14.6168 13.3214C14.7288 13.3729 14.8378 13.4358 14.9428 13.51C15.1518 13.6593 15.3388 13.8561 15.4868 14.0921C15.5238 14.1508 15.5568 14.2116 15.5898 14.2755L15.6378 14.3795L15.6718 14.465C15.7158 14.5815 15.7598 14.7 15.8048 14.8205C15.8918 15.0564 15.9818 15.2986 16.0738 15.5469C16.2578 16.0445 16.4498 16.5669 16.6508 17.1129C17.0518 18.205 17.4838 19.3889 17.9248 20.6479C18.3658 21.908 18.8318 23.2329 19.2738 24.631C19.3288 24.8062 19.3858 24.9803 19.4368 25.1616C19.4888 25.3409 19.5428 25.513 19.5948 25.7386C19.6188 25.8437 19.6488 25.9591 19.6568 26.0446L19.6668 26.1136L19.6718 26.1476L19.6738 26.1652C19.6728 26.1281 19.6788 26.2352 19.6768 26.2352C19.6678 26.3104 19.6558 26.3856 19.6408 26.4609C19.6278 26.5423 19.5998 26.5824 19.5788 26.6453C19.5548 26.6999 19.5338 26.7638 19.5068 26.8112C19.4518 26.9049 19.3998 27.0069 19.3408 27.0924C18.8678 27.7776 18.2938 28.2886 17.6968 28.7863C17.0958 29.2767 16.4568 29.7187 15.7898 30.1174C15.4558 30.3142 15.1158 30.5038 14.7628 30.6841C14.5868 30.7778 14.4188 30.85 14.2458 30.9344L14.1178 30.9952L13.9738 31.0581C13.8818 31.0962 13.7908 31.1384 13.6968 31.1724C12.2128 31.7422 10.6698 31.9781 9.15083 32.0688C8.38983 32.108 7.63383 32.108 6.87783 32.04C6.49983 32.0039 6.12383 31.9555 5.73883 31.8638C5.54583 31.8164 5.35083 31.7597 5.14383 31.669L4.98283 31.5887C4.92183 31.5485 4.87483 31.5217 4.80383 31.4661C4.76083 31.429 4.71883 31.3878 4.68083 31.3455C4.66383 31.326 4.63983 31.2971 4.63083 31.2847L4.61183 31.2569L4.59283 31.2281L4.58383 31.2147C4.51283 31.089 4.55983 31.1683 4.54183 31.1353L4.51083 31.0601C4.35383 30.6624 4.25783 30.343 4.14083 29.9927C4.03183 29.6507 3.92483 29.3117 3.81783 28.9769C3.61183 28.3072 3.40883 27.6509 3.21283 27.0131C2.82783 25.7345 2.46383 24.527 2.12883 23.4112C1.79583 22.2953 1.48983 21.2733 1.23783 20.3615C1.17683 20.1245 1.10483 19.9473 1.04983 19.6279C1.00583 19.3404 1.01883 19.054 1.07783 18.7903C1.10683 18.6573 1.14683 18.5306 1.19983 18.4121C1.22583 18.3513 1.25083 18.2998 1.28483 18.236L1.33483 18.1484L1.37283 18.0886C1.50483 17.8877 1.62183 17.7445 1.75183 17.5982C2.31183 16.9893 3.36083 16.332 3.98483 17.1871Z" fill="#181716"/>
</svg>
