<svg width="30" height="32" viewBox="0 0 30 32" fill="none" xmlns="http://www.w3.org/2000/svg">
<path fill-rule="evenodd" clip-rule="evenodd" d="M10.4975 19.4348C9.33653 17.8698 9.11653 18.2978 9.11653 18.2978C9.11653 18.2978 4.86953 19.7308 2.79753 17.1108C0.725534 14.4908 -0.380466 10.7688 1.30253 8.46484C2.98553 6.16084 5.00253 5.36884 6.72453 5.21784C8.44653 5.06584 13.2475 6.19184 15.7815 6.21784C20.8315 6.26884 24.6495 5.94984 24.6495 5.94984L25.5905 10.9718C25.5905 10.9718 20.0025 12.4738 17.8365 14.1538C15.6705 15.8338 14.4305 17.4018 14.7615 19.1178C14.7615 19.1178 13.9435 20.8188 16.3895 24.2318C18.1205 26.6458 18.2665 28.1068 17.5995 28.5048C16.9335 28.9028 15.6495 29.3668 14.2935 27.2678C12.9375 25.1688 10.4975 19.4348 10.4975 19.4348Z" fill="#F6CEA9"/>
<path fill-rule="evenodd" clip-rule="evenodd" d="M27.4798 2.49404C27.4798 2.49404 27.5958 2.75804 27.8138 3.25404C28.0218 3.75404 28.3128 4.49504 28.6118 5.46104C28.9088 6.42804 29.1778 7.62804 29.3758 9.02304C29.3938 9.21904 29.4338 9.32004 29.4338 9.60004C29.4188 9.84604 29.2918 10.119 29.0218 10.257C28.5858 10.41 28.2788 10.481 27.8858 10.601C27.1358 10.819 26.3478 11.048 25.5248 11.288C23.8688 11.73 22.1648 12.372 20.4128 13.241C18.6478 14.093 16.9138 15.138 15.0548 16.266C13.1688 17.343 11.0708 18.22 8.87982 18.83C8.35982 18.978 7.75482 19.172 7.13582 19.206C6.52182 19.239 5.89282 19.208 5.29682 19.042C4.09882 18.735 3.00482 18.07 2.15882 17.185C1.30582 16.326 0.678816 15.172 0.333816 14.061C-0.033184 12.876 -0.080184 11.651 0.107816 10.459C0.328816 9.27904 0.806816 8.13704 1.58682 7.22904C1.96382 6.76804 2.41782 6.37204 2.91782 6.05704C3.15982 5.89304 3.43282 5.75704 3.71482 5.63404C4.00282 5.50604 4.20582 5.45404 4.51582 5.35304C6.57582 4.74804 8.67482 4.34804 10.6578 4.22104C11.6508 4.14504 12.6338 4.15904 13.5408 4.15704C14.4588 4.15104 15.3458 4.12304 16.1948 4.07404C17.8938 3.97704 19.4438 3.79604 20.7938 3.53304C22.1288 3.27904 23.3018 2.89804 24.2668 2.65204C25.2308 2.38904 25.9888 2.18204 26.5058 2.04104C26.6288 1.99104 26.8838 1.98104 27.0098 2.04404C27.1558 2.09804 27.2518 2.18104 27.3188 2.25104C27.3848 2.32304 27.4228 2.38604 27.4518 2.43704C27.4678 2.46904 27.4758 2.48504 27.4758 2.48504L27.4798 2.49404ZM27.0258 2.71304C27.0258 2.71304 27.0178 2.69704 27.0018 2.66604C26.9948 2.65804 26.9788 2.62904 26.9498 2.60004C26.8778 2.54504 26.8258 2.47204 26.6458 2.53904C26.1318 2.68804 25.3768 2.90704 24.4168 3.18604C23.4488 3.44904 22.3128 3.84204 20.9158 4.13404C19.5358 4.42604 17.9608 4.63404 16.2398 4.76004C15.3788 4.82404 14.4818 4.86704 13.5518 4.88804C12.6118 4.90504 11.6828 4.90704 10.7178 4.99604C8.78082 5.15404 6.79382 5.56304 4.75282 6.19704C2.81982 6.70904 1.38482 8.54904 1.07982 10.621C0.931816 11.65 1.00282 12.748 1.32282 13.735C1.49782 14.309 1.68182 14.729 1.94882 15.209C2.21682 15.666 2.52282 16.105 2.89382 16.482C3.60882 17.26 4.53682 17.841 5.53882 18.117C6.03882 18.268 6.56082 18.298 7.07382 18.282C7.59082 18.263 8.07382 18.117 8.63682 17.968C10.7898 17.409 12.8208 16.6 14.6748 15.585C16.4968 14.523 18.3338 13.46 20.1238 12.637C21.9068 11.788 23.7048 11.149 25.3698 10.737C26.1968 10.512 26.9888 10.297 27.7428 10.092C28.1038 9.99204 28.4558 9.89504 28.7978 9.80104C28.8648 9.77304 28.9268 9.67704 28.9298 9.56704C28.9358 9.48804 28.8908 9.24104 28.8738 9.09104C28.6838 7.72804 28.3798 6.56004 28.1018 5.61404C27.8238 4.66504 27.5468 3.93804 27.3438 3.44904C27.1338 2.96304 27.0218 2.70404 27.0218 2.70404L27.0258 2.71304Z" fill="black"/>
<path fill-rule="evenodd" clip-rule="evenodd" d="M23.9964 2.97998C23.9964 2.97998 24.5354 4.45398 24.9314 5.96698C25.3484 7.47398 25.5874 9.02498 25.5874 9.02498L25.1074 9.10598C25.1074 9.10598 24.8224 7.59798 24.3614 6.12998C23.9204 4.65598 23.3444 3.23498 23.3444 3.23498L23.9964 2.97998Z" fill="black"/>
<path fill-rule="evenodd" clip-rule="evenodd" d="M6.22882 11.4134L11.2348 10.2964L11.3538 10.7174L6.49982 12.3764L6.22882 11.4134Z" fill="black"/>
<path fill-rule="evenodd" clip-rule="evenodd" d="M5.63733 9.5669C5.63733 9.5669 5.93433 9.4489 6.41233 9.2899C6.88233 9.1319 7.51633 8.9509 8.15733 8.8099C9.43933 8.5189 10.7383 8.4209 10.7383 8.4209L10.7983 8.8539C10.7983 8.8539 9.54333 9.0899 8.34933 9.5029C7.75233 9.7049 7.17033 9.9419 6.74433 10.1389C6.32633 10.3319 6.03833 10.4829 6.03833 10.4829L5.63733 9.5669Z" fill="black"/>
<path fill-rule="evenodd" clip-rule="evenodd" d="M6.82843 13.2684C6.82843 13.2684 7.14243 13.2424 7.61343 13.2024C8.08043 13.1554 8.70243 13.0634 9.31743 12.9294C10.5514 12.6724 11.7264 12.1794 11.7264 12.1794L11.9144 12.5744C11.9144 12.5744 10.7664 13.2114 9.50943 13.6214C8.88543 13.8314 8.24543 13.9994 7.75943 14.1034C7.27543 14.1974 6.95243 14.2604 6.95243 14.2604L6.82843 13.2684Z" fill="black"/>
<path fill-rule="evenodd" clip-rule="evenodd" d="M3.56823 6.23848C3.56823 6.23848 3.50623 6.44748 3.39723 6.81248C3.34023 6.99548 3.27423 7.21648 3.22123 7.46948C3.16723 7.72348 3.08523 8.00548 3.04223 8.32448C2.92523 8.95748 2.85423 9.70648 2.85923 10.5085C2.88123 10.9075 2.88323 11.3245 2.95823 11.7385C3.00523 12.1575 3.11223 12.5715 3.20923 12.9875C3.34123 13.3935 3.46323 13.8035 3.63923 14.1865C3.78923 14.5805 4.00323 14.9385 4.19023 15.2925C4.60123 15.9825 5.04823 16.5885 5.47723 17.0715C5.67823 17.3235 5.89623 17.5245 6.07623 17.7155C6.25523 17.9075 6.42423 18.0615 6.56523 18.1875C6.84423 18.4405 7.00423 18.5855 7.00423 18.5855L6.78723 18.8395C6.78723 18.8395 6.62423 18.6925 6.33723 18.4355C6.19323 18.3085 6.01923 18.1515 5.83423 17.9565C5.64923 17.7615 5.42523 17.5565 5.21623 17.2995C4.77423 16.8065 4.30823 16.1855 3.88023 15.4745C3.68323 15.1095 3.46023 14.7395 3.30223 14.3315C3.11723 13.9355 2.98723 13.5105 2.84823 13.0885C2.74423 12.6575 2.63123 12.2275 2.57923 11.7925C2.49923 11.3625 2.49423 10.9305 2.46923 10.5155C2.45923 9.68448 2.52723 8.90948 2.64423 8.25648C2.68623 7.92748 2.77023 7.63148 2.82523 7.36648C2.88023 7.09948 2.94523 6.87748 3.00023 6.69548C3.10723 6.32948 3.16923 6.12048 3.16923 6.12048L3.56823 6.23848Z" fill="black"/>
<path fill-rule="evenodd" clip-rule="evenodd" d="M17.0323 14.7894C17.0323 14.7894 16.6513 15.2044 16.0983 16.0194C15.8273 16.4274 15.5073 16.9364 15.2513 17.5564C15.0113 18.1534 14.7773 18.9754 15.2013 19.5654C15.7093 20.2164 16.3863 20.8414 17.1003 21.5184C17.8113 22.1984 18.5863 22.9034 19.2543 23.7954C19.5833 24.2304 19.8833 24.7754 20.0243 25.3314C20.1723 25.8934 20.2663 26.4464 20.3443 27.0144C20.4203 27.5794 20.4763 28.1494 20.5183 28.7224C20.5333 29.0264 20.5713 29.2554 20.5583 29.6224C20.5163 30.0164 20.3023 30.3404 20.0143 30.5574C19.8713 30.6654 19.7083 30.7464 19.5373 30.7974C19.4503 30.8234 19.3683 30.8404 19.2723 30.8534L19.0563 30.8754C18.7303 30.8984 18.4273 30.8804 18.1173 30.8244C17.5053 30.7124 16.9153 30.4384 16.4513 30.0144C15.6243 29.1324 14.9843 28.2814 14.3193 27.4094C13.0283 25.6714 11.9503 23.9574 11.2663 22.3144C11.0993 21.9044 10.9723 21.4724 10.8833 21.0924C10.7983 20.7094 10.6993 20.5534 10.4583 20.3254C10.0173 19.9124 9.47833 19.6544 9.04633 19.4654C8.60633 19.2784 8.24333 19.1644 7.99733 19.0904C7.75433 19.0244 7.62433 18.9894 7.62433 18.9894L7.81133 18.2004C7.81133 18.2004 7.95633 18.2414 8.23033 18.3184C8.49533 18.4014 8.88333 18.5274 9.36233 18.7374C9.83733 18.9554 10.4223 19.2244 11.0003 19.7714C11.2883 20.0034 11.5693 20.5214 11.6243 20.9124C11.7093 21.2944 11.8113 21.6544 11.9623 22.0414C12.5753 23.5774 13.6193 25.2944 14.8673 27.0054C15.4893 27.8454 16.1863 28.7694 16.8883 29.5374C17.2533 29.8784 17.7293 30.1084 18.2343 30.2064C18.7213 30.2884 19.3253 30.3154 19.6493 30.0674C19.8213 29.9464 19.9383 29.7474 19.9583 29.5704C19.9713 29.3674 19.9393 29.0264 19.9273 28.7624C19.8903 28.1994 19.8413 27.6394 19.7733 27.0884C19.6263 25.9754 19.4713 24.9214 18.8173 24.1144C18.2073 23.2794 17.4503 22.5694 16.7493 21.8864C16.0463 21.2044 15.3563 20.5594 14.8153 19.8494C14.5113 19.4344 14.4623 18.9244 14.5133 18.5104C14.5603 18.0854 14.6933 17.7164 14.8303 17.3824C15.1143 16.7164 15.4513 16.1934 15.7363 15.7724C16.3163 14.9374 16.7163 14.5094 16.7163 14.5094L17.0323 14.7894Z" fill="black"/>
</svg>
