<svg xmlns="http://www.w3.org/2000/svg" width="125" height="125" viewBox="0 0 33.073 33.073"><g fill="#ffbf2f"><path d="M30.438 1.394a6.24 6.24 0 00-.36.447c-.331.463-.621.63-1.451.856-3.27.877-5.538 2.82-6.188 5.3-.132.5-.187 1.243-.097 1.243.02 0 .214-.118.422-.269.214-.145.608-.355.878-.462.408-.173.574-.205 1.023-.227.29-.01.63 0 .747.033l.214.059-.055-.2a3.122 3.122 0 01-.049-.656c.007-.834.47-1.63 1.37-2.362.635-.511 1.216-.829 1.887-1.039.297-.091.588-.204.65-.253.11-.086 1.929-2.335 1.929-2.389 0-.06-.47-.253-.608-.253-.083 0-.215.075-.312.172z"/><path d="M30.736 2.826l-.982 1.221.048.7c.035.597.021.759-.097 1.108-.435 1.308-1.79 2.465-3.222 2.767-.428.091-.477.091-.864.01-.546-.118-1.161-.118-1.59.011-1.362.404-4.245 2.868-6.105 5.22l-.346.436.74.866c.408.48.767.845.795.824.028-.027.373-.399.767-.83 1.038-1.135 1.632-1.689 2.476-2.318.926-.69 1.251-.835 2.178-.964 1.597-.22 3.27-.941 4.577-1.959 1.383-1.081 2.26-2.421 2.53-3.858.104-.565.042-1.867-.103-2.222-.187-.447-.152-.55.373-1.206.27-.334.484-.635.484-.678 0-.091-.11-.161-.429-.264l-.255-.086zm-5.622 6.791c.436.205.56.517.332.861-.152.226-.484.377-.857.377-.256 0-.339-.033-.567-.21-.228-.178-.27-.242-.27-.436 0-.2.042-.258.305-.463.248-.199.345-.237.567-.237.152 0 .366.049.49.108zm-14.118-6.99a3.665 3.665 0 01-.678.592c-.712.468-1.28.635-2.372.694-.615.032-.85.075-1.154.188-.463.167-.892.528-1.058.877-.297.635-2.102 1.652-3.015 1.706-.38.022-.809.124-1.57.366l-.504.162.042.242c.076.42.49 1.286.843 1.743.622.808 2.206 1.943 2.58 1.846.213-.048 1.257-.942 1.403-1.195.207-.36 1.092-.925 2.06-1.307.373-.15.56-.189 1.093-.22.518-.028.732-.07 1.085-.205.519-.2.747-.41 1.086-.974.131-.221.373-.528.532-.678.525-.517 1.542-.953 2.372-1.028.394-.038.421-.076.539-.624.117-.598-.11-1.249-.615-1.744-.415-.414-1.363-.77-2.04-.77l-.353.005z"/><path d="M6.087 3.429c-.754.365-.934.527-.934.839 0 .242.152.56.277.56.034 0 .083-.054.11-.119.021-.064.208-.247.401-.409a2.94 2.94 0 011.5-.63c.187-.02.34-.048.34-.059 0-.08-.256-.306-.422-.376-.367-.146-.678-.097-1.272.193zM10.899 7.6c-.332.489-.975.828-1.812.962l-.408.065 9.964 11.457c5.483 6.307 10.032 11.505 10.115 11.554.422.274.975.231 1.646-.13.518-.269.677-.468.677-.834 0-.333 1.107.985-8.78-10.456C14.576 11.28 11.167 7.362 11.098 7.357c-.02 0-.11.108-.2.242zm14.789 4.315a9.664 9.664 0 01-1.147.231c-.816.113-.948.162-1.55.555-.421.274-.462.328-.718.823-.29.586-1.286 2.169-1.881 2.992-.214.296-.366.565-.346.608.063.135 1.286 1.534 1.342 1.534.055 0 2.586-3.288 3.318-4.305.844-1.184 1.535-2.32 1.535-2.53 0-.07-.02-.064-.553.092zM11.39 22.624c-4.654 6.264-6.03 8.131-6.202 8.422l-.125.193.2.14c.111.076.36.205.56.285.568.237.575.232 1.709-1.194.539-.684 2.067-2.605 3.394-4.278 1.321-1.674 3.23-4.063 4.232-5.317l1.818-2.276-.67-.775c-.374-.425-.699-.775-.72-.78-.027 0-1.915 2.512-4.196 5.58zm6.084-2.287c-2.71 3.422-9.486 12.075-9.486 12.124 0 .113.256.253.719.382l.456.13.146-.125c.235-.188 1.203-1.21 2.101-2.217 1.999-2.244 7.848-9.202 7.848-9.336 0-.033-.29-.399-.65-.813l-.65-.753z"/></g></svg>