<svg xmlns="http://www.w3.org/2000/svg" viewBox="0 0 10520.91 5544.933" height="5544.933" width="10520.909"><defs><linearGradient id="a" spreadMethod="pad" gradientTransform="matrix(59.56555 0 0 -59.56555 37.488 966.412)" gradientUnits="userSpaceOnUse" y2="0" x2="1" y1="0" x1="0"><stop offset="0" stop-color="#971238"/><stop offset=".859" stop-color="#ba1d39"/><stop offset="1" stop-color="#ba1d39"/></linearGradient><linearGradient id="b" spreadMethod="pad" gradientTransform="matrix(59.56554 0 0 -59.56554 272.228 966.412)" gradientUnits="userSpaceOnUse" y2="0" x2="1" y1="0" x1="0"><stop offset="0" stop-color="#971238"/><stop offset=".859" stop-color="#ba1d39"/><stop offset="1" stop-color="#ba1d39"/></linearGradient><clipPath id="c" clipPathUnits="userSpaceOnUse"><path d="M0 1162.2h2097.64V0H0z"/></clipPath></defs><path d="M37.489 979.807l13.263-15.196-12.445-19.588a1101.972 1101.972 0 0058.747 8.073V987.8a1129.931 1129.931 0 01-59.565-7.993" fill="url(#a)" transform="matrix(25.0299 0 0 -27.85164 1130.203 30649.65)"/><path d="M272.228 953.096a1102.188 1102.188 0 0058.749-8.073l-12.447 19.588 13.263 15.196a1129.508 1129.508 0 01-59.565 7.993z" fill="url(#b)" transform="matrix(25.0299 0 0 -27.85164 1130.203 30649.65)"/><g clip-path="url(#c)" transform="matrix(25.0299 0 0 -27.85164 1127.412 30649.747)"><path d="M62.03 989.383v-27.776l35.138-8.507v27.776zm245.446 0v-27.776L272.34 953.1v27.776z" fill="#631223"/><path d="M307.476 961.523v39.405a965.853 965.853 0 01-122.722 7.809 965.814 965.814 0 01-122.72-7.81v-39.404a941.064 941.064 0 00122.72 8.01c41.543 0 82.499-2.722 122.722-8.01" fill="#e9344e"/></g><path d="M5655.021 66.28c-99.163 73.825-119.784 214.526-45.96 313.727 73.788 99.163 214.527 119.784 313.69 45.996 99.163-73.824 119.82-214.563 45.996-313.726-73.824-99.163-214.525-119.82-313.726-45.996zm274.863 369.272c-104.439 77.763-252.682 56.028-330.408-48.449-77.725-104.439-55.99-252.645 48.449-330.408 104.439-77.725 252.645-55.99 330.408 48.449 77.725 104.476 55.99 252.682-48.449 330.408M3502.71 689.272l-10.155 6.27L3068.99 9.225l10.156-6.271 423.564 686.319" fill="#fff"/><path d="M5677.971 3586.47c249.988-202.554 1224.944-1098.679 1229.452-2462.627.088-27.284-25.476-50.94-61.457-56.984-197.985-33.275-828.798-179.906-1189.137-454.803-20.092-15.322-53.316-15.322-73.407 0-360.34 274.897-991.152 421.528-1189.138 454.803-35.98 6.044-61.544 29.7-61.457 56.984 4.509 1363.948 979.465 2260.073 1229.452 2462.627 31.035 25.172 84.613 25.172 115.692 0" fill="#181615"/><path d="M5675.325 3518.162c238.479-193.232 1156.597-1043.22 1160.888-2344.362.086-26.032-24.312-48.598-58.634-54.365-188.859-31.736-778.663-176.489-1122.449-438.732-19.154-14.615-50.833-14.615-69.987 0-343.786 262.243-934.76 413.9-1123.62 445.635-34.321 5.767-58.72 28.333-58.633 54.365 4.29 1301.141 923.58 2144.227 1162.058 2337.46 29.642 24.013 80.735 24.013 110.377 0" fill="#181615"/><path d="M5668.454 3418.018c208.825-181.915 1038.332-981.72 1042.078-2206.697.086-24.506-21.282-45.749-51.333-51.179-165.408-29.884-707.389-129.005-1008.409-375.894-16.77-13.762-44.523-13.762-61.294 0-301.062 246.889-843.043 346.01-1008.451 375.894-30.05 5.43-51.418 26.673-51.333 51.18 3.745 1224.976 833.296 2024.781 1042.077 2206.696 25.965 22.607 70.701 22.607 96.665 0" fill="#fff"/><path d="M4403.206 1153.52c0 14.025 13.001 25.401 28.995 25.401 16.022 0 28.995-11.376 28.995-25.402 0-14.025-12.973-25.402-28.995-25.402-15.994 0-28.995 11.377-28.995 25.402" fill="#181615"/><path d="M4432.193 1130.25c-14.648 0-26.563 10.44-26.563 23.272 0 12.835 11.915 23.272 26.563 23.272 14.65 0 26.564-10.437 26.564-23.272 0-12.832-11.915-23.272-26.564-23.272zm0 50.806c-17.325 0-31.427-12.349-31.427-27.534 0-15.175 14.102-27.531 31.427-27.531 17.326 0 31.428 12.356 31.428 27.531 0 15.185-14.102 27.534-31.428 27.534" fill="#fff"/><path d="M4689.133 1061.319c0 14.028 12.97 25.403 28.993 25.403 16.023 0 28.993-11.375 28.993-25.403 0-14.025-12.97-25.403-28.993-25.403-16.022 0-28.993 11.378-28.993 25.403" fill="#181615"/><path d="M4718.125 1038.05c-14.656 0-26.564 10.44-26.564 23.273 0 12.834 11.908 23.273 26.564 23.273 14.657 0 26.565-10.44 26.565-23.273s-11.908-23.272-26.565-23.272zm0 50.805c-17.343 0-31.42-12.347-31.42-27.532 0-15.177 14.077-27.534 31.42-27.534 17.313 0 31.42 12.357 31.42 27.534 0 15.185-14.107 27.532-31.42 27.532" fill="#fff"/><path d="M4997.445 972.694c0 14.028 12.996 25.404 28.975 25.404 16.01 0 29.007-11.376 29.007-25.404 0-14.025-12.996-25.401-29.007-25.401-15.979 0-28.975 11.376-28.975 25.401" fill="#181615"/><path d="M5026.433 949.426c-14.657 0-26.557 10.438-26.557 23.273 0 12.833 11.9 23.271 26.557 23.271 14.656 0 26.556-10.438 26.556-23.27 0-12.836-11.9-23.274-26.556-23.274zm0 50.806c-17.348 0-31.42-12.347-31.42-27.533 0-15.176 14.072-27.532 31.42-27.532 17.315 0 31.42 12.356 31.42 27.532 0 15.186-14.105 27.533-31.42 27.533" fill="#fff"/><path d="M5289.23 860.212c0 14.03 12.963 25.402 28.969 25.402 16.005 0 29.002-11.372 29.002-25.402 0-14.027-12.997-25.402-29.002-25.402-16.006 0-28.968 11.375-28.968 25.402" fill="#181615"/><path d="M5318.216 836.945c-14.678 0-26.585 10.439-26.585 23.27 0 12.83 11.907 23.27 26.585 23.27 14.644 0 26.551-10.44 26.551-23.27 0-12.831-11.907-23.27-26.55-23.27zm0 50.8c-17.347 0-31.444-12.349-31.444-27.53 0-15.181 14.097-27.533 31.444-27.533 17.313 0 31.41 12.352 31.41 27.533 0 15.181-14.097 27.53-31.41 27.53" fill="#fff"/><path d="M5591.131 690.53c0 14.028 12.98 25.4 28.987 25.4 16.007 0 28.986-11.372 28.986-25.4 0-14.029-12.979-25.4-28.986-25.4-16.008 0-28.987 11.371-28.987 25.4" fill="#181615"/><path d="M5620.13 667.256c-14.643 0-26.545 10.438-26.545 23.268s11.902 23.272 26.546 23.272c14.643 0 26.545-10.442 26.545-23.272 0-12.83-11.902-23.268-26.545-23.268zm0 50.8c-17.312 0-31.414-12.35-31.414-27.532 0-15.181 14.102-27.531 31.415-27.531 17.312 0 31.414 12.35 31.414 27.531 0 15.182-14.102 27.531-31.414 27.531" fill="#fff"/><path d="M5591.131 3512.112c0 14.027 12.98 25.403 28.987 25.403 16.007 0 28.986-11.376 28.986-25.403 0-14.035-12.979-25.402-28.986-25.402-16.008 0-28.987 11.367-28.987 25.402" fill="#181615"/><path d="M5620.13 3488.84c-14.643 0-26.545 10.439-26.545 23.272 0 12.825 11.902 23.272 26.546 23.272 14.643 0 26.545-10.447 26.545-23.272 0-12.833-11.902-23.272-26.545-23.272zm0 50.805c-17.312 0-31.414-12.356-31.414-27.533 0-15.185 14.102-27.533 31.415-27.533 17.312 0 31.414 12.348 31.414 27.533 0 15.177-14.102 27.533-31.414 27.533" fill="#fff"/><path d="M4407.882 1431.754c0 14.034 12.986 25.402 28.995 25.402 16.01 0 28.995-11.368 28.995-25.402 0-14.027-12.986-25.393-28.995-25.393-16.01 0-28.995 11.366-28.995 25.393" fill="#181615"/><path d="M4436.867 1408.494c-14.634 0-26.561 10.437-26.561 23.262 0 12.833 11.927 23.273 26.561 23.273 14.664 0 26.562-10.44 26.562-23.273 0-12.825-11.898-23.262-26.562-23.262zm0 50.796c-17.313 0-31.43-12.348-31.43-27.534 0-15.175 14.117-27.523 31.43-27.523 17.314 0 31.43 12.348 31.43 27.523 0 15.186-14.116 27.534-31.43 27.534" fill="#fff"/><path d="M4453.43 1700.911c0 14.026 12.967 25.402 28.986 25.402 15.99 0 28.986-11.376 28.986-25.402 0-14.025-12.996-25.401-28.986-25.401-16.019 0-28.986 11.376-28.986 25.401" fill="#181615"/><path d="M4482.413 1677.642c-14.66 0-26.558 10.439-26.558 23.271 0 12.835 11.897 23.271 26.558 23.271 14.63 0 26.557-10.436 26.557-23.27 0-12.833-11.926-23.272-26.557-23.272zm0 50.804c-17.337 0-31.444-12.348-31.444-27.533 0-15.177 14.107-27.532 31.444-27.532 17.307 0 31.414 12.355 31.414 27.532 0 15.185-14.107 27.533-31.414 27.533" fill="#fff"/><path d="M4518.209 1958.023c0 14.026 12.967 25.395 28.97 25.395 16.031 0 28.998-11.369 28.998-25.395 0-14.034-12.967-25.403-28.999-25.403-16.002 0-28.969 11.37-28.969 25.403" fill="#181615"/><path d="M4547.171 1934.752c-14.625 0-26.537 10.44-26.537 23.274 0 12.824 11.912 23.264 26.537 23.264 14.654 0 26.566-10.44 26.566-23.264 0-12.834-11.912-23.274-26.566-23.274zm0 50.798c-17.308 0-31.402-12.349-31.402-27.524 0-15.185 14.094-27.534 31.402-27.534 17.337 0 31.431 12.349 31.431 27.534 0 15.175-14.094 27.524-31.43 27.524" fill="#fff"/><path d="M4610.159 2210.862c0 14.027 13.005 25.403 29.013 25.403 16.009 0 28.984-11.376 28.984-25.403 0-14.026-12.975-25.402-28.984-25.402-16.008 0-29.013 11.376-29.013 25.402" fill="#181615"/><path d="M4639.15 2187.593c-14.635 0-26.564 10.436-26.564 23.272 0 12.832 11.93 23.271 26.563 23.271 14.665 0 26.564-10.439 26.564-23.271 0-12.836-11.9-23.272-26.564-23.272zm0 50.803c-17.31 0-31.402-12.356-31.402-27.531 0-15.179 14.093-27.535 31.401-27.535 17.339 0 31.432 12.356 31.432 27.535 0 15.175-14.093 27.531-31.432 27.531" fill="#fff"/><path d="M4718.128 2453.723c0 14.026 12.984 25.4 29.008 25.4 15.993 0 28.978-11.374 28.978-25.4 0-14.026-12.985-25.403-28.978-25.403-16.024 0-29.008 11.377-29.008 25.403" fill="#181615"/><path d="M4747.122 2430.452c-14.65 0-26.566 10.438-26.566 23.27 0 12.836 11.916 23.274 26.566 23.274 14.65 0 26.565-10.438 26.565-23.273 0-12.833-11.916-23.271-26.565-23.271zm0 50.804c-17.353 0-31.419-12.354-31.419-27.533 0-15.177 14.066-27.53 31.419-27.53 17.321 0 31.418 12.353 31.418 27.53 0 15.179-14.097 27.533-31.418 27.533" fill="#fff"/><path d="M4845.54 2692.485c0 14.025 12.97 25.402 28.993 25.402 16.022 0 28.991-11.377 28.991-25.402 0-14.027-12.969-25.404-28.991-25.404-16.023 0-28.992 11.377-28.992 25.404" fill="#181615"/><path d="M4874.52 2669.212c-14.645 0-26.55 10.439-26.55 23.273s11.905 23.273 26.55 23.273c14.644 0 26.58-10.44 26.58-23.273 0-12.834-11.936-23.273-26.58-23.273zm0 50.806c-17.322 0-31.431-12.348-31.431-27.533 0-15.177 14.109-27.533 31.43-27.533 17.322 0 31.43 12.356 31.43 27.533 0 15.185-14.108 27.533-31.43 27.533" fill="#fff"/><path d="M4997.445 2912.177c0 14.026 12.996 25.401 28.975 25.401 16.01 0 29.007-11.375 29.007-25.4 0-14.026-12.996-25.405-29.007-25.405-15.979 0-28.975 11.379-28.975 25.404" fill="#181615"/><path d="M5026.433 2888.904c-14.657 0-26.557 10.441-26.557 23.274s11.9 23.27 26.557 23.27c14.656 0 26.556-10.437 26.556-23.27s-11.9-23.274-26.556-23.274zm0 50.806c-17.348 0-31.42-12.355-31.42-27.532s14.072-27.532 31.42-27.532c17.315 0 31.42 12.355 31.42 27.532s-14.105 27.532-31.42 27.532" fill="#fff"/><path d="M5167.632 3131.083c0 14.026 12.98 25.402 29.005 25.402 15.991 0 28.972-11.376 28.972-25.402 0-14.026-12.98-25.402-28.972-25.402-16.025 0-29.005 11.376-29.005 25.402" fill="#181615"/><path d="M5196.606 3107.812c-14.626 0-26.54 10.44-26.54 23.272 0 12.833 11.914 23.273 26.54 23.273 14.66 0 26.575-10.44 26.575-23.273 0-12.832-11.915-23.272-26.575-23.272zm0 50.806c-17.303 0-31.394-12.358-31.394-27.534 0-15.175 14.09-27.533 31.394-27.533 17.338 0 31.428 12.358 31.428 27.533 0 15.176-14.09 27.534-31.428 27.534" fill="#fff"/><path d="M5368.642 3339.953c0 14.035 13.008 25.402 28.999 25.402 16.026 0 28.999-11.367 28.999-25.402 0-14.026-12.973-25.402-29-25.402-15.99 0-28.998 11.376-28.998 25.402" fill="#181615"/><path d="M5397.625 3316.69c-14.645 0-26.548 10.439-26.548 23.263 0 12.834 11.903 23.273 26.548 23.273 14.679 0 26.582-10.44 26.582-23.273 0-12.824-11.903-23.263-26.582-23.263zm0 50.796c-17.317 0-31.406-12.347-31.406-27.533 0-15.176 14.089-27.524 31.406-27.524 17.351 0 31.44 12.348 31.44 27.524 0 15.186-14.089 27.533-31.44 27.533" fill="#fff"/><path d="M6844.828 1153.52c0 14.028-12.973 25.402-28.983 25.402-16.01 0-28.984-11.374-28.984-25.402s12.973-25.402 28.984-25.402c16.01 0 28.983 11.374 28.983 25.402" fill="#181615"/><path d="M6815.83 1130.248c-14.627 0-26.563 10.44-26.563 23.274 0 12.835 11.936 23.274 26.563 23.274 14.627 0 26.562-10.44 26.562-23.274 0-12.835-11.935-23.274-26.562-23.274zm0 50.807c-17.318 0-31.424-12.348-31.424-27.533 0-15.177 14.106-27.533 31.424-27.533 17.318 0 31.424 12.356 31.424 27.533 0 15.185-14.106 27.533-31.424 27.533" fill="#fff"/><path d="M6558.889 1061.323c0 14.026-12.99 25.403-28.978 25.403-16.029 0-29.019-11.377-29.019-25.403 0-14.027 12.99-25.404 29.02-25.404 15.987 0 28.977 11.377 28.977 25.404" fill="#181615"/><path d="M6529.926 1038.047c-14.66 0-26.572 10.437-26.572 23.271 0 12.834 11.912 23.271 26.572 23.271 14.62 0 26.531-10.437 26.531-23.27 0-12.835-11.912-23.272-26.53-23.272zm0 50.804c-17.326 0-31.445-12.349-31.445-27.533 0-15.177 14.12-27.533 31.445-27.533 17.285 0 31.404 12.356 31.404 27.533 0 15.184-14.12 27.533-31.404 27.533" fill="#fff"/><path d="M6250.597 972.694c0 14.026-12.996 25.402-28.973 25.402-16.016 0-29.012-11.376-29.012-25.402 0-14.026 12.996-25.403 29.012-25.403 15.977 0 28.973 11.377 28.973 25.403" fill="#181615"/><path d="M6221.613 949.423c-14.67 0-26.558 10.44-26.558 23.273s11.888 23.273 26.558 23.273c14.631 0 26.559-10.44 26.559-23.273s-11.928-23.273-26.559-23.273zm0 50.806c-17.334 0-31.448-12.349-31.448-27.533 0-15.178 14.114-27.534 31.448-27.534 17.295 0 31.409 12.356 31.409 27.534 0 15.184-14.114 27.533-31.409 27.533" fill="#fff"/><path d="M5958.823 860.21c0 14.03-12.98 25.403-28.996 25.403s-28.996-11.373-28.996-25.402c0-14.026 12.98-25.399 28.996-25.399s28.996 11.373 28.996 25.399" fill="#181615"/><path d="M5929.811 836.944c-14.617 0-26.54 10.44-26.54 23.27s11.923 23.27 26.54 23.27c14.656 0 26.578-10.44 26.578-23.27s-11.922-23.27-26.578-23.27zm0 50.801c-17.313 0-31.399-12.352-31.399-27.531 0-15.18 14.086-27.531 31.4-27.531 17.35 0 31.437 12.351 31.437 27.53 0 15.18-14.086 27.532-31.438 27.532" fill="#fff"/><path d="M6840.151 1431.755c0 14.033-12.964 25.4-29.007 25.4-16 0-28.965-11.367-28.965-25.4 0-14.027 12.965-25.397 28.965-25.397 16.043 0 29.007 11.37 29.007 25.397" fill="#181615"/><path d="M6811.174 1408.49c-14.66 0-26.589 10.44-26.589 23.266 0 12.834 11.928 23.27 26.589 23.27 14.617 0 26.545-10.436 26.545-23.27 0-12.826-11.928-23.266-26.545-23.266zm0 50.796c-17.35 0-31.447-12.348-31.447-27.53 0-15.179 14.097-27.526 31.447-27.526 17.306 0 31.403 12.347 31.403 27.526 0 15.182-14.097 27.53-31.403 27.53" fill="#fff"/><path d="M6794.622 1700.913c0 14.027-12.967 25.403-28.993 25.403-16.026 0-28.993-11.376-28.993-25.403 0-14.026 12.967-25.403 28.993-25.403 16.026 0 28.993 11.377 28.993 25.403" fill="#181615"/><path d="M6765.63 1677.644c-14.652 0-26.589 10.436-26.589 23.27 0 12.835 11.937 23.272 26.59 23.272 14.652 0 26.547-10.437 26.547-23.271 0-12.835-11.895-23.271-26.547-23.271zm0 50.805c-17.323 0-31.416-12.348-31.416-27.534 0-15.176 14.093-27.534 31.417-27.534s31.416 12.358 31.416 27.534c0 15.186-14.092 27.534-31.416 27.534" fill="#fff"/><path d="M6729.83 1958.023c0 14.024-12.975 25.393-28.98 25.393-16.007 0-28.983-11.369-28.983-25.393 0-14.035 12.976-25.404 28.982-25.404s28.982 11.369 28.982 25.404" fill="#181615"/><path d="M6700.83 1934.75c-14.644 0-26.557 10.438-26.557 23.273 0 12.825 11.913 23.262 26.558 23.262s26.558-10.437 26.558-23.262c0-12.835-11.913-23.273-26.558-23.273zm0 50.796c-17.334 0-31.425-12.345-31.425-27.523 0-15.185 14.09-27.534 31.426-27.534 17.335 0 31.426 12.35 31.426 27.534 0 15.178-14.09 27.523-31.426 27.523" fill="#fff"/><path d="M6637.852 2210.865c0 14.023-12.972 25.4-28.978 25.4-16.005 0-29.02-11.377-29.02-25.4 0-14.027 13.015-25.404 29.02-25.404 16.006 0 28.978 11.377 28.978 25.404" fill="#181615"/><path d="M6608.862 2187.59c-14.62 0-26.544 10.436-26.544 23.272 0 12.832 11.923 23.272 26.544 23.272 14.662 0 26.586-10.44 26.586-23.272 0-12.836-11.924-23.272-26.586-23.272zm0 50.804c-17.317 0-31.432-12.355-31.432-27.532 0-15.176 14.115-27.532 31.432-27.532 17.359 0 31.432 12.356 31.432 27.532 0 15.177-14.073 27.532-31.432 27.532" fill="#fff"/><path d="M6529.91 2453.723c0 14.025-12.976 25.401-28.979 25.401-16.002 0-29.02-11.376-29.02-25.4 0-14.029 13.018-25.405 29.02-25.405 16.003 0 28.978 11.376 28.978 25.404" fill="#181615"/><path d="M6500.9 2430.45c-14.64 0-26.542 10.439-26.542 23.273s11.902 23.273 26.542 23.273c14.64 0 26.583-10.44 26.583-23.273 0-12.834-11.944-23.274-26.583-23.274zm0 50.805c-17.294 0-31.394-12.355-31.394-27.532 0-15.178 14.1-27.532 31.394-27.532 17.335 0 31.435 12.354 31.435 27.532 0 15.177-14.1 27.532-31.435 27.532" fill="#fff"/><path d="M6402.5 2692.487c0 14.023-12.976 25.399-29.002 25.399-15.985 0-29-11.376-29-25.4 0-14.027 13.015-25.402 29-25.402 16.026 0 29.001 11.375 29.001 25.403" fill="#181615"/><path d="M6373.513 2669.213c-14.649 0-26.57 10.439-26.57 23.273 0 12.835 11.921 23.273 26.57 23.273 14.648 0 26.53-10.438 26.53-23.273 0-12.834-11.882-23.273-26.53-23.273zm0 50.807c-17.334 0-31.454-12.35-31.454-27.534 0-15.177 14.12-27.533 31.454-27.533 17.333 0 31.412 12.356 31.412 27.533 0 15.184-14.079 27.534-31.412 27.534" fill="#fff"/><path d="M6250.597 2912.174c0 14.03-12.996 25.406-28.973 25.406-16.016 0-29.012-11.376-29.012-25.406 0-14.022 12.996-25.399 29.012-25.399 15.977 0 28.973 11.377 28.973 25.4" fill="#181615"/><path d="M6221.613 2888.905c-14.67 0-26.558 10.44-26.558 23.273s11.888 23.27 26.558 23.27c14.631 0 26.559-10.437 26.559-23.27s-11.928-23.273-26.559-23.273zm0 50.806c-17.334 0-31.448-12.359-31.448-27.533 0-15.178 14.114-27.533 31.448-27.533 17.295 0 31.409 12.355 31.409 27.533 0 15.174-14.114 27.533-31.409 27.533" fill="#fff"/><path d="M6080.4 3131.084c0 14.027-12.965 25.403-28.986 25.403s-28.985-11.376-28.985-25.403 12.964-25.403 28.985-25.403 28.985 11.376 28.985 25.403" fill="#181615"/><path d="M6051.39 3107.814c-14.634 0-26.558 10.437-26.558 23.27 0 12.834 11.924 23.272 26.557 23.272 14.673 0 26.558-10.438 26.558-23.273 0-12.832-11.885-23.269-26.558-23.269zm0 50.802c-17.306 0-31.397-12.354-31.397-27.533 0-15.176 14.091-27.533 31.396-27.533 17.344 0 31.436 12.357 31.436 27.533 0 15.18-14.092 27.533-31.436 27.533" fill="#fff"/><path d="M5879.384 3339.953c0 14.035-13 25.402-28.998 25.402-15.998 0-28.999-11.367-28.999-25.402 0-14.026 13-25.402 28.999-25.402 15.997 0 28.998 11.376 28.998 25.402" fill="#181615"/><path d="M5850.4 3316.69c-14.654 0-26.573 10.438-26.573 23.263 0 12.834 11.919 23.272 26.574 23.272 14.617 0 26.536-10.438 26.536-23.272 0-12.825-11.919-23.263-26.536-23.263zm0 50.796c-17.353 0-31.445-12.347-31.445-27.533 0-15.176 14.092-27.524 31.446-27.524 17.316 0 31.408 12.348 31.408 27.524 0 15.186-14.092 27.533-31.408 27.533M5620.116 778.191c-10.393 0-20.105 3.255-27.303 9.17-128.721 105.55-316.052 196.465-556.797 270.236-196.49 60.194-376.92 92.797-453.974 106.714-28.027 5.06-47.535 24.389-47.493 47.005 3.706 1206.753 797.5 1991.809 1040.672 2203.677 11.458 9.988 27.857 15.714 44.895 15.714 17.08 0 33.437-5.726 44.895-15.714 243.215-211.868 1036.966-996.924 1040.671-2203.677.043-22.616-19.465-41.944-47.493-47.005-77.053-13.917-257.484-46.52-453.93-106.714-240.788-73.77-428.119-164.687-556.797-270.236-7.241-5.915-16.91-9.17-27.346-9.17zm0 2661.037c-19.636 0-38.463-6.63-51.753-18.193-101.716-88.606-363.63-335.473-598.752-713.177-131.703-211.502-235.804-433.341-309.535-659.36-42.552-130.44-75.478-264.177-97.883-397.492-24.321-144.688-36.887-292.61-37.355-439.675-.043-12.883 5.494-25.52 15.59-35.566 10.01-9.954 24.065-16.985 39.655-19.795 467.263-84.422 805.72-210.539 1006.085-374.83 8.987-7.397 21.084-11.473 33.948-11.473 12.906 0 24.96 4.076 33.99 11.473 200.323 164.291 538.822 290.408 1006.043 374.83 15.59 2.81 29.688 9.841 39.655 19.795 10.095 10.046 15.633 22.683 15.59 35.566-.426 147.065-12.991 294.987-37.356 439.675-22.404 133.315-55.33 267.053-97.882 397.491-73.689 226.02-177.833 447.86-309.492 659.36-235.123 377.705-497.08 624.572-598.796 713.178-13.247 11.564-32.116 18.193-51.752 18.193" fill="#fff"/><path d="M5620.124 604.82c-12.747 0-24.661 3.711-33.465 10.443-83.882 63.981-188.483 125.518-310.912 182.902-103.286 48.419-219.714 94.135-346.04 135.884-214.37 70.84-421.908 118.072-534.48 136.993-33.948 5.7-57.601 27.41-57.557 52.79 4.643 1397.679 1023.668 2294.024 1227.92 2459.51 13.929 11.283 33.771 17.75 54.534 17.75 20.762 0 40.649-6.467 54.578-17.75 204.208-165.486 1223.277-1061.831 1227.876-2459.51.088-25.38-23.566-47.09-57.513-52.79-112.617-18.92-320.154-66.154-534.48-136.993-126.327-41.749-242.754-87.465-346.04-135.884-122.43-57.384-227.03-118.92-310.912-182.902-8.848-6.732-20.719-10.443-33.51-10.443zm0 3004.794c-23.172 0-45.467-7.294-61.149-20.008-53.614-43.468-163.603-137.493-297.376-278.847-152.39-161.022-290.455-335.293-410.3-517.953-154.973-236.068-277.49-483.703-364.262-736.013-50.067-145.47-88.788-294.576-115.157-443.183-28.604-161.225-43.365-326.004-43.934-489.755-.044-14.288 6.57-28.281 18.572-39.404 11.827-10.949 28.472-18.686 46.869-21.78 112.178-18.855 319.102-65.946 532.859-136.597 278.804-92.125 498.825-198.86 654.017-317.235 10.6-8.087 24.749-12.539 39.86-12.539 15.113 0 29.305 4.452 39.905 12.539 155.149 118.375 375.214 225.11 653.974 317.235 213.8 70.651 420.68 117.742 532.859 136.597 18.44 3.094 35.086 10.831 46.913 21.78 12.002 11.123 18.572 25.116 18.528 39.404-.526 163.75-15.33 328.53-43.934 489.755-26.37 148.607-65.09 297.712-115.113 443.183-86.773 252.31-209.333 499.945-364.263 736.013-119.888 182.66-257.954 356.93-410.343 517.953-133.774 141.354-243.718 235.38-297.377 278.847-15.681 12.714-37.977 20.008-61.148 20.008" fill="#ff2a2a"/><text style="line-height:1.25;-inkscape-font-specification:'GothicG, Normal';font-variant-ligatures:normal;font-variant-caps:normal;font-variant-numeric:normal;font-feature-settings:normal;text-align:start" y="3744.965" x="2470.002" transform="matrix(.95448 -.15025 .12264 1.02839 0 0)" font-weight="400" font-size="558.785" font-family="GothicG" letter-spacing="0" word-spacing="0" stroke-width="13.97">Дедова</text><text style="line-height:1.25;-inkscape-font-specification:'GothicG, Normal';font-variant-ligatures:normal;font-variant-caps:normal;font-variant-numeric:normal;font-feature-settings:normal;text-align:start" y="2722.957" x="5969.531" transform="matrix(1.15867 .14572 -.17623 .8409 0 0)" font-weight="400" font-size="581.718" font-family="GothicG" letter-spacing="0" word-spacing="0" stroke-width="14.543">Кузня</text></svg>