<svg xmlns="http://www.w3.org/2000/svg" height="1549.6" width="2796.853"><defs><linearGradient id="a" spreadMethod="pad" gradientTransform="matrix(59.56555 0 0 -59.56555 37.488 966.412)" gradientUnits="userSpaceOnUse" y2="0" x2="1" y1="0" x1="0"><stop offset="0" stop-color="#971238"/><stop offset=".859" stop-color="#ba1d39"/><stop offset="1" stop-color="#ba1d39"/></linearGradient><linearGradient id="cn" spreadMethod="pad" gradientTransform="matrix(-92.90002 15.75318 13.17485 77.69501 469.572 497.232)" gradientUnits="userSpaceOnUse" y2="0" x2="1" y1="0" x1="0"><stop offset="0" stop-color="#b51645"/><stop offset=".859" stop-color="#dc3f4b"/><stop offset="1" stop-color="#dc3f4b"/></linearGradient><linearGradient id="f" spreadMethod="pad" gradientTransform="matrix(-76.13296 -10.65032 0 -83.83099 330.889 819.917)" gradientUnits="userSpaceOnUse" y2="0" x2="1" y1="0" x1="0"><stop offset="0" stop-color="#b51645"/><stop offset=".859" stop-color="#dc3f4b"/><stop offset="1" stop-color="#dc3f4b"/></linearGradient><linearGradient id="h" spreadMethod="pad" gradientTransform="matrix(72.33035 0 0 -72.33035 41.312 741.826)" gradientUnits="userSpaceOnUse" y2="0" x2="1" y1="0" x1="0"><stop offset="0" stop-color="#b51645"/><stop offset=".859" stop-color="#dc3f4b"/><stop offset="1" stop-color="#dc3f4b"/></linearGradient><linearGradient id="i" spreadMethod="pad" gradientTransform="matrix(76.86681 0 0 -76.86681 256.611 741.826)" gradientUnits="userSpaceOnUse" y2="0" x2="1" y1="0" x1="0"><stop offset="0" stop-color="#b51645"/><stop offset=".859" stop-color="#dc3f4b"/><stop offset="1" stop-color="#dc3f4b"/></linearGradient><linearGradient id="k" spreadMethod="pad" gradientTransform="matrix(63.73371 0 0 -63.73371 33.312 530.468)" gradientUnits="userSpaceOnUse" y2="0" x2="1" y1="0" x1="0"><stop offset="0" stop-color="#b51645"/><stop offset=".859" stop-color="#dc3f4b"/><stop offset="1" stop-color="#dc3f4b"/></linearGradient><linearGradient id="l" spreadMethod="pad" gradientTransform="matrix(65.76447 0 0 -65.76447 254.637 530.468)" gradientUnits="userSpaceOnUse" y2="0" x2="1" y1="0" x1="0"><stop offset="0" stop-color="#b51645"/><stop offset=".859" stop-color="#dc3f4b"/><stop offset="1" stop-color="#dc3f4b"/></linearGradient><linearGradient id="n" spreadMethod="pad" gradientTransform="matrix(-56.11155 0 0 56.11155 330.993 1108.063)" gradientUnits="userSpaceOnUse" y2="0" x2="1" y1="0" x1="0"><stop offset="0" stop-color="#b51645"/><stop offset=".859" stop-color="#dc3f4b"/><stop offset="1" stop-color="#dc3f4b"/></linearGradient><linearGradient id="o" spreadMethod="pad" gradientTransform="matrix(57.60165 0 0 -57.60165 44.351 1108.063)" gradientUnits="userSpaceOnUse" y2="0" x2="1" y1="0" x1="0"><stop offset="0" stop-color="#b51645"/><stop offset=".859" stop-color="#dc3f4b"/><stop offset="1" stop-color="#dc3f4b"/></linearGradient><linearGradient id="q" spreadMethod="pad" gradientTransform="matrix(62.38966 0 0 -62.38966 34.244 264.246)" gradientUnits="userSpaceOnUse" y2="0" x2="1" y1="0" x1="0"><stop offset="0" stop-color="#dc3f4b"/><stop offset=".141" stop-color="#dc3f4b"/><stop offset="1" stop-color="#b51645"/></linearGradient><linearGradient id="s" spreadMethod="pad" gradientTransform="matrix(60.33919 0 0 -60.33919 255.1 241.301)" gradientUnits="userSpaceOnUse" y2="0" x2="1" y1="0" x1="0"><stop offset="0" stop-color="#dc3f4b"/><stop offset=".141" stop-color="#dc3f4b"/><stop offset="1" stop-color="#b51645"/></linearGradient><linearGradient id="u" spreadMethod="pad" gradientTransform="matrix(-76.07178 -16.08907 13.45576 -63.62106 478.286 1010.172)" gradientUnits="userSpaceOnUse" y2="0" x2="1" y1="0" x1="0"><stop offset="0" stop-color="#b51645"/><stop offset=".859" stop-color="#dc3f4b"/><stop offset="1" stop-color="#dc3f4b"/></linearGradient><linearGradient id="w" spreadMethod="pad" gradientTransform="matrix(76.07178 -16.08907 -13.45576 -63.62106 605.561 1008.522)" gradientUnits="userSpaceOnUse" y2="0" x2="1" y1="0" x1="0"><stop offset="0" stop-color="#b51645"/><stop offset=".859" stop-color="#dc3f4b"/><stop offset="1" stop-color="#dc3f4b"/></linearGradient><linearGradient id="y" spreadMethod="pad" gradientTransform="scale(-52.99725 52.99725) rotate(9.257 -40.483 -32.57)" gradientUnits="userSpaceOnUse" y2="0" x2="1" y1="0" x1="0"><stop offset="0" stop-color="#b51645"/><stop offset=".859" stop-color="#dc3f4b"/><stop offset="1" stop-color="#dc3f4b"/></linearGradient><linearGradient id="A" spreadMethod="pad" gradientTransform="rotate(9.257 -2319.266 461.765) scale(52.99725)" gradientUnits="userSpaceOnUse" y2="0" x2="1" y1="0" x1="0"><stop offset="0" stop-color="#b51645"/><stop offset=".859" stop-color="#dc3f4b"/><stop offset="1" stop-color="#dc3f4b"/></linearGradient><linearGradient id="C" spreadMethod="pad" gradientTransform="rotate(180 165.708 524.887) scale(115.60165)" gradientUnits="userSpaceOnUse" y2="0" x2="1" y1="0" x1="0"><stop offset="0" stop-color="#b51645"/><stop offset=".859" stop-color="#dc3f4b"/><stop offset="1" stop-color="#dc3f4b"/></linearGradient><linearGradient id="E" spreadMethod="pad" gradientTransform="matrix(115.60165 0 0 -115.60165 41.873 1049.774)" gradientUnits="userSpaceOnUse" y2="0" x2="1" y1="0" x1="0"><stop offset="0" stop-color="#b51645"/><stop offset=".859" stop-color="#dc3f4b"/><stop offset="1" stop-color="#dc3f4b"/></linearGradient><linearGradient id="G" spreadMethod="pad" gradientTransform="rotate(180 174.365 443.371) scale(108.70181)" gradientUnits="userSpaceOnUse" y2="0" x2="1" y1="0" x1="0"><stop offset="0" stop-color="#b51645"/><stop offset=".859" stop-color="#dc3f4b"/><stop offset="1" stop-color="#dc3f4b"/></linearGradient><linearGradient id="I" spreadMethod="pad" gradientTransform="matrix(108.70181 0 0 -108.70181 25.35 886.261)" gradientUnits="userSpaceOnUse" y2="0" x2="1" y1="0" x1="0"><stop offset="0" stop-color="#b51645"/><stop offset=".859" stop-color="#dc3f4b"/><stop offset="1" stop-color="#dc3f4b"/></linearGradient><linearGradient id="K" spreadMethod="pad" gradientTransform="matrix(51.70393 0 0 -51.70393 2011.39 490.295)" gradientUnits="userSpaceOnUse" y2="0" x2="1" y1="0" x1="0"><stop offset="0" stop-color="#c82a49"/><stop offset=".859" stop-color="#dc3f4b"/><stop offset="1" stop-color="#dc3f4b"/></linearGradient><linearGradient id="M" spreadMethod="pad" gradientTransform="matrix(38.1372 0 0 -38.1372 1837.705 670.163)" gradientUnits="userSpaceOnUse" y2="0" x2="1" y1="0" x1="0"><stop offset="0" stop-color="#971238"/><stop offset=".859" stop-color="#ba1d39"/><stop offset="1" stop-color="#ba1d39"/></linearGradient><linearGradient id="O" spreadMethod="pad" gradientTransform="matrix(52.62237 0 0 -52.62237 1820.255 581.185)" gradientUnits="userSpaceOnUse" y2="0" x2="1" y1="0" x1="0"><stop offset="0" stop-color="#971238"/><stop offset=".859" stop-color="#ba1d39"/><stop offset="1" stop-color="#ba1d39"/></linearGradient><linearGradient id="Q" spreadMethod="pad" gradientTransform="matrix(33.28016 0 0 -33.28016 1830.24 488.347)" gradientUnits="userSpaceOnUse" y2="0" x2="1" y1="0" x1="0"><stop offset="0" stop-color="#b51645"/><stop offset=".859" stop-color="#dc3f4b"/><stop offset="1" stop-color="#dc3f4b"/></linearGradient><linearGradient id="R" spreadMethod="pad" gradientTransform="matrix(55.7347 0 0 -55.7347 1806.78 479.291)" gradientUnits="userSpaceOnUse" y2="0" x2="1" y1="0" x1="0"><stop offset="0" stop-color="#b51645"/><stop offset=".859" stop-color="#dc3f4b"/><stop offset="1" stop-color="#dc3f4b"/></linearGradient><linearGradient id="T" spreadMethod="pad" gradientTransform="matrix(59.33064 0 0 -59.33064 1953.992 584.195)" gradientUnits="userSpaceOnUse" y2="0" x2="1" y1="0" x1="0"><stop offset="0" stop-color="#971238"/><stop offset=".859" stop-color="#ba1d39"/><stop offset="1" stop-color="#ba1d39"/></linearGradient><linearGradient id="V" spreadMethod="pad" gradientTransform="matrix(42.13584 0 0 -42.13584 1814.621 391.08)" gradientUnits="userSpaceOnUse" y2="0" x2="1" y1="0" x1="0"><stop offset="0" stop-color="#c82a49"/><stop offset=".859" stop-color="#dc3f4b"/><stop offset="1" stop-color="#dc3f4b"/></linearGradient><linearGradient id="W" spreadMethod="pad" gradientTransform="matrix(131.91052 0 0 -131.91052 1224.763 40.99)" gradientUnits="userSpaceOnUse" y2="0" x2="1" y1="0" x1="0"><stop offset="0" stop-color="#b51645"/><stop offset=".859" stop-color="#dc3f4b"/><stop offset="1" stop-color="#dc3f4b"/></linearGradient><linearGradient id="X" spreadMethod="pad" gradientTransform="matrix(128.91035 0 0 -128.91035 889.737 40.99)" gradientUnits="userSpaceOnUse" y2="0" x2="1" y1="0" x1="0"><stop offset="0" stop-color="#c82a49"/><stop offset=".859" stop-color="#dc3f4b"/><stop offset="1" stop-color="#dc3f4b"/></linearGradient><linearGradient id="Z" spreadMethod="pad" gradientTransform="matrix(52.93563 0 0 -52.93563 1387.849 885.345)" gradientUnits="userSpaceOnUse" y2="0" x2="1" y1="0" x1="0"><stop offset="0" stop-color="#b51645"/><stop offset=".859" stop-color="#dc3f4b"/><stop offset="1" stop-color="#dc3f4b"/></linearGradient><linearGradient id="aa" spreadMethod="pad" gradientTransform="matrix(52.93387 0 0 -52.93387 1135.435 885.345)" gradientUnits="userSpaceOnUse" y2="0" x2="1" y1="0" x1="0"><stop offset="0" stop-color="#b51645"/><stop offset=".859" stop-color="#dc3f4b"/><stop offset="1" stop-color="#dc3f4b"/></linearGradient><linearGradient id="ac" spreadMethod="pad" gradientTransform="matrix(59.50951 0 0 -59.50951 1571.52 623.806)" gradientUnits="userSpaceOnUse" y2="0" x2="1" y1="0" x1="0"><stop offset="0" stop-color="#b51645"/><stop offset=".859" stop-color="#dc3f4b"/><stop offset="1" stop-color="#dc3f4b"/></linearGradient><linearGradient id="ad" spreadMethod="pad" gradientTransform="matrix(59.5095 0 0 -59.5095 1337 623.806)" gradientUnits="userSpaceOnUse" y2="0" x2="1" y1="0" x1="0"><stop offset="0" stop-color="#b51645"/><stop offset=".859" stop-color="#dc3f4b"/><stop offset="1" stop-color="#dc3f4b"/></linearGradient><linearGradient id="af" spreadMethod="pad" gradientTransform="matrix(57.93859 0 0 -57.93859 1011.258 127.485)" gradientUnits="userSpaceOnUse" y2="0" x2="1" y1="0" x1="0"><stop offset="0" stop-color="#b51645"/><stop offset=".859" stop-color="#dc3f4b"/><stop offset="1" stop-color="#dc3f4b"/></linearGradient><linearGradient id="ah" spreadMethod="pad" gradientTransform="matrix(57.93859 0 0 -57.93859 747.614 89.517)" gradientUnits="userSpaceOnUse" y2="0" x2="1" y1="0" x1="0"><stop offset="0" stop-color="#b51645"/><stop offset=".859" stop-color="#dc3f4b"/><stop offset="1" stop-color="#dc3f4b"/></linearGradient><linearGradient id="aj" spreadMethod="pad" gradientTransform="matrix(58.17474 0 0 -58.17474 1340.412 513.892)" gradientUnits="userSpaceOnUse" y2="0" x2="1" y1="0" x1="0"><stop offset="0" stop-color="#b51645"/><stop offset=".859" stop-color="#dc3f4b"/><stop offset="1" stop-color="#dc3f4b"/></linearGradient><linearGradient id="ak" spreadMethod="pad" gradientTransform="matrix(58.1749 0 0 -58.1749 1569.664 513.892)" gradientUnits="userSpaceOnUse" y2="0" x2="1" y1="0" x1="0"><stop offset="0" stop-color="#b51645"/><stop offset=".859" stop-color="#dc3f4b"/><stop offset="1" stop-color="#dc3f4b"/></linearGradient><linearGradient id="am" spreadMethod="pad" gradientTransform="matrix(53.54768 0 0 -53.54768 1375.946 127.714)" gradientUnits="userSpaceOnUse" y2="0" x2="1" y1="0" x1="0"><stop offset="0" stop-color="#b51645"/><stop offset=".859" stop-color="#dc3f4b"/><stop offset="1" stop-color="#dc3f4b"/></linearGradient><linearGradient id="ao" spreadMethod="pad" gradientTransform="matrix(48.46734 0 0 -48.46734 1021.422 203.703)" gradientUnits="userSpaceOnUse" y2="0" x2="1" y1="0" x1="0"><stop offset="0" stop-color="#b51645"/><stop offset=".859" stop-color="#dc3f4b"/><stop offset="1" stop-color="#dc3f4b"/></linearGradient><linearGradient id="aq" spreadMethod="pad" gradientTransform="matrix(48.46567 0 0 -48.46567 748.306 213.14)" gradientUnits="userSpaceOnUse" y2="0" x2="1" y1="0" x1="0"><stop offset="0" stop-color="#b51645"/><stop offset=".859" stop-color="#dc3f4b"/><stop offset="1" stop-color="#dc3f4b"/></linearGradient><linearGradient id="as" spreadMethod="pad" gradientTransform="matrix(58.56856 0 0 -58.56856 1030.426 1064.977)" gradientUnits="userSpaceOnUse" y2="0" x2="1" y1="0" x1="0"><stop offset="0" stop-color="#b51645"/><stop offset=".859" stop-color="#dc3f4b"/><stop offset="1" stop-color="#dc3f4b"/></linearGradient><linearGradient id="au" spreadMethod="pad" gradientTransform="matrix(62.78673 0 0 -62.78673 996.872 1085.964)" gradientUnits="userSpaceOnUse" y2="0" x2="1" y1="0" x1="0"><stop offset="0" stop-color="#b51645"/><stop offset=".859" stop-color="#dc3f4b"/><stop offset="1" stop-color="#dc3f4b"/></linearGradient><linearGradient id="aw" spreadMethod="pad" gradientTransform="matrix(58.56856 0 0 -58.56856 732.519 1064.977)" gradientUnits="userSpaceOnUse" y2="0" x2="1" y1="0" x1="0"><stop offset="0" stop-color="#971238"/><stop offset=".859" stop-color="#ba1d39"/><stop offset="1" stop-color="#ba1d39"/></linearGradient><linearGradient id="ay" spreadMethod="pad" gradientTransform="matrix(62.78487 0 0 -62.78487 761.855 1085.964)" gradientUnits="userSpaceOnUse" y2="0" x2="1" y1="0" x1="0"><stop offset="0" stop-color="#b51645"/><stop offset=".859" stop-color="#dc3f4b"/><stop offset="1" stop-color="#dc3f4b"/></linearGradient><linearGradient id="aA" spreadMethod="pad" gradientTransform="matrix(-53.54768 0 0 53.54768 1149.98 129.983)" gradientUnits="userSpaceOnUse" y2="0" x2="1" y1="0" x1="0"><stop offset="0" stop-color="#b51645"/><stop offset=".859" stop-color="#dc3f4b"/><stop offset="1" stop-color="#dc3f4b"/></linearGradient><linearGradient id="aC" spreadMethod="pad" gradientTransform="matrix(74.3081 -10.39504 0 -81.82161 726.858 872.8)" gradientUnits="userSpaceOnUse" y2="0" x2="1" y1="0" x1="0"><stop offset="0" stop-color="#971238"/><stop offset=".859" stop-color="#ba1d39"/><stop offset="1" stop-color="#ba1d39"/></linearGradient><linearGradient id="aE" spreadMethod="pad" gradientTransform="rotate(180 414.94 441.548) scale(53.72674)" gradientUnits="userSpaceOnUse" y2="0" x2="1" y1="0" x1="0"><stop offset="0" stop-color="#b51645"/><stop offset=".859" stop-color="#dc3f4b"/><stop offset="1" stop-color="#dc3f4b"/></linearGradient><linearGradient id="aG" spreadMethod="pad" gradientTransform="matrix(-74.3081 -10.39504 0 -81.82161 1099.499 871.93)" gradientUnits="userSpaceOnUse" y2="0" x2="1" y1="0" x1="0"><stop offset="0" stop-color="#971238"/><stop offset=".859" stop-color="#ba1d39"/><stop offset="1" stop-color="#ba1d39"/></linearGradient><linearGradient id="aI" spreadMethod="pad" gradientTransform="matrix(53.72674 0 0 -53.72674 996.478 882.227)" gradientUnits="userSpaceOnUse" y2="0" x2="1" y1="0" x1="0"><stop offset="0" stop-color="#b51645"/><stop offset=".859" stop-color="#dc3f4b"/><stop offset="1" stop-color="#dc3f4b"/></linearGradient><linearGradient id="aK" spreadMethod="pad" gradientTransform="matrix(-92.18691 19.4974 16.30625 77.09862 1216.482 982.233)" gradientUnits="userSpaceOnUse" y2="0" x2="1" y1="0" x1="0"><stop offset="0" stop-color="#b51645"/><stop offset=".859" stop-color="#dc3f4b"/><stop offset="1" stop-color="#dc3f4b"/></linearGradient><linearGradient id="d" spreadMethod="pad" gradientTransform="matrix(76.13296 -10.65032 0 -83.83099 38.621 819.497)" gradientUnits="userSpaceOnUse" y2="0" x2="1" y1="0" x1="0"><stop offset="0" stop-color="#b51645"/><stop offset=".859" stop-color="#dc3f4b"/><stop offset="1" stop-color="#dc3f4b"/></linearGradient><linearGradient id="b" spreadMethod="pad" gradientTransform="matrix(59.56554 0 0 -59.56554 272.228 966.412)" gradientUnits="userSpaceOnUse" y2="0" x2="1" y1="0" x1="0"><stop offset="0" stop-color="#971238"/><stop offset=".859" stop-color="#ba1d39"/><stop offset="1" stop-color="#ba1d39"/></linearGradient><linearGradient id="aO" spreadMethod="pad" gradientTransform="matrix(65.79898 0 0 -65.79898 778.027 976.236)" gradientUnits="userSpaceOnUse" y2="0" x2="1" y1="0" x1="0"><stop offset="0" stop-color="#b51645"/><stop offset=".859" stop-color="#dc3f4b"/><stop offset="1" stop-color="#dc3f4b"/></linearGradient><linearGradient id="aQ" spreadMethod="pad" gradientTransform="rotate(180 548.786 482.576) scale(86.51753)" gradientUnits="userSpaceOnUse" y2="0" x2="1" y1="0" x1="0"><stop offset="0" stop-color="#971238"/><stop offset=".859" stop-color="#ba1d39"/><stop offset="1" stop-color="#ba1d39"/></linearGradient><linearGradient id="aS" spreadMethod="pad" gradientTransform="rotate(180 527.156 488.118) scale(65.79898)" gradientUnits="userSpaceOnUse" y2="0" x2="1" y1="0" x1="0"><stop offset="0" stop-color="#b51645"/><stop offset=".859" stop-color="#dc3f4b"/><stop offset="1" stop-color="#dc3f4b"/></linearGradient><linearGradient id="aU" spreadMethod="pad" gradientTransform="matrix(-68.41867 42.9859 -35.20158 -53.18659 1195.233 1053.61)" gradientUnits="userSpaceOnUse" y2="0" x2="1" y1="0" x1="0"><stop offset="0" stop-color="#b51645"/><stop offset=".859" stop-color="#dc3f4b"/><stop offset="1" stop-color="#dc3f4b"/></linearGradient><linearGradient id="aW" spreadMethod="pad" gradientTransform="matrix(92.18691 19.4974 -16.30625 77.09862 1359.868 983.257)" gradientUnits="userSpaceOnUse" y2="0" x2="1" y1="0" x1="0"><stop offset="0" stop-color="#b51645"/><stop offset=".859" stop-color="#dc3f4b"/><stop offset="1" stop-color="#dc3f4b"/></linearGradient><linearGradient id="aY" spreadMethod="pad" gradientTransform="matrix(71.44887 0 0 -71.44887 1767.353 915.255)" gradientUnits="userSpaceOnUse" y2="0" x2="1" y1="0" x1="0"><stop offset="0" stop-color="#b51645"/><stop offset=".859" stop-color="#dc3f4b"/><stop offset="1" stop-color="#dc3f4b"/></linearGradient><linearGradient id="ba" spreadMethod="pad" gradientTransform="matrix(75.81776 52.70425 44.07811 -63.40863 1369.898 228.366)" gradientUnits="userSpaceOnUse" y2="0" x2="1" y1="0" x1="0"><stop offset="0" stop-color="#b51645"/><stop offset=".859" stop-color="#dc3f4b"/><stop offset="1" stop-color="#dc3f4b"/></linearGradient><linearGradient id="bc" spreadMethod="pad" gradientTransform="matrix(-75.81776 -52.70425 -44.07811 63.40863 1164.436 233.234)" gradientUnits="userSpaceOnUse" y2="0" x2="1" y1="0" x1="0"><stop offset="0" stop-color="#b51645"/><stop offset=".859" stop-color="#dc3f4b"/><stop offset="1" stop-color="#dc3f4b"/></linearGradient><linearGradient id="be" spreadMethod="pad" gradientTransform="matrix(68.41867 -42.9859 35.20158 53.18659 1366.33 1119.603)" gradientUnits="userSpaceOnUse" y2="0" x2="1" y1="0" x1="0"><stop offset="0" stop-color="#b51645"/><stop offset=".859" stop-color="#dc3f4b"/><stop offset="1" stop-color="#dc3f4b"/></linearGradient><linearGradient id="bg" spreadMethod="pad" gradientTransform="rotate(179.986 1031.769 457.643) scale(71.44887)" gradientUnits="userSpaceOnUse" y2="0" x2="1" y1="0" x1="0"><stop offset="0" stop-color="#b51645"/><stop offset=".859" stop-color="#dc3f4b"/><stop offset="1" stop-color="#dc3f4b"/></linearGradient><linearGradient id="bi" spreadMethod="pad" gradientTransform="matrix(92.18691 -19.4974 -16.30625 -77.09862 1506.78 364.609)" gradientUnits="userSpaceOnUse" y2="0" x2="1" y1="0" x1="0"><stop offset="0" stop-color="#b51645"/><stop offset=".859" stop-color="#dc3f4b"/><stop offset="1" stop-color="#dc3f4b"/></linearGradient><linearGradient id="bk" spreadMethod="pad" gradientTransform="matrix(-92.18691 -19.4974 16.30625 -77.09862 1363.394 363.585)" gradientUnits="userSpaceOnUse" y2="0" x2="1" y1="0" x1="0"><stop offset="0" stop-color="#b51645"/><stop offset=".859" stop-color="#dc3f4b"/><stop offset="1" stop-color="#dc3f4b"/></linearGradient><linearGradient id="bm" spreadMethod="pad" gradientTransform="matrix(20.15275 0 0 -20.15275 1396.911 325.472)" gradientUnits="userSpaceOnUse" y2="0" x2="1" y1="0" x1="0"><stop offset="0" stop-color="#b51645"/><stop offset=".859" stop-color="#dc3f4b"/><stop offset="1" stop-color="#dc3f4b"/></linearGradient><linearGradient id="bn" spreadMethod="pad" gradientTransform="matrix(20.15275 0 0 -20.15275 1427.338 325.472)" gradientUnits="userSpaceOnUse" y2="0" x2="1" y1="0" x1="0"><stop offset="0" stop-color="#b51645"/><stop offset=".859" stop-color="#dc3f4b"/><stop offset="1" stop-color="#dc3f4b"/></linearGradient><linearGradient id="bo" spreadMethod="pad" gradientTransform="matrix(20.15275 0 0 -20.15275 1457.788 325.472)" gradientUnits="userSpaceOnUse" y2="0" x2="1" y1="0" x1="0"><stop offset="0" stop-color="#b51645"/><stop offset=".859" stop-color="#dc3f4b"/><stop offset="1" stop-color="#dc3f4b"/></linearGradient><linearGradient id="bq" spreadMethod="pad" gradientTransform="rotate(9.257 -4183.838 11344.015) scale(63.68999)" gradientUnits="userSpaceOnUse" y2="0" x2="1" y1="0" x1="0"><stop offset="0" stop-color="#b51645"/><stop offset=".859" stop-color="#dc3f4b"/><stop offset="1" stop-color="#dc3f4b"/></linearGradient><linearGradient id="bs" spreadMethod="pad" gradientTransform="scale(-63.69 63.69) rotate(9.257 -95.705 -192.73)" gradientUnits="userSpaceOnUse" y2="0" x2="1" y1="0" x1="0"><stop offset="0" stop-color="#b51645"/><stop offset=".859" stop-color="#dc3f4b"/><stop offset="1" stop-color="#dc3f4b"/></linearGradient><linearGradient id="bu" spreadMethod="pad" gradientTransform="rotate(90 705.627 1020.588) scale(77.51045)" gradientUnits="userSpaceOnUse" y2="0" x2="1" y1="0" x1="0"><stop offset="0" stop-color="#b51645"/><stop offset=".859" stop-color="#dc3f4b"/><stop offset="1" stop-color="#dc3f4b"/></linearGradient><linearGradient id="bw" spreadMethod="pad" gradientTransform="rotate(-90 1153.948 -523.54) scale(77.51045)" gradientUnits="userSpaceOnUse" y2="0" x2="1" y1="0" x1="0"><stop offset="0" stop-color="#b51645"/><stop offset=".859" stop-color="#dc3f4b"/><stop offset="1" stop-color="#dc3f4b"/></linearGradient><linearGradient id="by" spreadMethod="pad" gradientTransform="matrix(-65.96137 0 0 65.96137 1626.66 439.474)" gradientUnits="userSpaceOnUse" y2="0" x2="1" y1="0" x1="0"><stop offset="0" stop-color="#b51645"/><stop offset=".859" stop-color="#dc3f4b"/><stop offset="1" stop-color="#dc3f4b"/></linearGradient><linearGradient id="bz" spreadMethod="pad" gradientTransform="matrix(65.89493 0 0 -65.89493 1333.991 439.474)" gradientUnits="userSpaceOnUse" y2="0" x2="1" y1="0" x1="0"><stop offset="0" stop-color="#b51645"/><stop offset=".859" stop-color="#dc3f4b"/><stop offset="1" stop-color="#dc3f4b"/></linearGradient><linearGradient id="bB" spreadMethod="pad" gradientTransform="rotate(180 165.458 226.24) scale(104.34091)" gradientUnits="userSpaceOnUse" y2="0" x2="1" y1="0" x1="0"><stop offset="0" stop-color="#b51645"/><stop offset=".859" stop-color="#dc3f4b"/><stop offset="1" stop-color="#dc3f4b"/></linearGradient><linearGradient id="bD" spreadMethod="pad" gradientTransform="matrix(104.34091 0 0 -104.34091 18.797 452.417)" gradientUnits="userSpaceOnUse" y2="0" x2="1" y1="0" x1="0"><stop offset="0" stop-color="#b51645"/><stop offset=".859" stop-color="#dc3f4b"/><stop offset="1" stop-color="#dc3f4b"/></linearGradient><linearGradient id="bF" spreadMethod="pad" gradientTransform="matrix(99.38966 0 0 -99.38966 32.01 192.246)" gradientUnits="userSpaceOnUse" y2="0" x2="1" y1="0" x1="0"><stop offset="0" stop-color="#dc3f4b"/><stop offset=".141" stop-color="#dc3f4b"/><stop offset="1" stop-color="#b51645"/></linearGradient><linearGradient id="bH" spreadMethod="pad" gradientTransform="matrix(101.33919 0 0 -101.33919 214.864 169.301)" gradientUnits="userSpaceOnUse" y2="0" x2="1" y1="0" x1="0"><stop offset="0" stop-color="#dc3f4b"/><stop offset=".141" stop-color="#dc3f4b"/><stop offset="1" stop-color="#b51645"/></linearGradient><linearGradient id="bJ" spreadMethod="pad" gradientTransform="matrix(127.38966 0 0 -127.38966 27.78 124.458)" gradientUnits="userSpaceOnUse" y2="0" x2="1" y1="0" x1="0"><stop offset="0" stop-color="#dc3f4b"/><stop offset=".141" stop-color="#dc3f4b"/><stop offset="1" stop-color="#b51645"/></linearGradient><linearGradient id="bL" spreadMethod="pad" gradientTransform="matrix(125.33919 0 0 -125.33919 206.635 101.513)" gradientUnits="userSpaceOnUse" y2="0" x2="1" y1="0" x1="0"><stop offset="0" stop-color="#dc3f4b"/><stop offset=".141" stop-color="#dc3f4b"/><stop offset="1" stop-color="#b51645"/></linearGradient><linearGradient id="bN" spreadMethod="pad" gradientTransform="translate(206.257 49.52) scale(125.33919)" gradientUnits="userSpaceOnUse" y2="0" x2="1" y1="0" x1="0"><stop offset="0" stop-color="#dc3f4b"/><stop offset=".141" stop-color="#dc3f4b"/><stop offset="1" stop-color="#b51645"/></linearGradient><linearGradient id="bP" spreadMethod="pad" gradientTransform="matrix(-125.33919 0 0 125.33919 150.267 49.52)" gradientUnits="userSpaceOnUse" y2="0" x2="1" y1="0" x1="0"><stop offset="0" stop-color="#dc3f4b"/><stop offset=".141" stop-color="#dc3f4b"/><stop offset="1" stop-color="#b51645"/></linearGradient><linearGradient id="bR" spreadMethod="pad" gradientTransform="translate(597.919 1108.305) scale(95.33919)" gradientUnits="userSpaceOnUse" y2="0" x2="1" y1="0" x1="0"><stop offset="0" stop-color="#dc3f4b"/><stop offset=".141" stop-color="#dc3f4b"/><stop offset="1" stop-color="#b51645"/></linearGradient><linearGradient id="bT" spreadMethod="pad" gradientTransform="matrix(-95.33919 0 0 95.33919 481.929 1108.305)" gradientUnits="userSpaceOnUse" y2="0" x2="1" y1="0" x1="0"><stop offset="0" stop-color="#dc3f4b"/><stop offset=".141" stop-color="#dc3f4b"/><stop offset="1" stop-color="#b51645"/></linearGradient><linearGradient id="bV" spreadMethod="pad" gradientTransform="matrix(-80.97534 -17.12617 14.32312 -67.72205 474.273 270.6)" gradientUnits="userSpaceOnUse" y2="0" x2="1" y1="0" x1="0"><stop offset="0" stop-color="#b51645"/><stop offset=".859" stop-color="#dc3f4b"/><stop offset="1" stop-color="#dc3f4b"/></linearGradient><linearGradient id="bX" spreadMethod="pad" gradientTransform="matrix(80.97534 -17.12617 -14.32312 -67.72205 609.752 268.843)" gradientUnits="userSpaceOnUse" y2="0" x2="1" y1="0" x1="0"><stop offset="0" stop-color="#b51645"/><stop offset=".859" stop-color="#dc3f4b"/><stop offset="1" stop-color="#dc3f4b"/></linearGradient><linearGradient id="bZ" spreadMethod="pad" gradientTransform="matrix(-113.38966 0 0 113.38966 675.13 768.66)" gradientUnits="userSpaceOnUse" y2="0" x2="1" y1="0" x1="0"><stop offset="0" stop-color="#dc3f4b"/><stop offset=".141" stop-color="#dc3f4b"/><stop offset="1" stop-color="#b51645"/></linearGradient><linearGradient id="cb" spreadMethod="pad" gradientTransform="matrix(113.38966 0 0 -113.38966 400.59 805.265)" gradientUnits="userSpaceOnUse" y2="0" x2="1" y1="0" x1="0"><stop offset="0" stop-color="#dc3f4b"/><stop offset=".141" stop-color="#dc3f4b"/><stop offset="1" stop-color="#b51645"/></linearGradient><linearGradient id="cd" spreadMethod="pad" gradientTransform="matrix(-113.38966 0 0 113.38966 675.22 678.007)" gradientUnits="userSpaceOnUse" y2="0" x2="1" y1="0" x1="0"><stop offset="0" stop-color="#dc3f4b"/><stop offset=".141" stop-color="#dc3f4b"/><stop offset="1" stop-color="#b51645"/></linearGradient><linearGradient id="cf" spreadMethod="pad" gradientTransform="matrix(113.38966 0 0 -113.38966 400.679 695.611)" gradientUnits="userSpaceOnUse" y2="0" x2="1" y1="0" x1="0"><stop offset="0" stop-color="#dc3f4b"/><stop offset=".141" stop-color="#dc3f4b"/><stop offset="1" stop-color="#b51645"/></linearGradient><linearGradient id="ch" spreadMethod="pad" gradientTransform="scale(-113.38966 113.38966) rotate(-11.384 23.877 32.51)" gradientUnits="userSpaceOnUse" y2="0" x2="1" y1="0" x1="0"><stop offset="0" stop-color="#dc3f4b"/><stop offset=".141" stop-color="#dc3f4b"/><stop offset="1" stop-color="#b51645"/></linearGradient><linearGradient id="cj" spreadMethod="pad" gradientTransform="scale(113.38966 -113.38966) rotate(-11.384 -23.445 -20.286)" gradientUnits="userSpaceOnUse" y2="0" x2="1" y1="0" x1="0"><stop offset="0" stop-color="#dc3f4b"/><stop offset=".141" stop-color="#dc3f4b"/><stop offset="1" stop-color="#b51645"/></linearGradient><linearGradient id="cl" spreadMethod="pad" gradientTransform="matrix(92.90002 15.75318 -13.17485 77.69501 610.275 495.908)" gradientUnits="userSpaceOnUse" y2="0" x2="1" y1="0" x1="0"><stop offset="0" stop-color="#b51645"/><stop offset=".859" stop-color="#dc3f4b"/><stop offset="1" stop-color="#dc3f4b"/></linearGradient><linearGradient id="aM" spreadMethod="pad" gradientTransform="matrix(86.51753 0 0 -86.51753 734.768 965.152)" gradientUnits="userSpaceOnUse" y2="0" x2="1" y1="0" x1="0"><stop offset="0" stop-color="#971238"/><stop offset=".859" stop-color="#ba1d39"/><stop offset="1" stop-color="#ba1d39"/></linearGradient><linearGradient id="cp" spreadMethod="pad" gradientTransform="matrix(125.8018 21.33238 -17.8409 105.21174 578.999 388.307)" gradientUnits="userSpaceOnUse" y2="0" x2="1" y1="0" x1="0"><stop offset="0" stop-color="#b51645"/><stop offset=".859" stop-color="#dc3f4b"/><stop offset="1" stop-color="#dc3f4b"/></linearGradient><linearGradient id="cr" spreadMethod="pad" gradientTransform="matrix(-125.8018 21.33238 17.8409 105.21174 503.922 389.557)" gradientUnits="userSpaceOnUse" y2="0" x2="1" y1="0" x1="0"><stop offset="0" stop-color="#b51645"/><stop offset=".859" stop-color="#dc3f4b"/><stop offset="1" stop-color="#dc3f4b"/></linearGradient><linearGradient id="ct" spreadMethod="pad" gradientTransform="scale(101.37278 -101.37278) rotate(-4.702 -20.747 -50.448)" gradientUnits="userSpaceOnUse" y2="0" x2="1" y1="0" x1="0"><stop offset="0" stop-color="#dc3f4b"/><stop offset=".141" stop-color="#dc3f4b"/><stop offset="1" stop-color="#b51645"/></linearGradient><linearGradient id="cv" spreadMethod="pad" gradientTransform="scale(-98.03604 98.03604) rotate(-4.702 19.26 83.012)" gradientUnits="userSpaceOnUse" y2="0" x2="1" y1="0" x1="0"><stop offset="0" stop-color="#dc3f4b"/><stop offset=".141" stop-color="#dc3f4b"/><stop offset="1" stop-color="#b51645"/></linearGradient><linearGradient id="cx" spreadMethod="pad" gradientTransform="matrix(40.42289 0 0 -40.42289 1051.902 778.543)" gradientUnits="userSpaceOnUse" y2="0" x2="1" y1="0" x1="0"><stop offset="0" stop-color="#b51645"/><stop offset=".859" stop-color="#dc3f4b"/><stop offset="1" stop-color="#dc3f4b"/></linearGradient><linearGradient id="cy" spreadMethod="pad" gradientTransform="matrix(40.42289 0 0 -40.42289 946.445 778.543)" gradientUnits="userSpaceOnUse" y2="0" x2="1" y1="0" x1="0"><stop offset="0" stop-color="#b51645"/><stop offset=".859" stop-color="#dc3f4b"/><stop offset="1" stop-color="#dc3f4b"/></linearGradient><clipPath id="aV" clipPathUnits="userSpaceOnUse"><path d="M0 1162.2h2097.64V0H0z"/></clipPath><clipPath id="bK" clipPathUnits="userSpaceOnUse"><path d="M0 1162.2h2097.64V0H0z"/></clipPath><clipPath id="F" clipPathUnits="userSpaceOnUse"><path d="M0 1162.2h2097.64V0H0z"/></clipPath><clipPath id="aX" clipPathUnits="userSpaceOnUse"><path d="M0 1162.2h2097.64V0H0z"/></clipPath><clipPath id="ae" clipPathUnits="userSpaceOnUse"><path d="M0 1162.2h2097.64V0H0z"/></clipPath><clipPath id="aZ" clipPathUnits="userSpaceOnUse"><path d="M0 1162.2h2097.64V0H0z"/></clipPath><clipPath id="r" clipPathUnits="userSpaceOnUse"><path d="M0 1162.2h2097.64V0H0z"/></clipPath><clipPath id="bb" clipPathUnits="userSpaceOnUse"><path d="M0 1162.2h2097.64V0H0z"/></clipPath><clipPath id="ag" clipPathUnits="userSpaceOnUse"><path d="M0 1162.2h2097.64V0H0z"/></clipPath><clipPath id="bd" clipPathUnits="userSpaceOnUse"><path d="M0 1162.2h2097.64V0H0z"/></clipPath><clipPath id="H" clipPathUnits="userSpaceOnUse"><path d="M0 1162.2h2097.64V0H0z"/></clipPath><clipPath id="bf" clipPathUnits="userSpaceOnUse"><path d="M0 1162.2h2097.64V0H0z"/></clipPath><clipPath id="ai" clipPathUnits="userSpaceOnUse"><path d="M0 1162.2h2097.64V0H0z"/></clipPath><clipPath id="bh" clipPathUnits="userSpaceOnUse"><path d="M0 1162.2h2097.64V0H0z"/></clipPath><clipPath id="c" clipPathUnits="userSpaceOnUse"><path d="M0 1162.2h2097.64V0H0z"/></clipPath><clipPath id="bj" clipPathUnits="userSpaceOnUse"><path d="M0 1162.2h2097.64V0H0z"/></clipPath><clipPath id="J" clipPathUnits="userSpaceOnUse"><path d="M0 1162.2h2097.64V0H0z"/></clipPath><clipPath id="bl" clipPathUnits="userSpaceOnUse"><path d="M0 1162.2h2097.64V0H0z"/></clipPath><clipPath id="al" clipPathUnits="userSpaceOnUse"><path d="M0 1162.2h2097.64V0H0z"/></clipPath><clipPath id="t" clipPathUnits="userSpaceOnUse"><path d="M0 1162.2h2097.64V0H0z"/></clipPath><clipPath id="an" clipPathUnits="userSpaceOnUse"><path d="M0 1162.2h2097.64V0H0z"/></clipPath><clipPath id="bp" clipPathUnits="userSpaceOnUse"><path d="M0 1162.2h2097.64V0H0z"/></clipPath><clipPath id="L" clipPathUnits="userSpaceOnUse"><path d="M0 1162.2h2097.64V0H0z"/></clipPath><clipPath id="br" clipPathUnits="userSpaceOnUse"><path d="M0 1162.2h2097.64V0H0z"/></clipPath><clipPath id="ap" clipPathUnits="userSpaceOnUse"><path d="M0 1162.2h2097.64V0H0z"/></clipPath><clipPath id="bt" clipPathUnits="userSpaceOnUse"><path d="M0 1162.2h2097.64V0H0z"/></clipPath><clipPath id="g" clipPathUnits="userSpaceOnUse"><path d="M0 1162.2h2097.64V0H0z"/></clipPath><clipPath id="bv" clipPathUnits="userSpaceOnUse"><path d="M0 1162.2h2097.64V0H0z"/></clipPath><clipPath id="ar" clipPathUnits="userSpaceOnUse"><path d="M0 1162.2h2097.64V0H0z"/></clipPath><clipPath id="bx" clipPathUnits="userSpaceOnUse"><path d="M0 1162.2h2097.64V0H0z"/></clipPath><clipPath id="N" clipPathUnits="userSpaceOnUse"><path d="M0 1162.2h2097.64V0H0z"/></clipPath><clipPath id="at" clipPathUnits="userSpaceOnUse"><path d="M0 1162.2h2097.64V0H0z"/></clipPath><clipPath id="bA" clipPathUnits="userSpaceOnUse"><path d="M0 1162.2h2097.64V0H0z"/></clipPath><clipPath id="v" clipPathUnits="userSpaceOnUse"><path d="M0 1162.2h2097.64V0H0z"/></clipPath><clipPath id="bC" clipPathUnits="userSpaceOnUse"><path d="M0 1162.2h2097.64V0H0z"/></clipPath><clipPath id="av" clipPathUnits="userSpaceOnUse"><path d="M0 1162.2h2097.64V0H0z"/></clipPath><clipPath id="bE" clipPathUnits="userSpaceOnUse"><path d="M0 1162.2h2097.64V0H0z"/></clipPath><clipPath id="P" clipPathUnits="userSpaceOnUse"><path d="M0 1162.2h2097.64V0H0z"/></clipPath><clipPath id="bG" clipPathUnits="userSpaceOnUse"><path d="M0 1162.2h2097.64V0H0z"/></clipPath><clipPath id="ax" clipPathUnits="userSpaceOnUse"><path d="M0 1162.2h2097.64V0H0z"/></clipPath><clipPath id="bI" clipPathUnits="userSpaceOnUse"><path d="M0 1162.2h2097.64V0H0z"/></clipPath><clipPath id="m" clipPathUnits="userSpaceOnUse"><path d="M0 1162.2h2097.64V0H0z"/></clipPath><clipPath id="j" clipPathUnits="userSpaceOnUse"><path d="M0 1162.2h2097.64V0H0z"/></clipPath><clipPath id="az" clipPathUnits="userSpaceOnUse"><path d="M0 1162.2h2097.64V0H0z"/></clipPath><clipPath id="bM" clipPathUnits="userSpaceOnUse"><path d="M0 1162.2h2097.64V0H0z"/></clipPath><clipPath id="x" clipPathUnits="userSpaceOnUse"><path d="M0 1162.2h2097.64V0H0z"/></clipPath><clipPath id="bO" clipPathUnits="userSpaceOnUse"><path d="M0 1162.2h2097.64V0H0z"/></clipPath><clipPath id="aB" clipPathUnits="userSpaceOnUse"><path d="M0 1162.2h2097.64V0H0z"/></clipPath><clipPath id="bQ" clipPathUnits="userSpaceOnUse"><path d="M0 1162.2h2097.64V0H0z"/></clipPath><clipPath id="S" clipPathUnits="userSpaceOnUse"><path d="M0 1162.2h2097.64V0H0z"/></clipPath><clipPath id="bS" clipPathUnits="userSpaceOnUse"><path d="M0 1162.2h2097.64V0H0z"/></clipPath><clipPath id="aD" clipPathUnits="userSpaceOnUse"><path d="M0 1162.2h2097.64V0H0z"/></clipPath><clipPath id="bU" clipPathUnits="userSpaceOnUse"><path d="M0 1162.2h2097.64V0H0z"/></clipPath><clipPath id="cz" clipPathUnits="userSpaceOnUse"><path d="M0 1162.2h2097.64V0H0z"/></clipPath><clipPath id="bW" clipPathUnits="userSpaceOnUse"><path d="M0 1162.2h2097.64V0H0z"/></clipPath><clipPath id="aF" clipPathUnits="userSpaceOnUse"><path d="M0 1162.2h2097.64V0H0z"/></clipPath><clipPath id="bY" clipPathUnits="userSpaceOnUse"><path d="M0 1162.2h2097.64V0H0z"/></clipPath><clipPath id="U" clipPathUnits="userSpaceOnUse"><path d="M0 1162.2h2097.64V0H0z"/></clipPath><clipPath id="ca" clipPathUnits="userSpaceOnUse"><path d="M0 1162.2h2097.64V0H0z"/></clipPath><clipPath id="aH" clipPathUnits="userSpaceOnUse"><path d="M0 1162.2h2097.64V0H0z"/></clipPath><clipPath id="cc" clipPathUnits="userSpaceOnUse"><path d="M0 1162.2h2097.64V0H0z"/></clipPath><clipPath id="z" clipPathUnits="userSpaceOnUse"><path d="M0 1162.2h2097.64V0H0z"/></clipPath><clipPath id="ce" clipPathUnits="userSpaceOnUse"><path d="M0 1162.2h2097.64V0H0z"/></clipPath><clipPath id="aJ" clipPathUnits="userSpaceOnUse"><path d="M0 1162.2h2097.64V0H0z"/></clipPath><clipPath id="cg" clipPathUnits="userSpaceOnUse"><path d="M0 1162.2h2097.64V0H0z"/></clipPath><clipPath id="e" clipPathUnits="userSpaceOnUse"><path d="M0 1162.2h2097.64V0H0z"/></clipPath><clipPath id="ci" clipPathUnits="userSpaceOnUse"><path d="M0 1162.2h2097.64V0H0z"/></clipPath><clipPath id="aL" clipPathUnits="userSpaceOnUse"><path d="M0 1162.2h2097.64V0H0z"/></clipPath><clipPath id="ck" clipPathUnits="userSpaceOnUse"><path d="M0 1162.2h2097.64V0H0z"/></clipPath><clipPath id="B" clipPathUnits="userSpaceOnUse"><path d="M0 1162.2h2097.64V0H0z"/></clipPath><clipPath id="cm" clipPathUnits="userSpaceOnUse"><path d="M0 1162.2h2097.64V0H0z"/></clipPath><clipPath id="Y" clipPathUnits="userSpaceOnUse"><path d="M0 1162.2h2097.64V0H0z"/></clipPath><clipPath id="co" clipPathUnits="userSpaceOnUse"><path d="M0 1162.2h2097.64V0H0z"/></clipPath><clipPath id="p" clipPathUnits="userSpaceOnUse"><path d="M0 1162.2h2097.64V0H0z"/></clipPath><clipPath id="cq" clipPathUnits="userSpaceOnUse"><path d="M0 1162.2h2097.64V0H0z"/></clipPath><clipPath id="aP" clipPathUnits="userSpaceOnUse"><path d="M0 1162.2h2097.64V0H0z"/></clipPath><clipPath id="cs" clipPathUnits="userSpaceOnUse"><path d="M0 1162.2h2097.64V0H0z"/></clipPath><clipPath id="D" clipPathUnits="userSpaceOnUse"><path d="M0 1162.2h2097.64V0H0z"/></clipPath><clipPath id="cu" clipPathUnits="userSpaceOnUse"><path d="M0 1162.2h2097.64V0H0z"/></clipPath><clipPath id="aR" clipPathUnits="userSpaceOnUse"><path d="M0 1162.2h2097.64V0H0z"/></clipPath><clipPath id="cw" clipPathUnits="userSpaceOnUse"><path d="M0 1162.2h2097.64V0H0z"/></clipPath><clipPath id="ab" clipPathUnits="userSpaceOnUse"><path d="M0 1162.2h2097.64V0H0z"/></clipPath><clipPath id="aT" clipPathUnits="userSpaceOnUse"><path d="M0 1162.2h2097.64V0H0z"/></clipPath><clipPath id="aN" clipPathUnits="userSpaceOnUse"><path d="M0 1162.2h2097.64V0H0z"/></clipPath></defs><path d="M3.396 1549.6h2793.457V-.001H3.396z" fill="#f4f1df"/><path d="M37.489 979.807l13.263-15.196-12.445-19.588a1101.972 1101.972 0 0058.747 8.073V987.8a1129.931 1129.931 0 01-59.565-7.993" fill="url(#a)" transform="matrix(1.33333 0 0 -1.33333 0 1549.6)"/><path d="M272.228 953.096a1102.188 1102.188 0 0058.749-8.073l-12.447 19.588 13.263 15.196a1129.508 1129.508 0 01-59.565 7.993z" fill="url(#b)" transform="matrix(1.33333 0 0 -1.33333 0 1549.6)"/><g clip-path="url(#c)" transform="matrix(1.33333 0 0 -1.33333 0 1549.6)"><path d="M62.03 989.383v-27.776l35.138-8.507v27.776zm245.446 0v-27.776L272.34 953.1v27.776z" fill="#631223"/><path d="M307.476 961.523v39.405a965.853 965.853 0 01-122.722 7.809 965.814 965.814 0 01-122.72-7.81v-39.404a941.064 941.064 0 00122.72 8.01c41.543 0 82.499-2.722 122.722-8.01" fill="#e9344e"/></g><path d="M38.621 830.296l12.138-15.847-11.389-16.906c17.749.689 57.296.887 75.384.572v32.581c-6.712.137-16.3.205-26.64.205-17.91 0-38.081-.203-49.493-.605" fill="url(#d)" transform="matrix(1.33333 0 0 -1.33333 0 1549.6)"/><g clip-path="url(#e)" transform="matrix(1.33333 0 0 -1.33333 0 1549.6)"><path d="M75.037 844.486v-35.818l39.717-10.554.375 35.402z" fill="#631223"/></g><path d="M254.756 831.536v-33.407c18.088.323 57.634.121 75.385-.586l-11.391 17.333 12.139 16.25c-11.408.411-31.572.62-49.477.62-10.349 0-19.94-.069-26.656-.21" fill="url(#f)" transform="matrix(1.33333 0 0 -1.33333 0 1549.6)"/><g clip-path="url(#g)" transform="matrix(1.33333 0 0 -1.33333 0 1549.6)"><path d="M294.846 844.486l.746-34.093-40.836-12.265v35.563z" fill="#631223"/><path d="M295.592 844.948s-38.251-16.737-110.277 0c-72.026 16.737-110.278 0-110.278 0v-36.28s45.93 16.366 110.278 1.726c64.348-14.64 110.277 0 110.277 0z" fill="#e9344e"/></g><path d="M41.312 754.701l16.105-14.606-15.112-18.828a1673.589 1673.589 0 0071.337 7.76v33.358a1713.05 1713.05 0 01-72.33-7.684" fill="url(#h)" transform="matrix(1.33333 0 0 -1.33333 0 1549.6)"/><path d="M256.612 729.027a1886.34 1886.34 0 0075.812-7.76l-16.061 18.828 17.115 14.606a1930.347 1930.347 0 01-76.866 7.684z" fill="url(#i)" transform="matrix(1.33333 0 0 -1.33333 0 1549.6)"/><g clip-path="url(#j)" transform="matrix(1.33333 0 0 -1.33333 0 1549.6)"><path d="M89.112 764.832v-26.699l24.53-9.059v26.7zm198.603-.299v-26.26l-31.131-9.281v26.26z" fill="#631223"/><path d="M287.81 738.017v40.017a717.145 717.145 0 01-99.453 6.917 717.11 717.11 0 01-99.45-6.917v-40.017a698.862 698.862 0 0099.45 7.095c33.665 0 66.855-2.412 99.452-7.095" fill="#e9344e"/><path d="M71.58 743.484l3.203.62 1.347 3.234 1.528-3.143 3.232-.404-2.259-2.562.643-3.484-2.918 1.56-2.832-1.751.455 3.52zm223.254-.884l3.203.62 1.347 3.233 1.528-3.143 3.232-.404-2.259-2.562.643-3.484-2.918 1.561-2.832-1.752.455 3.521z" fill="#fff"/><path d="M289.96 700.385s-49.26 3.846-118.081-27.636C103.057 641.266 66.564 645.1 66.564 645.1v-34.9s59.04 3.39 117.114 30.41c58.073 27.021 106.282 24.875 106.282 24.875z" fill="#631223"/><path d="M58.277 702.022s40.437-17.85 116.58 0c76.142 17.85 116.58 0 116.58 0V665.17s-48.555 15.614-116.58 0c-68.026-15.613-116.58 0-116.58 0l12.015 15.834zm7.797-56.354s40.437-17.85 116.58 0c76.142 17.85 116.579 0 116.579 0l-12.015-16.384 12.015-20.467s-48.554 15.614-116.58 0c-68.025-15.613-116.58 0-116.58 0z" fill="#e9344e"/></g><path d="M43.178 543.862l-9.865-19.248 10.605-15.534a909.49 909.49 0 0053.128 8.072v34.704a928.883 928.883 0 01-53.868-7.994" fill="url(#k)" transform="matrix(1.33333 0 0 -1.33333 0 1549.6)"/><path d="M254.637 517.152a909.525 909.525 0 0053.129-8.072l12.635 15.534-11.897 19.248a928.337 928.337 0 01-53.867 7.994z" fill="url(#l)" transform="matrix(1.33333 0 0 -1.33333 0 1549.6)"/><g clip-path="url(#m)" transform="matrix(1.33333 0 0 -1.33333 0 1549.6)"><path d="M65.373 553.438v-27.776l31.775-8.507v27.776zm221.14 0v-27.776l-31.775-8.507v27.776z" fill="#631223"/><path d="M286.513 525.578v45.182a791.15 791.15 0 01-110.982 7.808 791.125 791.125 0 01-110.98-7.808v-45.182a770.908 770.908 0 00110.98 8.01c37.57 0 74.606-2.722 110.982-8.01" fill="#e9344e"/></g><path d="M274.882 1125.247v-34.368h56.111l-11.383 17.182 11.383 17.186z" fill="url(#n)" transform="matrix(1.33333 0 0 -1.33333 0 1549.6)"/><path d="M44.351 1125.247l11.384-17.186-11.384-17.182h57.602v34.368z" fill="url(#o)" transform="matrix(1.33333 0 0 -1.33333 0 1549.6)"/><g clip-path="url(#p)" transform="matrix(1.33333 0 0 -1.33333 0 1549.6)"><path d="M286.47 1102.334l-11.588-11.455v34.367l11.588 7.33zm-196.108 0l11.591-11.455v34.367l-11.591 8.98z" fill="#631223"/><path d="M286.883 1102.452H89.917v31.774h196.966z" fill="#e9344e"/></g><path d="M34.244 281.248l12.16-17.288-11.247-17.825 59.914 1.109 1.563 35.113z" fill="url(#q)" transform="matrix(1.33333 0 0 -1.33333 0 1549.6)"/><g clip-path="url(#r)" transform="matrix(1.33333 0 0 -1.33333 0 1549.6)"><path d="M72.328 270.65l24.369 11.707v-35.123l-24.37-11.708z" fill="#631223"/></g><path d="M255.099 258.863v-35.124h60.339L303.732 241.3l11.706 17.563z" fill="url(#s)" transform="matrix(1.33333 0 0 -1.33333 0 1549.6)"/><g clip-path="url(#t)" transform="matrix(1.33333 0 0 -1.33333 0 1549.6)"><path d="M274.88 235.447L255.1 223.74v35.123l19.78 11.708z" fill="#631223"/><path d="M274.88 235.447H72.327v35.124H274.88zM655.687 935.88s-34.557 30.786-114.933 30.786c-80.375 0-114.932-30.787-114.932-30.787l20.41-9.558-4.154-21.738s50.35 24.428 98.676 24.08c50.016-.362 100.487-25.253 100.487-25.253l-3.008 22.313z" fill="#e9344e"/></g><path d="M401.315 998.334l23.318-4.905-1.72-20.876s24.286 15.697 57.172 29.113l-23.457 29.832c-39.58-16.306-55.313-33.164-55.313-33.164" fill="url(#u)" transform="matrix(1.33333 0 0 -1.33333 0 1549.6)"/><g clip-path="url(#v)" transform="matrix(1.33333 0 0 -1.33333 0 1549.6)"><path d="M464.89 1036.73l15.195-34.704c-16.905 2.563-28.93-.373-28.93-.373l-13.854 28.069s7.257 9.959 27.59 7.008" fill="#631223"/></g><path d="M603.762 1000.015c32.885-13.416 57.172-29.112 57.172-29.112l-1.72 20.876 23.318 4.904s-15.733 16.858-55.312 33.165z" fill="url(#w)" transform="matrix(1.33333 0 0 -1.33333 0 1549.6)"/><g clip-path="url(#x)" transform="matrix(1.33333 0 0 -1.33333 0 1549.6)"><path d="M618.956 1035.08l-15.194-34.704c16.905 2.563 28.928-.373 28.928-.373l13.856 29.719s-7.257 8.309-27.59 5.358" fill="#631223"/><path d="M646.562 1030.067s-31.6 26.503-105.102 26.503c-73.5 0-105.1-26.503-105.1-26.503l14.865-28.619s46.043 20.688 90.235 20.37c45.738-.33 91.892-21.443 91.892-21.443z" fill="#e9344e"/></g><path d="M250.624 310.582c12.121-.757 18.41-3.732 30.453-3.982 5.505-.114 15.947-.003 22.286 2.29l-9.347 16.306 13.55 18.156c-8.73-1.015-15.919-1.573-23.908-1.366-9.352.243-18.731 2.292-28.134 2.849z" fill="url(#y)" transform="matrix(1.33333 0 0 -1.33333 0 1549.6)"/><g clip-path="url(#z)" transform="matrix(1.33333 0 0 -1.33333 0 1549.6)"><path d="M277.824 302.226l3.455 27.236-25.758 15.373-3.455-27.237z" fill="#631223"/></g><path d="M66.024 398.439c-7.988-.208-15.177.35-23.907 1.365l13.549-18.156-9.346-16.306c6.338-2.294 16.78-2.403 22.286-2.289 12.042.249 18.331 3.224 30.453 3.981l-4.901 34.253c-9.402-.557-18.781-2.605-28.134-2.848" fill="url(#A)" transform="matrix(1.33333 0 0 -1.33333 0 1549.6)"/><g clip-path="url(#B)" transform="matrix(1.33333 0 0 -1.33333 0 1549.6)"><path d="M97.616 373.887l-3.455 27.236-25.758-15.372 3.455-27.236zm183.817-16.424v25.966s-46.311-6.517-105.827-19.666C112.615 349.846 69.78 330.149 69.78 330.149v-25.966s43.88 19.923 105.825 33.738c59.03 13.166 105.826 19.542 105.826 19.542" fill="#631223"/><path d="M281.433 360.182v33.96s-46.469 12.899-106.432 12.899-106.43-21.151-106.43-21.151v-33.96s46.983 20.698 106.43 21.313c59.447.616 106.432-13.061 106.432-13.061m0-63.876v33.96s-46.469 12.899-106.432 12.899-106.43-12.9-106.43-12.9v-33.96s46.983 12.447 106.43 13.062c59.447.616 106.432-13.061 106.432-13.061" fill="#e9344e"/></g><path d="M237.814 1066.957l-22-34.366h115.601l-10.383 17.182 10.383 17.184z" fill="url(#C)" transform="matrix(1.33333 0 0 -1.33333 0 1549.6)"/><g clip-path="url(#D)" transform="matrix(1.33333 0 0 -1.33333 0 1549.6)"><path d="M251.405 1044.045l-35.591-11.455-1 34.367 36.59 8.98z" fill="#631223"/></g><path d="M41.873 1066.957l10.385-17.184-10.385-17.182h115.602l-22 34.366z" fill="url(#E)" transform="matrix(1.33333 0 0 -1.33333 0 1549.6)"/><g clip-path="url(#F)" transform="matrix(1.33333 0 0 -1.33333 0 1549.6)"><path d="M121.884 1044.045l35.591-11.455 1 34.367-36.59 8.98z" fill="#631223"/><path d="M251.405 1044.163H121.439v31.774h129.966z" fill="#e9344e"/></g><path d="M240.028 879.584c8.361-1.091 31.4-3.659 54.352-7.347 22.799-3.663 44.15-9.56 53.661-13.04l-10.494 19.587 11.183 15.195c-8.534 3.75-31.322 9.391-54.351 13.058-22.952 3.656-45.918 6.179-54.351 7.251z" fill="url(#G)" transform="matrix(1.33333 0 0 -1.33333 0 1549.6)"/><g clip-path="url(#H)" transform="matrix(1.33333 0 0 -1.33333 0 1549.6)"><path d="M239.933 907.364v-27.776l29.627 8.507v27.776z" fill="#631223"/></g><path d="M79.7 906.556c-23.029-3.668-45.817-9.308-54.351-13.058l11.184-15.195-10.494-19.588c9.511 3.48 30.862 9.377 53.661 13.041 22.951 3.687 45.99 6.255 54.351 7.347v34.704c-8.433-1.072-31.399-3.596-54.351-7.251" fill="url(#I)" transform="matrix(1.33333 0 0 -1.33333 0 1549.6)"/><g clip-path="url(#J)" transform="matrix(1.33333 0 0 -1.33333 0 1549.6)"><path d="M104.52 915.39v-27.777l29.627-8.507v27.776z" fill="#631223"/><path d="M270.162 887.53v39.404c-33.934 5.153-49.072 7.81-84.085 7.81-35.014 0-47.621-2.657-81.554-7.81V887.53c33.915 5.288 46.525 8.01 81.554 8.01 35.028 0 50.168-2.722 84.085-8.01M1958.35 516.123l99.977-3.459-12.641 43.091-99.976 11.737z" fill="#e9344e"/><path d="M1984.398 507.998l26.813-22.225 47.115 27.149-58.606 1.879z" fill="#631223"/></g><path d="M2011.389 485.772l51.704 2.937-36.192 6.108z" fill="url(#K)" transform="matrix(1.33333 0 0 -1.33333 0 1549.6)"/><g clip-path="url(#L)" transform="matrix(1.33333 0 0 -1.33333 0 1549.6)"><path d="M1765.586 691.606h129.921l2.581 53.757-123.7 13.058z" fill="#e9344e"/><path d="M1839.663 686.711l-2.284-16.66 57.695 21.555h-48.405z" fill="#631223"/></g><path d="M1837.705 670.237l38.137-9.208-13.552 18.268z" fill="url(#M)" transform="matrix(1.33333 0 0 -1.33333 0 1549.6)"/><g clip-path="url(#N)" transform="matrix(1.33333 0 0 -1.33333 0 1549.6)"><path d="M1780.006 602.742l98.094-4.536 26.1 57.257-138.58-2.96z" fill="#e9344e"/><path d="M1803.68 592.28l16.388-14.468 58.28 20.442-58.28 2.575z" fill="#631223"/></g><path d="M1839.007 584.617l-18.752-6.864 52.622 6.864z" fill="url(#O)" transform="matrix(1.33333 0 0 -1.33333 0 1549.6)"/><g clip-path="url(#P)" transform="matrix(1.33333 0 0 -1.33333 0 1549.6)"><path d="M1784.835 505.193l102.859 3.653 11.683 57.646-133.757-11.077z" fill="#e9344e"/><path d="M1828.542 501.412l1.381-15.523 58.024 22.98-49.356-1.672z" fill="#631223"/></g><path d="M1830.24 486.002l32.024-3.27 1.256 8.294-13.138 2.935z" fill="url(#Q)" transform="matrix(1.33333 0 0 -1.33333 0 1549.6)"/><path d="M1806.781 473.554l55.734 9.229-22.573 2.246z" fill="url(#R)" transform="matrix(1.33333 0 0 -1.33333 0 1549.6)"/><g clip-path="url(#S)" transform="matrix(1.33333 0 0 -1.33333 0 1549.6)"><path d="M1962.18 408.432l102.198 9.316-9.225 53.1-92.791-10.558z" fill="#e9344e"/><path d="M2044.3 385.447l-39.795 26.866-42.325-3.726z" fill="#631223"/><path d="M1959.885 602.361l94.01-1.938-3.113 65.945-84.67-11.767z" fill="#e9344e"/><path d="M1959.885 602.361l53.438-20.408-8.137 17.06-11.552 2.766z" fill="#631223"/></g><path d="M1953.992 578.65l59.331 3.303-20.247 7.788z" fill="url(#T)" transform="matrix(1.33333 0 0 -1.33333 0 1549.6)"/><g clip-path="url(#U)" transform="matrix(1.33333 0 0 -1.33333 0 1549.6)"><path d="M1776.289 415.718l122.604-7.527-3.57 52.162-115.305 8.863z" fill="#e9344e"/><path d="M1819.544 409.164l-4.922-16.754 84.272 15.78-62.198 3.927z" fill="#631223"/></g><path d="M1814.621 392.534l42.137-7.77-15.29 12.631z" fill="url(#V)" transform="matrix(1.33333 0 0 -1.33333 0 1549.6)"/><path d="M1224.763 58.46V23.52h131.91l-13.032 17.468 13.032 17.472z" fill="url(#W)" transform="matrix(1.33333 0 0 -1.33333 0 1549.6)"/><path d="M889.736 58.46l13.032-17.472-13.032-17.468h128.911v34.94z" fill="url(#X)" transform="matrix(1.33333 0 0 -1.33333 0 1549.6)"/><g clip-path="url(#Y)" transform="matrix(1.33333 0 0 -1.33333 0 1549.6)"><path d="M1238.03 35.166l-13.267-11.646v34.94l13.266 11.646zm-232.652 0l13.269-11.646v34.94l-13.27 11.646z" fill="#631223"/><path d="M1238.029 35.166h-233.162v34.94h233.162z" fill="#e9344e"/></g><path d="M1387.849 911.697v-52.705h52.936l-16.076 26.352 16.076 26.353z" fill="url(#Z)" transform="matrix(1.33333 0 0 -1.33333 0 1549.6)"/><path d="M1135.435 911.697l16.077-26.353-16.077-26.352h52.933v52.705z" fill="url(#aa)" transform="matrix(1.33333 0 0 -1.33333 0 1549.6)"/><g clip-path="url(#ab)" transform="matrix(1.33333 0 0 -1.33333 0 1549.6)"><path d="M1410.592 851.956h-244.968v66.781h244.968z" fill="#e9344e"/></g><path d="M1571.52 637.156v-34.794a1125.885 1125.885 0 0159.509 8.014l-13.251 15.235 12.433 19.639a1096.983 1096.983 0 00-58.691-8.094" fill="url(#ac)" transform="matrix(1.33333 0 0 -1.33333 0 1549.6)"/><path d="M1350.251 625.611L1337 610.376a1125.5 1125.5 0 0159.51-8.014v34.794a1096.917 1096.917 0 00-58.693 8.094z" fill="url(#ad)" transform="matrix(1.33333 0 0 -1.33333 0 1549.6)"/><g clip-path="url(#ae)" transform="matrix(1.33333 0 0 -1.33333 0 1549.6)"><path d="M1606.51 600.775v27.848l-35.104 8.53v-27.849zm-245.215 0v27.848l35.104 8.53v-27.849z" fill="#631223"/><path d="M1361.295 628.708v-45.3a961.663 961.663 0 01122.607-7.828c41.486 0 82.4 2.663 122.605 7.829v45.299a937.05 937.05 0 00-122.605-8.031 937.08 937.08 0 00-122.607 8.03" fill="#e9344e"/></g><path d="M1011.258 145.643v-44.57l57.939 8.254-15.527 18.983 15.527 25.587z" fill="url(#af)" transform="matrix(1.33333 0 0 -1.33333 0 1549.6)"/><g clip-path="url(#ag)" transform="matrix(1.33333 0 0 -1.33333 0 1549.6)"><path d="M1029.17 119.23l-17.912-18.158v47.872l17.912 14.858z" fill="#631223"/></g><path d="M747.614 107.675l17.597-20.634-17.597-23.937 57.938 8.254v44.571z" fill="url(#ah)" transform="matrix(1.33333 0 0 -1.33333 0 1549.6)"/><g clip-path="url(#ai)" transform="matrix(1.33333 0 0 -1.33333 0 1549.6)"><path d="M787.639 86.215l17.914-14.857v44.571l-17.914 14.857z" fill="#631223"/><path d="M1029.17 119.23L786.948 86.215v44.571l242.222 33.016z" fill="#e9344e"/></g><path d="M1340.411 528.511l12.954-16.583-12.153-21.38a971.621 971.621 0 0057.374 8.811v37.877a994.962 994.962 0 01-58.175-8.725" fill="url(#aj)" transform="matrix(1.33333 0 0 -1.33333 0 1549.6)"/><path d="M1569.664 499.359a971.943 971.943 0 0057.376-8.811l-12.155 21.38 12.954 16.583a994.707 994.707 0 01-58.175 8.725z" fill="url(#ak)" transform="matrix(1.33333 0 0 -1.33333 0 1549.6)"/><g clip-path="url(#al)" transform="matrix(1.33333 0 0 -1.33333 0 1549.6)"><path d="M1364.271 538.963v-30.315l34.316-9.286v30.315zm239.707 0v-30.315l-34.314-9.286v30.315z" fill="#631223"/><path d="M1364.274 549.938v-41.29a1006.55 1006.55 0 01119.853-7.137c40.554 0 80.55 2.425 119.852 7.137v41.29a981.21 981.21 0 00-119.852-7.32 981.19 981.19 0 00-119.853 7.32" fill="#e9344e"/></g><path d="M1375.946 147.532v-44.498l53.547 4.862-13.376 22.249 13.376 22.248z" fill="url(#am)" transform="matrix(1.33333 0 0 -1.33333 0 1549.6)"/><g clip-path="url(#an)" transform="matrix(1.33333 0 0 -1.33333 0 1549.6)"><path d="M1391.66 122.265l-15.714-19.231v47.796l15.714 15.933z" fill="#631223"/><path d="M1227.174 148.018l164.486 18.745v-44.498l-164.486-18.745 13.377 22.249z" fill="#e9344e"/></g><path d="M1021.422 221.011v-42.482l48.467 7.866-12.99 18.095 12.99 24.388z" fill="url(#ao)" transform="matrix(1.33333 0 0 -1.33333 0 1549.6)"/><g clip-path="url(#ap)" transform="matrix(1.33333 0 0 -1.33333 0 1549.6)"><path d="M983.831 241.461l-147.758-76.043v42.477l147.758 76.047zm54.882-44.576l-17.292-18.356v45.628l17.292 15.21z" fill="#631223"/></g><path d="M748.306 230.448l14.718-19.669-14.718-22.814 48.465 7.868v42.482z" fill="url(#aq)" transform="matrix(1.33333 0 0 -1.33333 0 1549.6)"/><g clip-path="url(#ar)" transform="matrix(1.33333 0 0 -1.33333 0 1549.6)"><path d="M781.785 209.993l14.986-14.16v42.481l-14.986 14.16z" fill="#631223"/><path d="M983.831 241.461l-202.622-31.468v42.481l202.622 31.468zm54.881-44.576L836.09 165.418v42.48l202.62 31.468z" fill="#e9344e"/></g><path d="M1030.426 1048.274a864.478 864.478 0 0057.766-10.124l-12.239 24.568 13.042 19.059a885.531 885.531 0 01-58.569 10.026z" fill="url(#as)" transform="matrix(1.33333 0 0 -1.33333 0 1549.6)"/><g clip-path="url(#at)" transform="matrix(1.33333 0 0 -1.33333 0 1549.6)"><path d="M1059.658 1093.78v-34.838l-29.232-10.671v34.84z" fill="#631223"/></g><path d="M996.872 1065.724c22.913-1.387 40.311-3.639 62.786-6.794v47.449c-22.485 3.074-39.881 5.269-62.786 6.619z" fill="url(#au)" transform="matrix(1.33333 0 0 -1.33333 0 1549.6)"/><g clip-path="url(#av)" transform="matrix(1.33333 0 0 -1.33333 0 1549.6)"><path d="M1031.42 1111.228v-34.838l-34.548-10.67v34.84z" fill="#631223"/></g><path d="M732.519 1081.777l13.04-19.059-12.239-24.568a864.62 864.62 0 0057.767 10.124v43.529a885.277 885.277 0 01-58.568-10.026" fill="url(#aw)" transform="matrix(1.33333 0 0 -1.33333 0 1549.6)"/><g clip-path="url(#ax)" transform="matrix(1.33333 0 0 -1.33333 0 1549.6)"><path d="M791.087 1083.11v-34.84l-29.232 10.672v34.838z" fill="#631223"/></g><path d="M761.855 1106.379v-47.449c22.474 3.155 39.874 5.407 62.785 6.794v47.274c-22.906-1.35-40.303-3.545-62.785-6.619" fill="url(#ay)" transform="matrix(1.33333 0 0 -1.33333 0 1549.6)"/><g clip-path="url(#az)" transform="matrix(1.33333 0 0 -1.33333 0 1549.6)"><path d="M824.64 1100.56v-34.84l-34.546 10.67v34.838z" fill="#631223"/><path d="M1031.42 1076.4v47.448a889.814 889.814 0 01-120.669 8.202c-40.83 0-81.097-2.789-120.668-8.202V1076.4a867.175 867.175 0 00120.668 8.412c40.85 0 81.12-2.858 120.668-8.412" fill="#e9344e"/><path d="M2046.81 749.61h-81.101l-8.028-18.96h97.157z" fill="#631223"/><path d="M1965.707 679.806l.003 69.773h81.102v-69.773s-4.019 1.031-4.019 2.301v.003h-3.547v-.003c0-1.27-4.022-2.301-4.022-2.301s-4.018 1.031-4.018 2.301v.003h-3.549v-.003c0-1.27-4.016-2.301-4.016-2.301s-4.023 1.031-4.023 2.301v.003h-3.545v-.003c0-1.27-4.022-2.301-4.022-2.301s-4.02 1.031-4.02 2.301v.003h-3.545v-.003c0-1.27-4.022-2.301-4.022-2.301s-4.018 1.031-4.018 2.301v.003h-3.547v-.003c0-1.27-4.019-2.301-4.019-2.301s-4.022 1.031-4.022 2.301v.003h-3.546v-.003c0-1.27-4.02-2.301-4.02-2.301s-4.02 1.031-4.02 2.301v.003h-3.547v-.003c0-1.27-4.018-2.301-4.018-2.301" fill="#e9344e"/></g><path d="M1096.431 149.8l13.377-22.248-13.377-22.249 53.548 4.862v44.497z" fill="url(#aA)" transform="matrix(1.33333 0 0 -1.33333 0 1549.6)"/><g clip-path="url(#aB)" transform="matrix(1.33333 0 0 -1.33333 0 1549.6)"><path d="M1134.265 135.432l15.714 19.23v-47.795l-15.714-15.933z" fill="#631223"/><path d="M1196.875 97.571l-62.61-6.637v44.498l62.61 6.637 16.257-19.27z" fill="#e9344e"/></g><path d="M726.858 887.035l11.848-19.089-11.117-20.363c17.324.83 55.922 1.068 73.578.689v39.246c-6.551.165-15.911.247-26.003.247-17.481 0-37.167-.246-48.306-.73" fill="url(#aC)" transform="matrix(1.33333 0 0 -1.33333 0 1549.6)"/><g clip-path="url(#aD)" transform="matrix(1.33333 0 0 -1.33333 0 1549.6)"><path d="M801.166 879.94v-31.107l-25.014 9.528v31.105z" fill="#631223"/></g><path d="M776.152 901.324v-42.366c19.232 2.817 34.121 4.828 53.727 6.067v42.209c-19.601-1.206-34.486-3.166-53.727-5.91" fill="url(#aE)" transform="matrix(1.33333 0 0 -1.33333 0 1549.6)"/><g clip-path="url(#aF)" transform="matrix(1.33333 0 0 -1.33333 0 1549.6)"><path d="M830.084 896.136V865.03l-29.562 9.528v31.105z" fill="#631223"/></g><path d="M1025.191 886.649v-39.246c17.654.379 56.253.141 73.577-.688l-11.117 20.363 11.847 19.089c-11.136.484-30.823.729-48.301.729-10.097 0-19.453-.082-26.006-.247" fill="url(#aG)" transform="matrix(1.33333 0 0 -1.33333 0 1549.6)"/><g clip-path="url(#aH)" transform="matrix(1.33333 0 0 -1.33333 0 1549.6)"><path d="M1050.205 888.597v-31.105l-25.014-9.528v31.107z" fill="#631223"/></g><path d="M996.478 864.156c19.607-1.239 34.495-3.25 53.727-6.066v42.364c-19.241 2.745-34.127 4.706-53.727 5.911z" fill="url(#aI)" transform="matrix(1.33333 0 0 -1.33333 0 1549.6)"/><g clip-path="url(#aJ)" transform="matrix(1.33333 0 0 -1.33333 0 1549.6)"><path d="M1025.835 904.794v-31.105l-29.562-9.528v31.107z" fill="#631223"/><path d="M1026.54 873.483V918.8a822.169 822.169 0 01-113.318 7.832 822.129 822.129 0 01-113.317-7.832v-45.317a801.173 801.173 0 00113.317 8.034c38.36 0 76.177-2.73 113.319-8.034" fill="#e9344e"/></g><path d="M1151.463 1002.523l-28.258-5.944s19.066-20.429 67.03-40.19l28.427 36.153c-39.852 16.258-69.284 35.279-69.284 35.279z" fill="url(#aK)" transform="matrix(1.33333 0 0 -1.33333 0 1549.6)"/><g clip-path="url(#aL)" transform="matrix(1.33333 0 0 -1.33333 0 1549.6)"><path d="M1192.805 954.365l18.857 38.177c-19.915 12.042-33.94 27.804-33.94 27.804l-17.162-33.148s8.295-18.151 32.245-32.833m555.548 120.301l-270.649-69.333v45.17l270.65 69.333zm-6.565-68.959l-261.344-67.694v45.17l261.344 67.694z" fill="#631223"/><path d="M1748.353 1074.666h-264.339l11 22.585-11 22.585h264.34zm-268.281-91.642h264.339l-11-22.585 11-22.585h-264.339zm-3 67.853h264.339v-45.17h-264.339z" fill="#e9344e"/></g><path d="M753.889 987.058l13.32-21.908-32.441-21.904h86.518v43.812z" fill="url(#aM)" transform="matrix(1.33333 0 0 -1.33333 0 1549.6)"/><g clip-path="url(#aN)" transform="matrix(1.33333 0 0 -1.33333 0 1549.6)"><path d="M778.471 956.185l42.867-12.466v37.4l-42.867 12.466z" fill="#631223"/></g><path d="M778.027 955.983h65.799v40.506h-65.799z" fill="url(#aO)" transform="matrix(1.33333 0 0 -1.33333 0 1549.6)"/><g clip-path="url(#aP)" transform="matrix(1.33333 0 0 -1.33333 0 1549.6)"><path d="M800.959 971.993l42.867-15.064v45.195l-42.867 15.064z" fill="#631223"/></g><path d="M1011.054 987.058v-43.812h86.518l-32.441 21.904 13.319 21.908z" fill="url(#aQ)" transform="matrix(1.33333 0 0 -1.33333 0 1549.6)"/><g clip-path="url(#aR)" transform="matrix(1.33333 0 0 -1.33333 0 1549.6)"><path d="M1053.868 956.185l-42.867-12.466v37.4l42.867 12.466z" fill="#631223"/></g><path d="M988.513 955.983h65.799v40.506h-65.799z" fill="url(#aS)" transform="matrix(1.33333 0 0 -1.33333 0 1549.6)"/><g clip-path="url(#aT)" transform="matrix(1.33333 0 0 -1.33333 0 1549.6)"><path d="M1031.38 971.993l-42.866-15.064v45.195l42.867 15.064z" fill="#631223"/><path d="M1031.419 972.018h-230.46v45.17h230.46z" fill="#e9344e"/></g><path d="M1130.288 1101.847l13-21.824-16.813-15.629s29.07-5.843 62.582-20.115l5.509 42.164c-33.911 14.291-56.138 15.447-62.439 15.447-1.215 0-1.839-.043-1.839-.043" fill="url(#aU)" transform="matrix(1.33333 0 0 -1.33333 0 1549.6)"/><g clip-path="url(#aV)" transform="matrix(1.33333 0 0 -1.33333 0 1549.6)"><path d="M1191.15 1089.927l17.5-16.843c-14.988-10.502-19.593-28.805-19.593-28.805l-25.325 30.058s4.282 13.207 27.419 15.59" fill="#631223"/></g><path d="M1357.688 993.566l28.426-36.153c47.964 19.761 67.031 40.19 67.031 40.19l-28.258 5.944 2.085 25.298s-29.432-19.021-69.284-35.279" fill="url(#aW)" transform="matrix(1.33333 0 0 -1.33333 0 1549.6)"/><g clip-path="url(#aX)" transform="matrix(1.33333 0 0 -1.33333 0 1549.6)"><path d="M1382.544 955.389l-18.857 38.177c19.915 12.042 33.94 27.804 33.94 27.804l17.163-33.148s-8.296-18.151-32.246-32.833" fill="#631223"/></g><path d="M1803.482 934.52c-15.177-2.795-30.679-5.59-36.129.455 0 0 2.788-15.319 9.604-20.477-1.642-6.283-9.14-13.543-9.14-13.543 7.139-8.756 22.802-5.141 37.371-1.526 16.847 4.182 32.23 8.362 31.282-6.582l2.308 36.357c.407 6.416-4.455 8.459-11.846 8.459-6.484.001-14.915-1.571-23.45-3.143" fill="url(#aY)" transform="matrix(1.33333 0 0 -1.33333 0 1549.6)"/><g clip-path="url(#aZ)" transform="matrix(1.33333 0 0 -1.33333 0 1549.6)"><path d="M1838.378 931.772c0-16.772-34.117 4.306-34.117-11.267v-39.352c0 15.572 34.117-5.506 34.117 11.266zM904.565 614.816l-154.032 24.22-.41-46.47 154.442-25.379-13 26.744zM770.449 762.25l154.032-24.22.68 47.522-154.712 24.328 13-26.744zm-64.266-84.704l229.096-36.483v48.497l-229.096 37.238z" fill="#631223"/><path d="M925.161 735.929l-218.979-58.181V727l218.98 58.181zm10.117-95.62l-185.155-47.743-1.108 46.928 186.263 50.067z" fill="#e9344e"/></g><path d="M1369.076 264.453l6.715-44.565c38.365 17.527 71.702 25.761 71.702 25.761l-19.455 15.499 14.732 24.159h-.01c-.558 0-27.852-.106-73.685-20.854" fill="url(#ba)" transform="matrix(1.33333 0 0 -1.33333 0 1549.6)"/><g clip-path="url(#bb)" transform="matrix(1.33333 0 0 -1.33333 0 1549.6)"><path d="M1368.618 264l-2.715-44.112c18.964 7.256 27.537 6.896 27.537 6.896l8.963 36.076s-10.942 9.716-33.785 1.14" fill="#631223"/></g><path d="M1086.84 215.952l19.456-15.5-14.732-24.159s27.383-.109 73.694 20.854l-6.715 44.566c-38.364-17.527-71.703-25.761-71.703-25.761" fill="url(#bc)" transform="matrix(1.33333 0 0 -1.33333 0 1549.6)"/><g clip-path="url(#bd)" transform="matrix(1.33333 0 0 -1.33333 0 1549.6)"><path d="M1165.716 197.6l2.715 44.113c-18.964-7.256-27.537-6.896-27.537-6.896l-8.963-36.076s10.942-9.716 33.785-1.141" fill="#631223"/><path d="M1402.66 261.639s-49.25-37.136-135.84-7c-97.73 34.014-135.84-10-135.84-10v-47.721s55.11 41.735 135.84 10c76.132-29.927 135.84 7 135.84 7z" fill="#e9344e"/></g><path d="M1366.996 1086.77c40.453-17.048 64.278-15.403 64.278-15.403l-12.999 21.822 16.812 15.63s-29.069 5.843-62.581 20.116z" fill="url(#be)" transform="matrix(1.33333 0 0 -1.33333 0 1549.6)"/><g clip-path="url(#bf)" transform="matrix(1.33333 0 0 -1.33333 0 1549.6)"><path d="M1370.412 1083.287l-17.5 16.843c14.989 10.502 19.594 28.805 19.594 28.805l25.325-30.058s-4.282-13.207-27.42-15.59" fill="#631223"/><path d="M1397.679 1059.68s-42.391 32.676-116.92 6.16c-84.117-29.93-116.918 8.799-116.918 8.799v41.99s47.433-36.722 116.919-8.798c65.527 26.333 116.919-6.16 116.919-6.16z" fill="#e9344e"/></g><path d="M1992.112 929.236l2.31-36.358c-.95 14.945 14.434 10.763 31.28 6.583 14.569-3.615 30.232-7.232 37.371 1.524 0 0-7.497 7.262-9.139 13.545 6.816 5.157 9.604 20.475 9.604 20.475-5.45-6.044-20.953-3.249-36.131-.454-8.535 1.572-16.966 3.143-23.45 3.143-7.392 0-12.252-2.043-11.845-8.458" fill="url(#bg)" transform="matrix(1.33333 0 0 -1.33333 0 1549.6)"/><g clip-path="url(#bh)" transform="matrix(1.33333 0 0 -1.33333 0 1549.6)"><path d="M1992.513 931.803c0-16.772 34.117 4.306 34.117-11.267v-39.352c0 15.572-34.117-5.506-34.117 11.266z" fill="#631223"/><path d="M1160.743 988.093s38.295-32.117 127.366-32.117 127.367 32.117 127.367 32.117l-18.015 34.682s-55.797-25.071-109.352-24.685c-55.426.4-111.357 25.985-111.357 25.985z" fill="#e9344e"/></g><path d="M1504.6 354.3c39.852-16.258 69.284-35.279 69.284-35.279l-2.084 25.298 28.257 5.944s-19.067 20.429-67.029 40.19z" fill="url(#bi)" transform="matrix(1.33333 0 0 -1.33333 0 1549.6)"/><g clip-path="url(#bj)" transform="matrix(1.33333 0 0 -1.33333 0 1549.6)"><path d="M1530.457 392.477L1511.6 354.3c19.915-12.042 33.94-27.804 33.94-27.804l17.162 33.148s-8.295 18.151-32.245 32.833" fill="#631223"/></g><path d="M1270.118 349.239l28.257-5.944-2.084-25.298s29.431 19.021 69.283 35.279l-28.427 36.153c-47.964-19.761-67.029-40.19-67.029-40.19" fill="url(#bk)" transform="matrix(1.33333 0 0 -1.33333 0 1549.6)"/><g clip-path="url(#bl)" transform="matrix(1.33333 0 0 -1.33333 0 1549.6)"><path d="M1340.718 391.453l18.857-38.177c-19.915-12.042-33.94-27.804-33.94-27.804l-17.163 33.148s8.296 18.151 32.246 32.833" fill="#631223"/><path d="M1562.519 358.75s-38.295 32.116-127.366 32.116-127.367-32.117-127.367-32.117l18.015-34.682s55.797 25.071 109.352 24.685c55.426-.4 111.357-25.985 111.357-25.985z" fill="#e9344e"/></g><path d="M1403.844 329.062l-6.932-1.342 5.192-5.215-.986-7.622 6.131 3.793 6.317-3.38-1.393 7.544 4.891 5.544-6.996.874-3.308 6.804z" fill="url(#bm)" transform="matrix(1.33333 0 0 -1.33333 0 1549.6)"/><path d="M1434.271 329.062l-6.933-1.342 5.193-5.215-.986-7.622 6.13 3.793 6.317-3.38-1.392 7.544 4.891 5.544-6.997.874-3.306 6.804z" fill="url(#bn)" transform="matrix(1.33333 0 0 -1.33333 0 1549.6)"/><path d="M1464.72 329.062l-6.932-1.342 5.192-5.215-.985-7.622 6.13 3.793 6.317-3.38-1.392 7.544 4.89 5.544-6.996.874-3.307 6.804z" fill="url(#bo)" transform="matrix(1.33333 0 0 -1.33333 0 1549.6)"/><g clip-path="url(#bp)" transform="matrix(1.33333 0 0 -1.33333 0 1549.6)"><path d="M2027.254 885.521c0-29.323-224.273-28.459-224.273 0v36.322c0-31.322 224.273-29.596 224.273 0z" fill="#e9344e"/></g><path d="M1796.663 842.396c-9.705-.228-18.439.383-29.045 1.493l16.461-19.874-11.354-17.849c7.699-2.511 20.385-2.632 27.074-2.507 14.631.273 22.271 3.53 36.997 4.359l-5.954 37.495c-11.423-.609-22.817-2.852-34.179-3.117" fill="url(#bq)" transform="matrix(1.33333 0 0 -1.33333 0 1549.6)"/><g clip-path="url(#br)" transform="matrix(1.33333 0 0 -1.33333 0 1549.6)"><path d="M1835.043 815.52l-4.197 29.815-31.293-16.828 4.198-29.815z" fill="#631223"/></g><path d="M1987.529 807.928c14.726-.829 22.367-4.086 36.998-4.358 6.688-.125 19.374-.005 27.073 2.507l-11.354 17.849 16.461 19.874c-10.606-1.11-19.339-1.721-29.044-1.495-11.363.267-22.757 2.51-34.18 3.119z" fill="url(#bs)" transform="matrix(1.33333 0 0 -1.33333 0 1549.6)"/><g clip-path="url(#bt)" transform="matrix(1.33333 0 0 -1.33333 0 1549.6)"><path d="M2020.575 798.603l4.197 29.815-31.292 16.827-4.197-29.814z" fill="#631223"/></g><path d="M1741.347 392.446l-39.442-2.505c30.234 1.921-11.686-57.777 8.796-74.476 0 0 7.877 8.134 14.693 9.916 5.595-7.396 22.212-10.42 22.212-10.42-14.282 12.881 16.94 77.513-5.465 77.511-.257 0-.522-.009-.794-.026" fill="url(#bu)" transform="matrix(1.33333 0 0 -1.33333 0 1549.6)"/><g clip-path="url(#bv)" transform="matrix(1.33333 0 0 -1.33333 0 1549.6)"><path d="M1744.133 392.012c-18.195 0 4.67-37.01-12.223-37.01h-42.691c16.894 0-5.972 37.01 12.223 37.01z" fill="#631223"/></g><path d="M1662.356 552.923l39.441 2.505c-30.233-1.92 11.687 57.777-8.794 74.476 0 0-7.878-8.134-14.693-9.915-5.596 7.395-22.214 10.419-22.214 10.419 14.448-13.029-17.661-79.004 6.26-77.485" fill="url(#bw)" transform="matrix(1.33333 0 0 -1.33333 0 1549.6)"/><g clip-path="url(#bx)" transform="matrix(1.33333 0 0 -1.33333 0 1549.6)"><path d="M1659.57 553.357c18.195 0-4.67 37.011 12.223 37.011h42.691c-16.894 0 5.972-37.01-12.223-37.01z" fill="#631223"/><path d="M1710.024 590.552c81.61-.228-52.188-237.07 26.856-236.822l-41.937-.013c-80.61-.202 55.924 236.72-25.678 236.947zm89.529 238.308v-36.27a920.792 920.792 0 01112.712-6.904 920.76 920.76 0 01112.71 6.905v36.27a897.198 897.198 0 00-112.71-7.084 897.254 897.254 0 00-112.712 7.084m-4.709-467.38l13.23-21.587-13.23-17.76a998.837 998.837 0 01122.274-7.491c41.373 0 82.176 2.547 122.273 7.491l-12.318 17.76 12.318 21.587a973.284 973.284 0 00-122.273-7.685 973.312 973.312 0 00-122.274 7.685M1456.838-22.323l-58.976 19.18c38.818 50.038 62.891 95.052 62.891 95.052l13.988-30.712 38.971 15.402s-10.282-38.477-56.874-98.922" fill="#e9344e"/></g><path d="M1560.699 456.979v-35.011h52.181l13.781 17.506-13.781 17.505z" fill="url(#by)" transform="matrix(1.33333 0 0 -1.33333 0 1549.6)"/><path d="M1346.32 456.979l-12.329-17.505 12.329-17.506h53.566v35.011z" fill="url(#bz)" transform="matrix(1.33333 0 0 -1.33333 0 1549.6)"/><g clip-path="url(#bA)" transform="matrix(1.33333 0 0 -1.33333 0 1549.6)"><path d="M1571.476 433.638l-10.776-11.67v35.012l10.776 7.466zm-182.369 0l10.779-11.67v35.012l-10.78 9.148z" fill="#631223"/><path d="M1571.859 433.757h-183.167v32.37h183.167z" fill="#e9344e"/></g><path d="M226.576 442.48c10.312-1.256 34.088-3.894 55.728-7.361 15.868-2.542 30.586-5.993 38.007-7.346l10.606 15.535-9.866 19.248c-7.374 1.315-21.754 4.684-37.357 7.161-22.036 3.498-46.51 6.209-57.118 7.467z" fill="url(#bB)" transform="matrix(1.33333 0 0 -1.33333 0 1549.6)"/><g clip-path="url(#bC)" transform="matrix(1.33333 0 0 -1.33333 0 1549.6)"><path d="M226.474 470.259v-27.776l31.775 8.507v27.776z" fill="#631223"/></g><path d="M66.019 469.656c-15.602-2.477-29.982-5.846-37.356-7.162l-9.867-19.249 10.607-15.534c7.421 1.353 22.139 4.804 38.006 7.346 21.641 3.468 45.416 6.106 55.729 7.36v34.705c-10.609-1.257-35.082-3.969-57.119-7.466" fill="url(#bD)" transform="matrix(1.33333 0 0 -1.33333 0 1549.6)"/><g clip-path="url(#bE)" transform="matrix(1.33333 0 0 -1.33333 0 1549.6)"><path d="M91.465 478.704v-27.776l31.775-8.507v27.776z" fill="#631223"/><path d="M258.323 450.844v45.182c-36.395 5.153-45.43 5.808-82.982 5.808s-47.587-.655-83.981-5.808v-45.182c36.375 5.288 46.412 6.01 83.98 6.01 37.57 0 46.607-.722 82.983-6.01" fill="#e9344e"/></g><path d="M32.009 209.248l12.16-17.287-11.247-17.826 96.914 1.109 1.563 35.113z" fill="url(#bF)" transform="matrix(1.33333 0 0 -1.33333 0 1549.6)"/><g clip-path="url(#bG)" transform="matrix(1.33333 0 0 -1.33333 0 1549.6)"><path d="M107.093 198.65l24.37 11.707v-35.123l-24.37-11.708z" fill="#631223"/></g><path d="M214.864 186.863v-35.124h101.339L304.497 169.3l11.706 17.563z" fill="url(#bH)" transform="matrix(1.33333 0 0 -1.33333 0 1549.6)"/><g clip-path="url(#bI)" transform="matrix(1.33333 0 0 -1.33333 0 1549.6)"><path d="M234.646 163.447l-19.781-11.707v35.123l19.78 11.708z" fill="#631223"/><path d="M234.646 163.447H107.093v35.124h127.553z" fill="#e9344e"/></g><path d="M27.78 141.46l12.159-17.287-11.246-17.826 124.914 1.109 1.563 35.113z" fill="url(#bJ)" transform="matrix(1.33333 0 0 -1.33333 0 1549.6)"/><g clip-path="url(#bK)" transform="matrix(1.33333 0 0 -1.33333 0 1549.6)"><path d="M130.864 130.862l24.369 11.707v-35.123l-24.37-11.708z" fill="#631223"/></g><path d="M206.635 119.075V83.951h125.339l-11.706 17.561 11.706 17.563z" fill="url(#bL)" transform="matrix(1.33333 0 0 -1.33333 0 1549.6)"/><g clip-path="url(#bM)" transform="matrix(1.33333 0 0 -1.33333 0 1549.6)"><path d="M226.416 95.659l-19.78-11.707v35.123l19.78 11.708z" fill="#631223"/><path d="M226.416 95.659h-95.553v35.124h95.553z" fill="#e9344e"/></g><path d="M206.257 67.081V31.958h125.339L319.89 49.522l11.706 17.559z" fill="url(#bN)" transform="matrix(1.33333 0 0 -1.33333 0 1549.6)"/><g clip-path="url(#bO)" transform="matrix(1.33333 0 0 -1.33333 0 1549.6)"><path d="M226.038 55.375l-19.78 11.707V31.959l19.78-11.708z" fill="#631223"/></g><path d="M24.928 67.081l11.707-17.559-11.707-17.564h125.339v35.123z" fill="url(#bP)" transform="matrix(1.33333 0 0 -1.33333 0 1549.6)"/><g clip-path="url(#bQ)" transform="matrix(1.33333 0 0 -1.33333 0 1549.6)"><path d="M130.486 55.375l19.78 11.707V31.959l-19.78-11.708z" fill="#631223"/><path d="M130.486 55.375h95.553V20.251h-95.553z" fill="#e9344e"/></g><path d="M597.919 1125.867v-35.124h95.338l-11.706 17.564 11.706 17.56z" fill="url(#bR)" transform="matrix(1.33333 0 0 -1.33333 0 1549.6)"/><g clip-path="url(#bS)" transform="matrix(1.33333 0 0 -1.33333 0 1549.6)"><path d="M617.7 1114.16l-19.781 11.707v-35.124l19.78-11.707z" fill="#631223"/></g><path d="M386.59 1125.867l11.706-17.56-11.706-17.564h95.338v35.124z" fill="url(#bT)" transform="matrix(1.33333 0 0 -1.33333 0 1549.6)"/><g clip-path="url(#bU)" transform="matrix(1.33333 0 0 -1.33333 0 1549.6)"><path d="M462.147 1114.16l19.781 11.707v-35.124l-19.78-11.707z" fill="#631223"/><path d="M462.147 1114.16H617.7v-35.124H462.147z" fill="#e9344e"/></g><path d="M392.341 257.999l24.821-5.221-1.831-22.222s25.852 16.707 60.857 30.988l-24.969 31.757c-42.131-17.358-58.878-35.302-58.878-35.302" fill="url(#bV)" transform="matrix(1.33333 0 0 -1.33333 0 1549.6)"/><g clip-path="url(#bW)" transform="matrix(1.33333 0 0 -1.33333 0 1549.6)"><path d="M460.015 298.87l16.174-36.942c-17.995 2.728-30.794-.397-30.794-.397l-14.748 29.878s7.724 10.601 29.368 7.46" fill="#631223"/></g><path d="M607.837 259.788c35.006-14.281 60.858-30.989 60.858-30.989l-1.831 22.222 24.821 5.221s-16.747 17.944-58.878 35.302z" fill="url(#bX)" transform="matrix(1.33333 0 0 -1.33333 0 1549.6)"/><g clip-path="url(#bY)" transform="matrix(1.33333 0 0 -1.33333 0 1549.6)"><path d="M624.011 297.113l-16.174-36.941c17.995 2.728 30.794-.397 30.794-.397l14.748 31.635s-7.724 8.844-29.368 5.703" fill="#631223"/><path d="M653.396 291.777s-33.638 28.211-111.876 28.211c-78.239 0-111.877-28.21-111.877-28.21l15.824-30.465s49.011 22.022 96.053 21.682c48.685-.35 97.814-22.824 97.814-22.824z" fill="#e9344e"/><path d="M646.04 290.125s-33.445 24.062-104.52 24.062c-71.074 0-104.563-24.062-104.563-24.062l10.979-21.175s40.845 19.324 93.584 19.285c52.228-.038 95.269-21.042 95.269-21.042z" fill="none" stroke="#fbfcfc" stroke-miterlimit="10"/><path d="M664.165 849.966H415.683l13.587 17.6-13.587 17.602h248.482l-10.191-18.232z" fill="#e9344e"/></g><path d="M614.304 785.663l-52.563-35.113 113.389 1.108-12.159 17.288 11.247 17.826z" fill="url(#bZ)" transform="matrix(1.33333 0 0 -1.33333 0 1549.6)"/><g clip-path="url(#ca)" transform="matrix(1.33333 0 0 -1.33333 0 1549.6)"><path d="M639.047 769.337l-77.369-18.787 1 35.124 76.37 18.787z" fill="#631223"/></g><path d="M400.589 822.267l12.16-17.287-11.247-17.826 59.914 1.109 52.563 35.113z" fill="url(#cb)" transform="matrix(1.33333 0 0 -1.33333 0 1549.6)"/><g clip-path="url(#cc)" transform="matrix(1.33333 0 0 -1.33333 0 1549.6)"><path d="M436.673 804.59l77.369 18.786-1-35.124-76.369-18.787z" fill="#631223"/><path d="M639.226 769.465H436.673v35.124h202.553z" fill="#e9344e"/></g><path d="M614.393 695.01l-52.563-35.114 113.39 1.109-12.159 17.288 11.246 17.825z" fill="url(#cd)" transform="matrix(1.33333 0 0 -1.33333 0 1549.6)"/><g clip-path="url(#ce)" transform="matrix(1.33333 0 0 -1.33333 0 1549.6)"><path d="M639.136 678.683l-77.369-18.787 1 35.124 76.37 18.787z" fill="#631223"/></g><path d="M400.679 712.614l12.159-17.288-11.247-17.826 59.915 1.109 52.562 35.113z" fill="url(#cf)" transform="matrix(1.33333 0 0 -1.33333 0 1549.6)"/><g clip-path="url(#cg)" transform="matrix(1.33333 0 0 -1.33333 0 1549.6)"><path d="M436.762 694.936l77.37 18.787-1-35.124-76.37-18.787z" fill="#631223"/><path d="M639.315 678.812l-202.553-19v35.124l202.553 19z" fill="#e9344e"/></g><path d="M611.36 611.575l-44.599-44.798 110.941 23.469-15.333 14.548 7.507 19.694z" fill="url(#ch)" transform="matrix(1.33333 0 0 -1.33333 0 1549.6)"/><g clip-path="url(#ci)" transform="matrix(1.33333 0 0 -1.33333 0 1549.6)"><path d="M638.839 600.454l-72.14-33.69-5.951 34.63 71.158 33.493z" fill="#631223"/></g><path d="M398.375 586.649l15.332-14.548-7.506-19.695 58.516 12.914 44.598 44.797z" fill="url(#cj)" transform="matrix(1.33333 0 0 -1.33333 0 1549.6)"/><g clip-path="url(#ck)" transform="matrix(1.33333 0 0 -1.33333 0 1549.6)"><path d="M437.238 576.441l72.14 33.69 5.951-34.63-71.158-33.493z" fill="#631223"/><path d="M638.988 600.615l-194.817-58.607-6.933 34.433 194.817 58.607z" fill="#e9344e"/></g><path d="M608.513 506.297l26.942-37.274c48.724 17.806 68.601 37.447 68.601 37.447l-27.994 7.082 3.105 25.193s-30.176-17.815-70.654-32.448" fill="url(#cl)" transform="matrix(1.33333 0 0 -1.33333 0 1549.6)"/><g clip-path="url(#cm)" transform="matrix(1.33333 0 0 -1.33333 0 1549.6)"><path d="M616.439 448.811l-7.926 57.485c23.231-1.399 41.702.973 41.702.973l16.009-35.982s-32.099-16.75-49.785-22.476" fill="#631223"/></g><path d="M403.785 514.876l-27.994-7.083s19.877-19.64 68.601-37.446l26.942 37.274c-40.478 14.633-70.654 32.447-70.654 32.447z" fill="url(#cn)" transform="matrix(1.33333 0 0 -1.33333 0 1549.6)"/><g clip-path="url(#co)" transform="matrix(1.33333 0 0 -1.33333 0 1549.6)"><path d="M463.408 450.135l7.926 57.485c-23.23-1.399-41.702.973-41.702.973l-16.009-35.982s32.1-16.75 49.785-22.476" fill="#631223"/><path d="M413.623 472.612s38.295-32.117 127.366-32.117c89.07 0 127.367 32.117 127.367 32.117l-18.015 34.682s-55.797-25.071-109.352-24.685c-55.426.4-111.357 25.985-111.357 25.985z" fill="#e9344e"/></g><path d="M631.75 416.891c-18.122-6.547-38.215-11.806-54.592-17.728l35.355-36.213c56.306 11.708 93.187 41.388 93.187 41.388l-26.994 6.081 2.106 26.193s-22.396-10.088-49.062-19.721" fill="url(#cp)" transform="matrix(1.33333 0 0 -1.33333 0 1549.6)"/><g clip-path="url(#cq)" transform="matrix(1.33333 0 0 -1.33333 0 1549.6)"><path d="M593.607 341.281l-16.45 57.882c23.231-1.399 74.613 5.923 74.613 5.923l16.098-35.932s-56.575-22.148-74.26-27.873" fill="#631223"/></g><path d="M404.215 411.669l-26.994-6.082s36.882-29.679 93.187-41.387l35.355 36.214c-16.376 5.921-36.47 11.18-54.591 17.727-26.666 9.634-49.063 19.721-49.063 19.721z" fill="url(#cr)" transform="matrix(1.33333 0 0 -1.33333 0 1549.6)"/><g clip-path="url(#cs)" transform="matrix(1.33333 0 0 -1.33333 0 1549.6)"><path d="M489.314 342.531l16.45 57.882c-23.231-1.399-74.702 5.973-74.702 5.973l-16.01-35.982s56.576-22.148 74.262-27.873" fill="#631223"/><path d="M415.053 370.405s38.295-32.117 127.366-32.117c89.07 0 127.367 32.117 127.367 32.117l-18.015 34.682s-55.796-24.834-109.352-24.685c-63.101.177-111.357 25.985-111.357 25.985z" fill="#e9344e"/></g><path d="M423.887 195.038l-9.748-18.688 48.42-4.395 49.508 39.304-101.717.011z" fill="url(#ct)" transform="matrix(1.33333 0 0 -1.33333 0 1549.6)"/><g clip-path="url(#cu)" transform="matrix(1.33333 0 0 -1.33333 0 1549.6)"><path d="M436.56 186.198l75.57 25.066 1.882-35.088-74.572-24.983z" fill="#631223"/></g><path d="M564.08 161.528l98.511-1.747-13.535 16.232 9.748 18.688-45.215 6.131z" fill="url(#cv)" transform="matrix(1.33333 0 0 -1.33333 0 1549.6)"/><g clip-path="url(#cw)" transform="matrix(1.33333 0 0 -1.33333 0 1549.6)"><path d="M639.586 186.59l-75.569-25.067-1.882 35.088 74.572 24.983z" fill="#631223"/><path d="M436.394 186.055l200.313 35.54 2.88-35.006-200.314-35.539zM659.997 82.25H411.515l13.587 22.971-13.587 22.973h248.482l-10.191-23.797z" fill="#e9344e"/><path d="M636.55 89.869H434.96l-11.59 15.353 11.59 15.353h201.59l11.592-15.904z" fill="none" stroke="#fbfcfc" stroke-width="2" stroke-miterlimit="10"/><path d="M659.997 24.07H411.515l13.587 22.971-13.587 22.973h248.482l-10.191-23.797z" fill="#e9344e"/><path d="M636.55 31.689H434.96l9.41 15.353-9.41 15.353h201.59l-6.408-15.904z" fill="none" stroke="#fbfcfc" stroke-width="2" stroke-miterlimit="10"/><path d="M960.103 473.833l-218.98-58.181v49.252l218.98 58.18zm9.097-94.866L785.066 330.47l.41 46.47L969.2 428.22z" fill="#631223"/><path d="M939.507 352.72l-154.032 24.22-.68-47.52 154.712-24.329-13 26.744zM805.39 500.154l154.712-26.322v49.623L805.39 547.784l13-26.744zm-64.266-84.704l228.077-36.483v49.251l-228.077 36.484z" fill="#e9344e"/><path d="M1115.798 751.084l109.531-42.108v49.252l-109.53 40.485 9.987-26.744zm-32.957-78.122l180.733-20.692v49.25l-180.733 20.694zm-38.245-78.873l267.854 4.082v49.252l-267.854-4.082zm-48.876-80.043l316.73 15.554v49.251l-316.73-15.553zm0-68.571l271.447 5.168v49.25l-271.446-5.166zm52.468-53.013l190.261-19.055v49.252l-190.26 19.055zm157.304-47.979l-109.53 42.108v-49.252l109.53-40.485-9.988 26.744z" fill="#631223"/><path d="M1225.329 708.976l-142.488-36.014v49.251l142.488 36.015zm38.245-56.706l-218.979-58.181v49.252l218.98 58.18zm48.876-54.099l-316.73-84.125v49.252l316.73 84.125zm0-68.571l-316.73-84.125v49.252l316.73 84.125zm-45.283-78.957l-218.98-58.181v49.252l218.98 58.18zm-28.717-77.236l-142.489-36.014v49.251l142.488 36.015z" fill="#e9344e"/><path d="M1387.498 776.543h-59.642v51.312h59.642z" fill="#631223"/><path d="M1328.52 672.206l-8.587 24.77-26.92 1.082 94.506 129.796 25.923-39.016z" fill="#d32f4f"/><path d="M1386.855 672.206l8.587 24.77 26.92 1.082-94.506 129.796-25.923-39.016z" fill="#e9344e"/><path d="M1706.304 842.242l-234.65-69.333v45.17l234.65 69.333zm29.434-68.959l-230.344-67.694v45.17l230.344 67.694z" fill="#631223"/><path d="M1706.304 842.242h-188.339l11 22.585-11 22.585h188.34zM1505.023 750.6h190.339l-11-22.585 11-22.585h-190.34zm-34 67.853h264.339v-45.17h-264.339zm-502.045-468.25l54.407 4.94v-45.212l-54.407-4.94 13.591 22.606z" fill="#e9344e"/><path d="M1007.419 335.604l15.966 19.54v-48.563l-15.966-16.189z" fill="#61131d"/><path d="M1071.034 297.135l-63.615-6.744v45.213l63.615 6.743 16.518-19.58z" fill="#e9344e"/><path d="M1860.5 969.24l-35.707 74.382c-1.626 3.387.715 7.921 5.203 10.076l24.452 11.738c4.488 2.155 9.49 1.146 11.117-2.242l35.707-74.381-25.176.19z" fill="#d32f4f"/><path d="M1784.749 966.178l37.167 102.786c1.692 4.682 6.908 7.127 11.59 5.435l25.507-9.224c4.682-1.693 7.127-6.908 5.434-11.59L1827.28 950.8 1811 972.276zm236.753 7.244l-31.56 65.744c-1.438 2.995.631 7.003 4.598 8.907l21.613 10.375c3.967 1.905 8.388 1.013 9.826-1.982l31.56-65.744-22.252.168z" fill="#d32f4f"/><path d="M1973.25 970.853l31.561 65.744c1.437 2.995-.632 7.003-4.599 8.907l-21.613 10.375c-3.967 1.905-8.388 1.013-9.826-1.982l-31.56-65.744 22.252.168z" fill="#d32f4f"/><path d="M1989.071 1120.547c-2.539 1.245-6.766.476-8.702-1.582l-.906-.964a26.757 26.757 0 00-2.63-2.416 26.593 26.593 0 00-3.574.155l-1.31.155c-2.805.327-6.534-1.806-7.67-4.386l-.536-1.221a24.125 24.125 0 00-.982-1.964 24.757 24.757 0 00-2.163-.488l-1.3-.224c-2.782-.486-5.749-3.593-6.102-6.39l-.166-1.323a26.616 26.616 0 00-.705-3.497 26.595 26.595 0 00-2.99-1.976l-1.158-.65c-1.87-1.047-3.424-3.618-3.698-6.12a6.046 6.046 0 01.077-1.923l.283-1.302c.15-.685.268-1.418.363-2.18a24.952 24.952 0 00-1.464-1.662l-.925-.952c-1.494-1.538-2.25-4.444-1.8-6.92a6.018 6.018 0 01.621-1.822l.642-1.167a26.26 26.26 0 001.488-3.252 26.257 26.257 0 00-1.252-3.35l-.558-1.21a5.997 5.997 0 01-.49-1.862c-.273-2.498.69-5.347 2.29-6.773l.994-.884a24.879 24.879 0 001.574-1.551 24.224 24.224 0 00-.207-2.203l-.189-1.318a5.988 5.988 0 01.061-1.926c.45-2.472 2.183-4.93 4.123-5.84l1.206-.564a26.68 26.68 0 003.118-1.757 26.7 26.7 0 00.953-3.441l.261-1.302c.551-2.771 3.731-5.66 6.541-5.941l1.317-.135c.706-.072 1.44-.188 2.188-.332.411-.634.791-1.266 1.12-1.89l.62-1.173c1.32-2.5 5.19-4.362 7.964-3.831l1.3.245a26.79 26.79 0 003.55.409 26.722 26.722 0 002.795-2.221l.971-.895c2.08-1.917 6.351-2.381 8.794-.962l1.142.665c.611.356 1.27.692 1.956 1.014.708-.272 1.39-.56 2.025-.872l1.185-.581c2.54-1.245 6.767-.473 8.704 1.583l.905.964c.771.82 1.661 1.629 2.63 2.414a26.578 26.578 0 003.571-.155l1.315-.152c2.805-.331 6.531 1.802 7.668 4.387l.535 1.219c.284.645.617 1.3.981 1.962.737.197 1.462.365 2.163.487l1.303.229c2.783.482 5.748 3.588 6.101 6.39l.166 1.32c.14 1.117.384 2.294.705 3.497a26.554 26.554 0 002.987 1.975l1.161.65c1.87 1.047 3.425 3.62 3.697 6.119.077.698.05 1.344-.076 1.923l-.285 1.305a24.386 24.386 0 00-.36 2.179c.478.59.965 1.15 1.46 1.66l.928.955c1.494 1.535 2.251 4.446 1.801 6.918a6.016 6.016 0 01-.622 1.822l-.644 1.168a26.182 26.182 0 00-1.486 3.252 26.187 26.187 0 001.253 3.354l.56 1.205c.246.543.411 1.167.487 1.862.273 2.5-.689 5.347-2.288 6.772l-.992.887c-.53.473-1.057.997-1.578 1.553.04.768.105 1.508.206 2.204l.192 1.315a6.063 6.063 0 01-.063 1.924c-.45 2.474-2.184 4.929-4.122 5.84l-1.204.566a26.722 26.722 0 00-3.12 1.758 26.582 26.582 0 00-.953 3.436l-.262 1.303c-.55 2.772-3.729 5.659-6.54 5.944l-1.316.133c-.707.072-1.44.187-2.189.332a24.54 24.54 0 00-1.119 1.888l-.622 1.175c-1.319 2.499-5.188 4.36-7.962 3.833l-1.3-.247a26.647 26.647 0 00-3.55-.408 26.523 26.523 0 00-2.797 2.222l-.97.895c-2.08 1.917-6.352 2.383-8.793.962l-1.144-.665a24.526 24.526 0 00-1.957-1.014c-.708.272-1.389.56-2.024.872z" fill="#e9344e"/><path d="M2036.358 1073.16c0-.677-.548-1.225-1.227-1.22a1.227 1.227 0 00.008 2.452 1.226 1.226 0 001.219-1.232m-1.006 4.946a1.224 1.224 0 00-1.23-1.222 1.228 1.228 0 00-1.222 1.233 1.227 1.227 0 002.452-.011m-1.585 4.71a1.223 1.223 0 10-2.448.008 1.226 1.226 0 001.227 1.222 1.227 1.227 0 001.221-1.23m-2.117 4.432a1.223 1.223 0 00-1.228-1.219 1.226 1.226 0 101.229 1.219m-2.616 4.123a1.225 1.225 0 10-2.453.007 1.225 1.225 0 002.453-.006m-3.075 3.768a1.23 1.23 0 00-1.232-1.223 1.227 1.227 0 00.011 2.453 1.225 1.225 0 001.221-1.23m-3.494 3.378a1.227 1.227 0 00-2.451.01 1.228 1.228 0 001.23 1.22 1.221 1.221 0 001.22-1.23m-3.875 2.948a1.226 1.226 0 10-2.451.008 1.226 1.226 0 002.452-.008m-4.219 2.478a1.225 1.225 0 10-2.452.006 1.225 1.225 0 002.452-.006m-4.52 1.97c0-.678-.553-1.225-1.23-1.222a1.23 1.23 0 00-1.221 1.229 1.228 1.228 0 001.23 1.222 1.22 1.22 0 001.22-1.23m-4.782 1.425a1.226 1.226 0 00-1.23-1.223 1.22 1.22 0 00-1.218 1.23 1.224 1.224 0 002.448-.007m-4.917.82a1.224 1.224 0 00-1.23-1.22 1.222 1.222 0 00-1.22 1.23 1.224 1.224 0 102.45-.01m-4.984.227a1.224 1.224 0 10-2.45.008 1.224 1.224 0 102.45-.008m-5.096-.392a1.227 1.227 0 00-2.451.008 1.225 1.225 0 002.452-.008m-4.905-.993a1.222 1.222 0 00-1.23-1.223 1.228 1.228 0 00-1.221 1.231 1.226 1.226 0 002.45-.008m-4.672-1.562a1.22 1.22 0 00-1.229-1.219 1.225 1.225 0 101.229 1.219m-4.405-2.088c0-.672-.55-1.222-1.228-1.218a1.225 1.225 0 101.228 1.219m-4.097-2.575a1.229 1.229 0 00-1.23-1.225 1.227 1.227 0 00.011 2.453 1.226 1.226 0 001.219-1.228m-3.753-3.032a1.226 1.226 0 00-1.227-1.222 1.227 1.227 0 101.227 1.222m-3.37-3.443a1.224 1.224 0 00-1.227-1.222 1.228 1.228 0 00-1.225 1.229 1.228 1.228 0 001.233 1.221 1.222 1.222 0 001.22-1.228m-2.949-3.823a1.224 1.224 0 10-2.451.008 1.226 1.226 0 102.45-.008m-2.489-4.158a1.231 1.231 0 00-1.232-1.222 1.23 1.23 0 00-1.22 1.232 1.222 1.222 0 001.23 1.22c.677 0 1.223-.553 1.222-1.23m-1.994-4.46a1.225 1.225 0 10-2.451.009 1.225 1.225 0 002.451-.01m-1.459-4.721c0-.677-.55-1.225-1.226-1.222a1.23 1.23 0 00-1.224 1.23 1.227 1.227 0 001.232 1.22 1.22 1.22 0 001.218-1.228m-.883-4.95a1.225 1.225 0 10-2.448.01 1.224 1.224 0 102.448-.01m-.275-5.134a1.226 1.226 0 10-2.45.01c.003.676.554 1.22 1.232 1.217.678 0 1.222-.55 1.218-1.227m.362-5.106a1.224 1.224 0 10-2.45.008 1.224 1.224 0 102.45-.008m.965-4.91a1.227 1.227 0 00-1.228-1.225 1.228 1.228 0 00-1.223 1.232 1.222 1.222 0 001.23 1.218 1.22 1.22 0 001.22-1.225m1.535-4.688a1.225 1.225 0 10-2.449.011 1.225 1.225 0 002.45-.011m2.061-4.418a1.224 1.224 0 10-2.45.008 1.226 1.226 0 001.23 1.222 1.226 1.226 0 001.22-1.23m2.556-4.114a1.23 1.23 0 00-1.231-1.222 1.23 1.23 0 00-1.223 1.23 1.22 1.22 0 001.231 1.219c.677 0 1.223-.548 1.223-1.227m3.005-3.774a1.222 1.222 0 00-1.229-1.219 1.226 1.226 0 00.008 2.451 1.226 1.226 0 001.221-1.232m3.426-3.389a1.225 1.225 0 10-2.45.009 1.225 1.225 0 002.45-.009m3.805-2.969a1.229 1.229 0 00-1.231-1.221 1.224 1.224 0 10.008 2.45 1.226 1.226 0 001.223-1.23m4.142-2.512a1.224 1.224 0 10-1.221 1.228 1.223 1.223 0 001.221-1.228m4.447-2.019a1.226 1.226 0 10-2.449.005 1.226 1.226 0 002.449-.005m4.711-1.484a1.226 1.226 0 10-2.452.009 1.226 1.226 0 002.452-.009m4.937-.913a1.225 1.225 0 10-2.45.01 1.225 1.225 0 002.45-.01m5.129-.306a1.228 1.228 0 00-1.232-1.221 1.227 1.227 0 00-1.218 1.231 1.22 1.22 0 001.228 1.217 1.223 1.223 0 001.222-1.227m5.113.328a1.224 1.224 0 00-1.23-1.22 1.227 1.227 0 00-1.221 1.23c0 .677.554 1.224 1.229 1.22a1.222 1.222 0 001.222-1.23m4.922.938a1.225 1.225 0 10-1.219 1.229 1.22 1.22 0 001.22-1.23m4.698 1.505a1.226 1.226 0 10-2.45.013 1.226 1.226 0 002.45-.013m4.43 2.041a1.22 1.22 0 00-1.228-1.222 1.225 1.225 0 101.228 1.222m4.132 2.531a1.226 1.226 0 00-2.452.007 1.226 1.226 0 002.452-.007m3.79 2.987a1.226 1.226 0 10-2.451.005 1.226 1.226 0 002.451-.005m3.411 3.406a1.232 1.232 0 00-1.233-1.225 1.227 1.227 0 00-1.219 1.232 1.226 1.226 0 002.452-.007m2.99 3.784a1.226 1.226 0 10-2.45.008 1.226 1.226 0 002.45-.008m2.537 4.127a1.225 1.225 0 10-2.45.01 1.227 1.227 0 001.23 1.222 1.23 1.23 0 001.22-1.232m2.043 4.431a1.223 1.223 0 10-2.447.011 1.224 1.224 0 102.447-.011m1.514 4.7a1.224 1.224 0 10-2.45.008c0 .68.55 1.224 1.228 1.22a1.224 1.224 0 001.222-1.228m.941 4.927a1.225 1.225 0 10-2.45.008 1.225 1.225 0 002.45-.008m.336 5.12a1.225 1.225 0 10-2.45.008 1.225 1.225 0 002.45-.008" fill="#fff"/><path d="M1856.652 1015.277c-.735 0-1.405.101-2 .298l-1.324.446c-3.084 1.034-7.085 1.601-11.264 1.601-4.18 0-8.178-.567-11.261-1.599l-1.33-.446c-.59-.199-1.263-.3-2-.3-2.64 0-5.507 1.33-6.814 3.164l-.812 1.14c-3.925 5.508-11.754 11.201-18.212 13.238l-1.334.42c-2.83.892-5.484 4.542-5.458 7.51l.009 1.39c.054 6.768-2.936 15.972-6.956 21.415l-.826 1.116c-1.761 2.391-1.763 6.907.003 9.297l.823 1.116c4.02 5.443 7.01 14.647 6.956 21.413l-.009 1.39c-.026 2.97 2.628 6.62 5.46 7.512l1.33.421c6.458 2.037 14.287 7.73 18.216 13.237l.81 1.14c1.307 1.834 4.174 3.164 6.814 3.164.737 0 1.41-.1 2.003-.299l1.327-.445c3.083-1.034 7.081-1.603 11.261-1.603 4.179 0 8.18.57 11.26 1.603l1.328.445a6.335 6.335 0 002 .3c2.645 0 5.507-1.33 6.816-3.165l.81-1.136c3.928-5.514 11.758-11.204 18.214-13.24l1.337-.422c2.825-.892 5.479-4.543 5.457-7.512l-.013-1.385c-.053-6.773 2.94-15.977 6.958-21.418l.826-1.118c1.763-2.388 1.763-6.904-.002-9.295l-.824-1.116c-4.018-5.44-7.011-14.647-6.958-21.415l.011-1.39c.024-2.968-2.63-6.618-5.462-7.51l-1.332-.423c-6.454-2.034-14.284-7.727-18.212-13.239l-.812-1.138c-1.307-1.832-4.172-3.162-6.814-3.162" fill="#e9344e"/><path d="M1858.402 1016.472c-.168 0-.248.017-.25.017l-1.347.455c-3.839 1.287-8.719 1.994-13.741 1.994-5.025 0-9.903-.707-13.737-1.992l-1.388-.463c-.016 0-.093-.01-.216-.01-1.015 0-2.071.568-2.33.857l-.826 1.162c-4.867 6.83-14.209 13.62-22.212 16.147l-1.406.442c-.551.245-1.5 1.549-1.564 2.198l.015 1.418c.064 8.385-3.501 19.363-8.482 26.108l-.869 1.175c-.306.528-.306 2.148.024 2.715l.843 1.134c4.983 6.749 8.548 17.729 8.484 26.112l-.013 1.457c.062.61 1.011 1.914 1.608 2.175l1.356.424c8.005 2.529 17.347 9.319 22.218 16.149l.856 1.2c.227.253 1.283.818 2.298.818.17 0 .252-.017.252-.017l1.349-.455c3.837-1.285 8.715-1.994 13.74-1.994 5.022 0 9.902.709 13.737 1.994 0 0 1.381.464 1.388.464.015 0 .09.008.213.008 1.018 0 2.074-.567 2.332-.858l.822-1.155c4.873-6.833 14.213-13.625 22.216-16.151l1.41-.444c.548-.246 1.496-1.552 1.559-2.2l-.014-1.41c-.064-8.39 3.503-19.37 8.482-26.115l.869-1.174c.306-.53.306-2.147-.024-2.712l-.842-1.138c-4.982-6.745-8.549-17.725-8.485-26.108l.011-1.465c-.06-.606-1.008-1.908-1.608-2.17l-1.364-.428c-7.997-2.524-17.339-9.313-22.208-16.15l-.854-1.195c-.23-.252-1.287-.82-2.302-.82" fill="#e9344e"/><path d="M1856.857 1020.281c-.162 0-.24.017-.241.017l-1.3.438c-3.702 1.241-8.408 1.923-13.252 1.923-4.846 0-9.55-.682-13.248-1.92l-1.34-.448c-.014 0-.088-.008-.207-.008-.98 0-1.998.547-2.247.826l-.796 1.12c-4.694 6.588-13.704 13.136-21.422 15.572l-1.356.427c-.532.236-1.447 1.494-1.51 2.12l.016 1.368c.062 8.086-3.376 18.674-8.18 25.178l-.838 1.133c-.295.51-.295 2.073.023 2.62l.812 1.093c4.807 6.51 8.245 17.098 8.183 25.183l-.013 1.405c.06.588.975 1.846 1.55 2.097l1.309.41c7.72 2.44 16.73 8.987 21.428 15.574l.825 1.16c.218.242 1.237.786 2.216.786.165 0 .244-.016.244-.016l1.3-.439c3.7-1.239 8.405-1.923 13.25-1.923 4.845 0 9.55.684 13.249 1.923 0 0 1.333.447 1.339.447.015 0 .088.008.206.008.98 0 2-.546 2.249-.827l.792-1.114c4.7-6.59 13.708-13.14 21.427-15.577l1.359-.428c.528-.237 1.443-1.497 1.503-2.12l-.012-1.36c-.063-8.093 3.378-18.682 8.18-25.187l.838-1.133c.295-.509.295-2.07-.023-2.615l-.813-1.098c-4.804-6.504-8.245-17.094-8.182-25.178l.01-1.414c-.058-.584-.973-1.84-1.551-2.09l-1.316-.415c-7.712-2.434-16.721-8.982-21.418-15.574l-.823-1.154c-.222-.243-1.241-.79-2.22-.79" fill="#e9344e"/><path d="M1856.857 1020.281c-.162 0-.24.017-.241.017l-1.3.438c-3.702 1.241-8.408 1.923-13.252 1.923-4.846 0-9.55-.682-13.248-1.92l-1.34-.448c-.014 0-.088-.008-.207-.008-.98 0-1.998.547-2.247.826l-.796 1.12c-4.694 6.588-13.704 13.136-21.422 15.572l-1.356.427c-.532.236-1.447 1.494-1.51 2.12l.016 1.368c.062 8.086-3.376 18.674-8.18 25.178l-.838 1.133c-.295.51-.295 2.073.023 2.62l.812 1.093c4.807 6.51 8.245 17.098 8.183 25.183l-.013 1.405c.06.588.975 1.846 1.55 2.097l1.309.41c7.72 2.44 16.73 8.987 21.428 15.574l.825 1.16c.218.242 1.237.786 2.216.786.165 0 .244-.016.244-.016l1.3-.439c3.7-1.239 8.405-1.923 13.25-1.923 4.845 0 9.55.684 13.249 1.923 0 0 1.333.447 1.339.447.015 0 .088.008.206.008.98 0 2-.546 2.249-.827l.792-1.114c4.7-6.59 13.708-13.14 21.427-15.577l1.359-.428c.528-.237 1.443-1.497 1.503-2.12l-.012-1.36c-.063-8.093 3.378-18.682 8.18-25.187l.838-1.133c.295-.509.295-2.07-.023-2.615l-.813-1.098c-4.804-6.504-8.245-17.094-8.182-25.178l.01-1.414c-.058-.584-.973-1.84-1.551-2.09l-1.316-.415c-7.712-2.434-16.721-8.982-21.418-15.574l-.823-1.154c-.222-.243-1.241-.79-2.22-.79z" fill="none" stroke="#fff" stroke-miterlimit="10"/><path d="M1537.151 43.763h504.242v218.166h-504.242z" fill="#fff"/><path d="M1947.602 262.448h-42.577v11.763h42.577zm94.378-94.673h11.763v-42.579h-11.763z" fill="#61131d"/><path d="M2053.742 194.43l-79.484 79.781h-69.233l148.717-149.016z" fill="#e9344e"/><path d="M1689.983 262.448v2.954a9.683 9.683 0 01-9.683 9.684h-15.98a9.682 9.682 0 01-9.683-9.684v-2.954z" fill="#61131d"/><path d="M1723.859 275.104h-61.055c23.257 0-10.688-76.813 14.805-86.982l65.748-.472c-26.447 3.248 6.49 87.454-19.498 87.454m40.811 1.151v-84.029l22.504-10.49 24.81 10.49v84.03zm125.878 0V150.568l-23.473 15.967-25.877-15.967v125.687z" fill="#e9344e"/><path d="M1824.667 262.448h16.53v13.807zm-76.527 0h16.531v13.807z" fill="#61131d"/><path d="M1621.039 128.012c0-2.779 3.968-5.036 3.968-5.036s3.972 2.257 3.972 5.036v.006h3.502v-.006c0-2.36 2.854-4.337 3.718-4.882v152.541h-45.515l-.004-152.695s3.968 2.257 3.968 5.036v.006h3.503v-.006c0-2.779 3.97-5.036 3.97-5.036s3.97 2.257 3.97 5.036v.006h3.503v-.006c0-2.779 3.973-5.036 3.973-5.036s3.969 2.257 3.969 5.036v.006h3.503z" fill="#e9344e"/><path d="M1574.15 261.864h16.53v13.807z" fill="#61131d"/><path d="M1649.962 20.078c4.94 0 8.947 5.29 8.947 11.813v13.66h-17.894v-13.66c0-6.524 4.006-11.813 8.947-11.813" fill="#631223"/><path d="M1692.574 20.078s9.278-2.52 9.278 25.473v55.241l-21.57 23.938-22.17-23.938V43.703c0-22.7-8.746-23.625-8.746-23.625z" fill="#e9344e"/><path d="M1731.787 19.701c5.133 0 9.294 5.494 9.294 12.272v14.191h-18.588v-14.19c0-6.779 4.161-12.273 9.294-12.273" fill="#631223"/><path d="M1776.055 19.701s9.638-2.619 9.638 26.463v69.366c0 5-4.09 9.088-9.087 9.088h-27.263c-4.998 0-9.088-4.089-9.088-9.088V44.244c0-23.583-9.087-24.543-9.087-24.543z" fill="#e9344e"/><path d="M1812.255 19.701c5.133 0 9.294 5.494 9.294 12.272v14.191h-18.587v-14.19c0-6.779 4.16-12.273 9.294-12.273" fill="#631223"/><path d="M1856.523 19.701s9.638-2.619 9.638 26.463v75.562l-22.719-17.349-22.719 17.35V44.243c0-23.583-9.087-24.543-9.087-24.543z" fill="#e9344e"/></g><path d="M1051.902 795.098V761.99h40.423l-12.277 16.553 12.277 16.555z" fill="url(#cx)" transform="matrix(1.33333 0 0 -1.33333 0 1549.6)"/><path d="M946.445 795.098l12.277-16.555-12.277-16.553h40.423v33.108z" fill="url(#cy)" transform="matrix(1.33333 0 0 -1.33333 0 1549.6)"/><g clip-path="url(#cz)" transform="matrix(1.33333 0 0 -1.33333 0 1549.6)"><path d="M984.597 811.698c18.31 18.31 47.998 18.31 66.309 0 18.31-18.311 18.31-47.998 0-66.31-18.311-18.31-47.998-18.31-66.31 0-18.31 18.312-18.31 47.999 0 66.31" fill="#e9344e"/><path d="M989.884 806.41c15.391 15.392 40.344 15.392 55.735 0 15.391-15.39 15.391-40.343 0-55.734-15.391-15.391-40.344-15.391-55.735 0-15.391 15.39-15.391 40.344 0 55.735m33.272-97.874l4.94-54.407h-45.212l-4.94 54.407 22.606-13.591z" fill="#e9344e"/><path d="M1008.557 670.096l19.54-15.966h-48.563l-16.19 15.966z" fill="#61131d"/><path d="M955.088 606.48l8.256 63.615h45.213l-8.257-63.615-24.58-28.518z" fill="#e9344e"/></g></svg>