<?xml version="1.0" encoding="UTF-8" standalone="no"?>
<!-- Created with Inkscape (http://www.inkscape.org/) -->

<svg
   xmlns:dc="http://purl.org/dc/elements/1.1/"
   xmlns:cc="http://creativecommons.org/ns#"
   xmlns:rdf="http://www.w3.org/1999/02/22-rdf-syntax-ns#"
   xmlns:svg="http://www.w3.org/2000/svg"
   xmlns="http://www.w3.org/2000/svg"
   xmlns:sodipodi="http://sodipodi.sourceforge.net/DTD/sodipodi-0.dtd"
   xmlns:inkscape="http://www.inkscape.org/namespaces/inkscape"
   width="100"
   height="100"
   viewBox="0 0 26.458333 26.458334"
   version="1.1"
   id="svg7231"
   inkscape:version="0.92.4 (5da689c313, 2019-01-14)"
   sodipodi:docname="advantages-icon-3.svg">
  <defs
     id="defs7225" />
  <sodipodi:namedview
     id="base"
     pagecolor="#ffffff"
     bordercolor="#666666"
     borderopacity="1.0"
     inkscape:pageopacity="0.0"
     inkscape:pageshadow="2"
     inkscape:zoom="0.98994949"
     inkscape:cx="-113.34057"
     inkscape:cy="56.648714"
     inkscape:document-units="mm"
     inkscape:current-layer="layer1"
     showgrid="false"
     units="px"
     inkscape:window-width="1366"
     inkscape:window-height="705"
     inkscape:window-x="-8"
     inkscape:window-y="-8"
     inkscape:window-maximized="1" />
  <metadata
     id="metadata7228">
    <rdf:RDF>
      <cc:Work
         rdf:about="">
        <dc:format>image/svg+xml</dc:format>
        <dc:type
           rdf:resource="http://purl.org/dc/dcmitype/StillImage" />
        <dc:title></dc:title>
      </cc:Work>
    </rdf:RDF>
  </metadata>
  <g
     inkscape:label="Layer 1"
     inkscape:groupmode="layer"
     id="layer1"
     transform="translate(0,-270.54165)">
    <path
       style="fill:#ffbf2f;fill-opacity:1;stroke:none;stroke-width:0.00436465"
       inkscape:connector-curvature="0"
       id="path680"
       d="m 12.161403,271.75836 c -0.07327,0.008 -0.384755,0.0457 -0.687069,0.0832 -0.71455,0.0873 -1.7863821,0.33688 -2.455126,0.56979 -1.5802636,0.5573 -2.9131733,1.34751 -4.1178372,2.44133 -1.9833445,1.80085 -3.3529056,4.2422 -3.8475896,6.86237 -0.20612546,1.09797 -0.23360573,2.46213 -0.0687397,3.45197 0.3801776,2.2833 1.7176732,5.01577 3.5452753,7.25747 l 0.311477,0.37847 -0.3847629,0.37015 c -0.2106951,0.20795 -0.4443008,0.44085 -0.5175868,0.52404 l -0.1328395,0.14556 1.3420809,1.21859 1.3420728,1.21443 1.3695604,-1.36 c 0.7511924,-0.74862 1.4886526,-1.4806 1.6398019,-1.62617 0.1465797,-0.14556 0.2519311,-0.28281 0.2290283,-0.29945 -0.022887,-0.0166 -0.1878001,-0.13308 -0.3618601,-0.26201 -0.4030804,-0.29114 -1.1955012,-1.03144 -1.5711011,-1.45982 -1.1451096,-1.31008 -2.0108239,-2.92794 -2.5055078,-4.6664 -0.2152804,-0.7611 -0.297729,-1.32257 -0.297729,-2.04207 0,-2.00049 0.856544,-3.88036 2.4505475,-5.3776 0.9893753,-0.92746 2.0566222,-1.55547 3.3345796,-1.95473 2.391003,-0.74863 4.814071,-0.43254 7.031013,0.91913 2.464288,1.50557 4.02165,4.37944 3.765141,6.96219 -0.123669,1.27265 -0.567978,2.62433 -1.30543,3.98849 -0.586303,1.08133 -1.186346,1.8965 -1.987922,2.69919 -0.380178,0.38263 -0.993961,0.89835 -1.296275,1.09798 -0.09619,0.0624 -0.169475,0.12477 -0.16032,0.1414 0.0047,0.0125 0.430568,0.43254 0.948163,0.93578 0.522172,0.49908 1.218404,1.177 1.557353,1.50972 0.33438,0.33272 0.632109,0.60722 0.659589,0.61553 0.0275,0.004 0.645849,-0.53235 1.374139,-1.19363 l 1.323756,-1.20196 -0.462627,-0.46165 -0.467203,-0.45748 0.384755,-0.47829 c 1.786381,-2.22091 3.050591,-4.83277 3.449094,-7.11191 0.119092,-0.66128 0.114506,-2.46628 0,-3.1442 -0.732875,-4.26299 -3.513218,-7.80646 -7.379133,-9.39104 -0.957318,-0.39095 -1.928376,-0.65297 -3.082657,-0.82349 -0.425983,-0.0624 -2.620022,-0.1206 -2.968142,-0.0749 z m 1.81387,2.1918 c 0.224443,0.10813 0.407658,0.34935 0.407658,0.54483 0,0.0665 -0.04124,0.20379 -0.09619,0.3036 -0.247346,0.46166 -0.819901,0.55731 -1.200079,0.19964 -0.306891,-0.28698 -0.316054,-0.66544 -0.02289,-0.9233 0.274826,-0.24123 0.581718,-0.28281 0.911512,-0.12477 z m -5.2721194,1.06886 c 0.1648973,0.10398 0.3160544,0.37431 0.3206318,0.55316 0,0.29528 -0.3068916,0.62384 -0.6366862,0.67375 -0.2427606,0.0374 -0.5771323,-0.10398 -0.723712,-0.30777 -0.2427604,-0.33272 -0.041244,-0.85259 0.3985028,-1.01479 0.1419944,-0.0541 0.4946918,0 0.6412636,0.0957 z m 10.5304904,-0.0624 c 0.320632,0.14972 0.508432,0.50324 0.421406,0.79853 -0.06413,0.21211 -0.34812,0.45333 -0.577141,0.49492 -0.348112,0.0583 -0.742037,-0.18299 -0.842803,-0.51155 -0.16032,-0.51572 0.490106,-1.02312 0.998538,-0.7819 z M 4.6860905,279.1531 c 0.1923775,0.0707 0.384755,0.27865 0.4443008,0.47413 0.064131,0.22043 -0.018357,0.44917 -0.224443,0.63633 -0.2885663,0.26202 -0.7145496,0.25785 -1.0077012,-0.008 -0.5496523,-0.49908 0.077879,-1.37247 0.7878434,-1.10214 z m 18.3676625,0 c 0.329795,0.12477 0.535912,0.47413 0.471789,0.79437 -0.05952,0.27866 -0.393918,0.51988 -0.723712,0.51988 -0.1878,0 -0.476366,-0.14557 -0.604621,-0.30361 -0.151157,-0.183 -0.137417,-0.59058 0.0275,-0.78606 0.215281,-0.25785 0.52675,-0.34103 0.829064,-0.22458 z m -19.5540089,5.63546 c 0.3481199,0.21211 0.3389573,0.60721 -0.018357,0.77357 -0.2106951,0.0998 -0.3572748,0.079 -0.5313347,-0.079 -0.1236691,-0.1123 -0.1557268,-0.17468 -0.1557268,-0.30777 0,-0.35767 0.3939178,-0.57394 0.7053869,-0.38678 z m 20.7082899,0.0124 c 0.06874,0.0499 0.155735,0.14972 0.1878,0.22458 0.123669,0.27033 -0.119099,0.5989 -0.439731,0.5989 -0.233598,0 -0.503847,-0.2537 -0.503847,-0.46996 0,-0.0583 0.05499,-0.16637 0.123669,-0.23707 0.206126,-0.22459 0.425984,-0.26202 0.632109,-0.11645 z m -19.4394949,3.71399 c 0.2565008,0.12477 0.2656635,0.39511 0.018357,0.54483 -0.160312,0.0956 -0.3343719,0.0416 -0.4488783,-0.13725 -0.07327,-0.11645 -0.077879,-0.14972 -0.022887,-0.24954 0.032027,-0.0624 0.1099289,-0.13724 0.1740522,-0.16636 0.1419944,-0.0665 0.1145141,-0.0665 0.2794114,0.008 z m 18.0882519,0.0957 c 0.123676,0.14141 0.114514,0.24537 -0.04124,0.38678 -0.164898,0.14557 -0.293152,0.15389 -0.439724,0.0166 -0.146579,-0.12892 -0.151157,-0.31192 -0.0091,-0.42422 0.1878,-0.15804 0.343535,-0.15387 0.490114,0.0208 z m -1.951272,6.25098 -0.824486,0.74862 -0.632109,-0.52403 c -0.343534,-0.29113 -0.61836,-0.54899 -0.609198,-0.5781 0.04124,-0.11645 0.183215,-0.0416 0.673329,0.37015 0.288567,0.23706 0.549653,0.4367 0.572556,0.4367 0.02749,0 0.3756,-0.29945 0.77868,-0.66545 0.650426,-0.59058 0.737453,-0.65712 0.801584,-0.60305 0.05952,0.0583 -0.02289,0.14557 -0.760356,0.81516 z M 8.0939555,294.29601 c 0.00914,0.025 -0.3526971,0.37847 -0.8061682,0.78605 l -0.8153153,0.74031 -0.6137832,-0.5074 c -0.3389572,-0.28281 -0.6137833,-0.54068 -0.6137833,-0.57811 0,-0.14972 0.1648972,-0.0624 0.6641664,0.34936 0.2885663,0.24122 0.5450747,0.43669 0.5725549,0.43669 0.027496,0 0.3664373,-0.29112 0.7557774,-0.64464 0.6504261,-0.59058 0.8107456,-0.70287 0.8565513,-0.58226 z" />
  </g>
</svg>
