<?xml version="1.0" encoding="UTF-8" standalone="no"?>
<!-- Created with Inkscape (http://www.inkscape.org/) -->

<svg
   xmlns:dc="http://purl.org/dc/elements/1.1/"
   xmlns:cc="http://creativecommons.org/ns#"
   xmlns:rdf="http://www.w3.org/1999/02/22-rdf-syntax-ns#"
   xmlns:svg="http://www.w3.org/2000/svg"
   xmlns="http://www.w3.org/2000/svg"
   xmlns:sodipodi="http://sodipodi.sourceforge.net/DTD/sodipodi-0.dtd"
   xmlns:inkscape="http://www.inkscape.org/namespaces/inkscape"
   width="100"
   height="100"
   viewBox="0 0 26.458334 26.458369"
   version="1.1"
   id="svg6659"
   inkscape:version="0.92.4 (5da689c313, 2019-01-14)"
   sodipodi:docname="advantages-icon-2.svg">
  <defs
     id="defs6653" />
  <sodipodi:namedview
     id="base"
     pagecolor="#ffffff"
     bordercolor="#666666"
     borderopacity="1.0"
     inkscape:pageopacity="0.0"
     inkscape:pageshadow="2"
     inkscape:zoom="1.979899"
     inkscape:cx="37.850019"
     inkscape:cy="66.868493"
     inkscape:document-units="mm"
     inkscape:current-layer="layer1"
     showgrid="false"
     units="px"
     inkscape:window-width="1366"
     inkscape:window-height="705"
     inkscape:window-x="-8"
     inkscape:window-y="-8"
     inkscape:window-maximized="1" />
  <metadata
     id="metadata6656">
    <rdf:RDF>
      <cc:Work
         rdf:about="">
        <dc:format>image/svg+xml</dc:format>
        <dc:type
           rdf:resource="http://purl.org/dc/dcmitype/StillImage" />
        <dc:title></dc:title>
      </cc:Work>
    </rdf:RDF>
  </metadata>
  <g
     inkscape:label="Layer 1"
     inkscape:groupmode="layer"
     id="layer1"
     transform="translate(0,-270.5411)">
    <g
       id="g2004"
       transform="matrix(0.85118132,0,0,0.76712678,0.25096464,68.909702)">
      <path
         d="m 10.897755,271.94204 c -0.147058,0.0371 -0.334232,0.12853 -0.454555,0.2359 -0.173802,0.16058 -0.200537,0.22553 -0.200537,0.49829 0,0.23503 0.03343,0.34821 0.140371,0.45522 0.200538,0.20348 0.501348,0.31049 0.862325,0.31049 0.521397,0 0.902423,-0.21387 1.002696,-0.56842 0.120322,-0.43314 -0.180488,-0.82878 -0.701885,-0.93578 -0.327556,-0.065 -0.314183,-0.065 -0.648415,0.006 z"
         id="path654"
         inkscape:connector-curvature="0"
         style="fill:#ffbf2f;fill-opacity:1;stroke:none;stroke-width:0.00598156" />
      <path
         d="m 18.692059,271.93154 c -0.274075,0.0693 -0.608307,0.37544 -0.661779,0.61047 -0.160438,0.66921 0.808837,1.13495 1.624367,0.78672 0.394398,-0.16575 0.541456,-0.72177 0.280752,-1.05949 -0.220586,-0.28946 -0.795472,-0.4447 -1.24334,-0.3377 z"
         id="path656"
         inkscape:connector-curvature="0"
         style="fill:#ffbf2f;fill-opacity:1;stroke:none;stroke-width:0.00598156" />
      <g
         id="g1997">
        <path
           style="fill:#ffbf2f;fill-opacity:1;stroke:none;stroke-width:0.00598156"
           inkscape:connector-curvature="0"
           id="path652"
           d="m 12.067567,264.40625 c -0.648406,0.10175 -1.276763,0.26876 -1.951913,0.51888 -2.0856186,0.77538 -3.923897,2.42456 -4.4854105,4.00854 -0.167116,0.46142 -0.240645,1.37143 -0.147058,1.69285 0.060157,0.214 0.053454,0.22451 -0.1604386,0.36304 -0.1804795,0.11752 -0.2272729,0.18248 -0.2272729,0.34203 -0.00678,0.10714 0.1537439,1.04914 0.3476039,2.09364 0.3542816,1.90065 0.3542816,1.90065 0.5681911,2.07693 l 0.2072235,0.18246 -0.340918,1.58829 c -0.3074881,1.45163 -0.340918,1.65944 -0.334232,2.42066 0,0.8877 0.073563,1.27366 0.3943975,2.02754 0.7754232,1.81411 2.6137028,3.314 4.919907,4.02006 0.581563,0.17715 2.18588,0.52526 2.820923,0.61567 0.762051,0.1008 2.192566,0.1008 2.954617,0 0.715258,-0.10234 2.212616,-0.43852 2.941246,-0.66339 1.524102,-0.47157 3.008088,-1.42405 3.870412,-2.48355 0.929167,-1.15597 1.330242,-2.21607 1.323555,-3.54338 0,-0.65328 -0.04675,-0.95869 -0.347595,-2.37106 l -0.340918,-1.62755 0.193852,-0.14474 c 0.113644,-0.0798 0.21391,-0.20791 0.233968,-0.27895 0.09359,-0.31068 0.708571,-3.71965 0.708571,-3.90092 0,-0.15507 -0.04013,-0.23622 -0.187174,-0.33271 -0.173802,-0.11751 -0.187165,-0.14905 -0.200538,-0.61478 -0.03343,-1.34895 -0.882373,-3.07296 -1.978656,-4.01963 -0.394398,-0.34203 -1.243342,-0.83498 -1.798169,-1.04897 -0.748679,-0.28328 -1.243349,-0.37545 -2.052186,-0.36925 -0.76205,0 -1.243349,0.10081 -1.711276,0.35874 l -0.247331,0.13331 -0.340918,-0.20879 c -0.487976,-0.29377 -1.343614,-0.62585 -1.958598,-0.75519 -0.668464,-0.14474 -1.992029,-0.18081 -2.673865,-0.0798 z m 5.989449,3.73017 c 1.831591,0.76106 2.974667,1.43493 3.663189,2.15239 0.454554,0.47005 1.356986,1.70149 1.356986,1.85241 0,0.0693 -0.133694,0.32533 -0.287447,0.56199 -0.16043,0.23957 -0.795464,1.18155 -1.403771,2.09818 l -1.116342,1.66376 -1.016059,-0.29378 c -3.048204,-0.86804 -5.387828,-0.85168 -8.429347,0.0637 l -0.782108,0.23672 -0.2941254,-0.43982 c -2.0789246,-3.06152 -2.51343,-3.74567 -2.51343,-3.97628 0,-0.20349 0.02002,-0.24122 0.1738014,-0.28326 0.09359,-0.0371 0.387712,-0.16608 0.6484164,-0.29998 0.4812904,-0.25173 0.7219354,-0.40261 2.2527266,-1.40771 1.677846,-1.10773 1.88507,-1.18939 4.411868,-1.76644 0.641728,-0.14472 1.397093,-0.3377 1.671168,-0.42368 0.274067,-0.0903 0.528084,-0.16575 0.561505,-0.16575 0.03343,-0.006 0.528092,0.18758 1.102969,0.42799 z m -11.9855815,3.15917 c 0.1804795,0.0904 0.4411827,0.2505 0.5815627,0.35748 0.2272734,0.17767 0.2473314,0.21972 0.2473314,0.48195 0,0.23503 -0.4411914,2.53647 -0.5748774,3.00221 -0.093587,0.3439 -0.2272812,-0.10081 -0.5681992,-1.90497 -0.347604,-1.84124 -0.347604,-1.88896 -0.2272731,-1.99632 0.06686,-0.0616 0.1403721,-0.10735 0.1671161,-0.10735 0.020024,0 0.1871655,0.075 0.3743395,0.167 z m 18.7838675,0 c 0.06686,0.0904 -0.648406,3.81009 -0.748679,3.89608 -0.08018,0.0693 -0.09359,0.0693 -0.120323,0 -0.09359,-0.22452 -0.574877,-2.76718 -0.574877,-3.03993 0,-0.31668 0,-0.31668 0.347605,-0.56841 0.581563,-0.4175 0.92248,-0.50779 1.096274,-0.28774 z m -10.708806,6.71149 c 0.83558,0.15958 2.005392,0.0754 2.794188,-0.20349 0.287438,-0.10215 0.394389,-0.12371 0.447868,-0.0693 0.09359,0.0903 0.02003,0.15955 -0.314183,0.29377 -1.076224,0.43851 -2.780815,0.42801 -3.883775,-0.0248 -0.35429,-0.13852 -0.387712,-0.18247 -0.267389,-0.27861 0.05346,-0.0494 0.173801,-0.0248 0.441191,0.0702 0.200537,0.0743 0.554819,0.16626 0.7821,0.20843 z" />
        <path
           style="fill:#ffbf2f;fill-opacity:1;stroke:none;stroke-width:0.00598156"
           inkscape:connector-curvature="0"
           id="path676"
           d="m 3.4577353,281.87619 -1.7380117,0.57852 -0.020024,6.72805 -0.013321,6.72804 H 15.155955 28.625526 l -0.0134,-6.72804 -0.02003,-6.72205 -1.67116,-0.55771 c -0.915804,-0.29997 -1.72464,-0.56653 -1.784805,-0.58324 -0.113637,-0.031 -0.120322,0.15123 -0.120322,3.2391 v 3.27027 H 15.155946 5.2960793 v -3.26596 c 0,-1.79797 -0.020024,-3.26443 -0.046751,-3.26443 -0.03343,0.006 -0.8355801,0.26224 -1.7914827,0.57745 z" />
      </g>
    </g>
  </g>
</svg>
