<?xml version="1.0" encoding="UTF-8" standalone="no"?>
<!-- Created with Inkscape (http://www.inkscape.org/) -->

<svg
   xmlns:dc="http://purl.org/dc/elements/1.1/"
   xmlns:cc="http://creativecommons.org/ns#"
   xmlns:rdf="http://www.w3.org/1999/02/22-rdf-syntax-ns#"
   xmlns:svg="http://www.w3.org/2000/svg"
   xmlns="http://www.w3.org/2000/svg"
   xmlns:sodipodi="http://sodipodi.sourceforge.net/DTD/sodipodi-0.dtd"
   xmlns:inkscape="http://www.inkscape.org/namespaces/inkscape"
   width="125"
   height="125"
   viewBox="0 0 33.072916 33.072917"
   version="1.1"
   id="svg7231"
   inkscape:version="0.92.4 (5da689c313, 2019-01-14)"
   sodipodi:docname="advantages-icon-3.svg">
  <defs
     id="defs7225" />
  <sodipodi:namedview
     id="base"
     pagecolor="#ffffff"
     bordercolor="#666666"
     borderopacity="1.0"
     inkscape:pageopacity="0.0"
     inkscape:pageshadow="2"
     inkscape:zoom="0.98994949"
     inkscape:cx="68.486884"
     inkscape:cy="56.648714"
     inkscape:document-units="mm"
     inkscape:current-layer="layer1"
     showgrid="false"
     units="px"
     inkscape:window-width="1366"
     inkscape:window-height="705"
     inkscape:window-x="-8"
     inkscape:window-y="-8"
     inkscape:window-maximized="1" />
  <metadata
     id="metadata7228">
    <rdf:RDF>
      <cc:Work
         rdf:about="">
        <dc:format>image/svg+xml</dc:format>
        <dc:type
           rdf:resource="http://purl.org/dc/dcmitype/StillImage" />
        <dc:title></dc:title>
      </cc:Work>
    </rdf:RDF>
  </metadata>
  <g
     inkscape:label="Layer 1"
     inkscape:groupmode="layer"
     id="layer1"
     transform="translate(0,-263.92707)">
    <path
       style="fill:#ffbf2f;stroke:none;stroke-width:0.00561794;fill-opacity:1"
       inkscape:connector-curvature="0"
       id="path680"
       d="m 15.322925,264.5469 c -0.0938,0.0108 -0.49256,0.0592 -0.87958,0.10765 -0.91476,0.11303 -2.28691,0.43597 -3.14303,0.73738 -2.0230394,0.72123 -3.7294185,1.74387 -5.2716185,3.15942 -2.53906,2.33055 -4.29236,5.48998 -4.92565,8.88084 -0.26387997,1.42093 -0.29905997,3.18634 -0.088,4.46733 0.4867,2.9549 2.19895,6.49109 4.53863,9.39216 l 0.39875,0.48979 -0.49257,0.47903 c -0.26973,0.26911 -0.56879,0.57052 -0.66261,0.67817 l -0.17006,0.18838 1.71812,1.57702 1.7181097,1.57164 1.7532991,-1.76002 c 0.9616697,-0.96882 1.9057597,-1.91611 2.0992597,-2.10449 0.18765,-0.18838 0.32252,-0.366 0.2932,-0.38753 -0.0293,-0.0215 -0.24042,-0.17223 -0.46325,-0.33908 -0.51602,-0.37677 -1.53047,-1.33482 -2.0113097,-1.8892 -1.4659591,-1.69543 -2.5742388,-3.78916 -3.2075288,-6.03897 -0.2756,-0.98496 -0.38115,-1.71158 -0.38115,-2.64272 0,-2.5889 1.09654,-5.02171 3.1371691,-6.95935 1.2665894,-1.20026 2.6328694,-2.01299 4.2688994,-2.52969 3.06094,-0.96882 6.16293,-0.55976 9.00104,1.18949 3.15476,1.94841 5.14848,5.66759 4.8201,9.01002 -0.15832,1.64699 -0.72712,3.39625 -1.6712,5.16165 -0.75058,1.3994 -1.51875,2.45434 -2.54492,3.49313 -0.4867,0.49517 -1.27246,1.16258 -1.65948,1.42093 -0.12314,0.0807 -0.21696,0.16147 -0.20524,0.183 0.006,0.0161 0.55121,0.55976 1.21383,1.21102 0.66848,0.64588 1.55979,1.5232 1.99371,1.95378 0.42807,0.43059 0.80922,0.78583 0.8444,0.79659 0.0352,0.005 0.82681,-0.68894 1.75916,-1.54473 l 1.69466,-1.55549 -0.59225,-0.59744 -0.59811,-0.59205 0.49256,-0.61897 c 2.28691,-2.87416 3.90534,-6.25426 4.4155,-9.20378 0.15246,-0.85579 0.14659,-3.19171 0,-4.06903 -0.93822,-5.51689 -4.49759,-10.10263 -9.4467,-12.15329 -1.22555,-0.50594 -2.46869,-0.84503 -3.94639,-1.06571 -0.54534,-0.0807 -3.35413,-0.15608 -3.79979,-0.0969 z m 2.3221,2.83649 c 0.28733,0.13994 0.52188,0.45211 0.52188,0.70508 0,0.0861 -0.0528,0.26374 -0.12314,0.39291 -0.31665,0.59744 -1.04963,0.72123 -1.53633,0.25835 -0.39288,-0.37138 -0.40461,-0.86117 -0.0293,-1.19487 0.35183,-0.31218 0.74471,-0.366 1.16691,-0.16147 z m -6.74932,1.38325 c 0.2111,0.13456 0.40461,0.48441 0.41047,0.71586 0,0.38214 -0.39288,0.80734 -0.81508,0.87193 -0.31078,0.0484 -0.7388397,-0.13456 -0.9264897,-0.39829 -0.3107797,-0.43059 -0.0528,-1.10338 0.5101597,-1.31329 0.18178,-0.07 0.6333,0 0.82094,0.12379 z m 13.48104,-0.0807 c 0.41047,0.19376 0.65089,0.65126 0.53948,1.03341 -0.0821,0.2745 -0.44566,0.58667 -0.73885,0.64049 -0.44565,0.0754 -0.94995,-0.23682 -1.07895,-0.66202 -0.20524,-0.66741 0.62743,-1.32405 1.27832,-1.01188 z m -18.6236485,5.43077 c 0.24628,0.0915 0.49256,0.36061 0.56879,0.61358 0.0821,0.28527 -0.0235,0.58129 -0.28733,0.8235 -0.36942,0.33909 -0.91476,0.3337 -1.29005,-0.0108 -0.70366,-0.64588 0.0997,-1.77617 1.00859,-1.42632 z m 23.5141185,0 c 0.4222,0.16147 0.68607,0.61358 0.60398,1.02802 -0.0762,0.36062 -0.50429,0.67279 -0.92649,0.67279 -0.24042,0 -0.60984,-0.18838 -0.77403,-0.39291 -0.19351,-0.23682 -0.17592,-0.76429 0.0352,-1.01726 0.2756,-0.3337 0.67434,-0.44135 1.06136,-0.29064 z m -25.0328685,7.29305 c 0.44566,0.2745 0.43393,0.78582 -0.0235,1.00111 -0.26973,0.12917 -0.45738,0.10227 -0.68021,-0.10226 -0.15832,-0.14533 -0.19936,-0.22606 -0.19936,-0.3983 0,-0.46288 0.50429,-0.74276 0.90303,-0.50055 z m 26.5105685,0.0161 c 0.088,0.0646 0.19937,0.19376 0.24042,0.29064 0.15832,0.34985 -0.15247,0.77506 -0.56294,0.77506 -0.29905,0 -0.64502,-0.32832 -0.64502,-0.6082 0,-0.0754 0.0704,-0.2153 0.15832,-0.3068 0.26388,-0.29064 0.54534,-0.33908 0.80922,-0.1507 z m -24.8862685,4.80641 c 0.32837,0.16147 0.3401,0.51133 0.0235,0.70509 -0.20523,0.12379 -0.42806,0.0538 -0.57465,-0.17762 -0.0938,-0.1507 -0.0997,-0.19376 -0.0293,-0.32294 0.041,-0.0807 0.14073,-0.17761 0.22282,-0.21529 0.18178,-0.0861 0.1466,-0.0861 0.3577,0.0108 z m 23.1564185,0.1238 c 0.15833,0.183 0.1466,0.31755 -0.0528,0.50055 -0.2111,0.18838 -0.37529,0.19915 -0.56293,0.0215 -0.18765,-0.16685 -0.19351,-0.40367 -0.0117,-0.549 0.24042,-0.20453 0.43979,-0.19914 0.62744,0.0269 z m -2.498,8.08963 -1.0555,0.96882 -0.80922,-0.67817 c -0.43979,-0.37677 -0.79162,-0.71047 -0.77989,-0.74814 0.0528,-0.15071 0.23455,-0.0538 0.86199,0.47902 0.36942,0.30679 0.70366,0.56515 0.73298,0.56515 0.0352,0 0.48084,-0.38753 0.99686,-0.86118 0.83267,-0.76429 0.94408,-0.8504 1.02618,-0.78043 0.0762,0.0754 -0.0293,0.18838 -0.9734,1.05493 z m -16.40125,-0.73199 c 0.0117,0.0323 -0.4515197,0.48979 -1.0320494,1.01725 l -1.0437594,0.95806 -0.7857597,-0.65664 c -0.43393,-0.366 -0.78576,-0.69971 -0.78576,-0.74815 0,-0.19376 0.2111,-0.0807 0.85026,0.45212 0.36942,0.31217 0.6977997,0.56514 0.7329797,0.56514 0.0352,0 0.4691097,-0.37676 0.9675394,-0.83426 0.8326697,-0.76429 1.0379094,-0.90961 1.0965494,-0.75352 z" />
  </g>
</svg>
