<?xml version="1.0" encoding="UTF-8" standalone="no"?>
<!-- Created with Inkscape (http://www.inkscape.org/) -->

<svg
   xmlns:dc="http://purl.org/dc/elements/1.1/"
   xmlns:cc="http://creativecommons.org/ns#"
   xmlns:rdf="http://www.w3.org/1999/02/22-rdf-syntax-ns#"
   xmlns:svg="http://www.w3.org/2000/svg"
   xmlns="http://www.w3.org/2000/svg"
   xmlns:sodipodi="http://sodipodi.sourceforge.net/DTD/sodipodi-0.dtd"
   xmlns:inkscape="http://www.inkscape.org/namespaces/inkscape"
   width="125"
   height="125"
   viewBox="0 0 33.072916 33.072918"
   version="1.1"
   id="svg7804"
   inkscape:version="0.92.4 (5da689c313, 2019-01-14)"
   sodipodi:docname="advantages-icon-4.svg">
  <defs
     id="defs7798" />
  <sodipodi:namedview
     id="base"
     pagecolor="#ffffff"
     bordercolor="#666666"
     borderopacity="1.0"
     inkscape:pageopacity="0.0"
     inkscape:pageshadow="2"
     inkscape:zoom="1.4"
     inkscape:cx="29.492063"
     inkscape:cy="103.25979"
     inkscape:document-units="mm"
     inkscape:current-layer="layer1"
     showgrid="false"
     units="px"
     inkscape:window-width="1366"
     inkscape:window-height="705"
     inkscape:window-x="-8"
     inkscape:window-y="-8"
     inkscape:window-maximized="1" />
  <metadata
     id="metadata7801">
    <rdf:RDF>
      <cc:Work
         rdf:about="">
        <dc:format>image/svg+xml</dc:format>
        <dc:type
           rdf:resource="http://purl.org/dc/dcmitype/StillImage" />
        <dc:title></dc:title>
      </cc:Work>
    </rdf:RDF>
  </metadata>
  <g
     inkscape:label="Layer 1"
     inkscape:groupmode="layer"
     id="layer1"
     transform="translate(0,-263.92707)">
    <path
       style="fill:#ffbf2f;stroke:none;stroke-width:0.00609982;fill-opacity:1"
       inkscape:connector-curvature="0"
       id="path684"
       d="m 30.438358,265.32142 c -0.0899,0.0969 -0.24891,0.29598 -0.35954,0.44666 -0.33188,0.46279 -0.62227,0.62961 -1.45198,0.85563 -3.27041,0.87716 -5.53827,2.81983 -6.18821,5.30064 -0.13137,0.50046 -0.18668,1.24309 -0.0968,1.24309 0.0208,0 0.21434,-0.11839 0.42177,-0.26907 0.21434,-0.14529 0.60845,-0.35517 0.87811,-0.46279 0.40793,-0.17221 0.57387,-0.2045 1.0233,-0.22602 0.29039,-0.0108 0.62919,0 0.74673,0.0323 l 0.21434,0.0592 -0.0553,-0.19911 c -0.0277,-0.10763 -0.0553,-0.4036 -0.0484,-0.65653 0.007,-0.83411 0.47016,-1.63055 1.36901,-2.36241 0.63611,-0.51123 1.2169,-0.82873 1.88757,-1.0386 0.29732,-0.0915 0.58771,-0.2045 0.64994,-0.25293 0.11063,-0.0861 1.92906,-2.33551 1.92906,-2.38932 0,-0.0592 -0.47016,-0.25292 -0.60845,-0.25292 -0.083,0 -0.21434,0.0753 -0.31114,0.1722 z" />
    <path
       style="fill:#ffbf2f;stroke:none;stroke-width:0.00609982;fill-opacity:1"
       inkscape:connector-curvature="0"
       id="path686"
       d="m 30.735668,266.75286 -0.98181,1.22157 0.0484,0.69958 c 0.0346,0.59733 0.0207,0.75877 -0.0968,1.10856 -0.4356,1.30767 -1.79078,2.46466 -3.22202,2.76601 -0.42868,0.0915 -0.47708,0.0915 -0.86427,0.0108 -0.54623,-0.11839 -1.16159,-0.11839 -1.59027,0.0108 -1.3621,0.40361 -4.24532,2.86827 -6.10524,5.21993 l -0.34571,0.43589 0.73982,0.86639 c 0.40794,0.47893 0.76748,0.84488 0.79514,0.82335 0.0276,-0.0269 0.37336,-0.39822 0.76747,-0.82873 1.03713,-1.13546 1.63175,-1.68974 2.47528,-2.31936 0.92651,-0.68882 1.25147,-0.83411 2.17798,-0.96327 1.59718,-0.22063 3.27041,-0.94173 4.5772,-1.95881 1.38284,-1.08166 2.26094,-2.42161 2.53059,-3.85844 0.10372,-0.56504 0.0415,-1.86733 -0.10371,-2.2225 -0.18668,-0.44665 -0.15211,-0.54889 0.37337,-1.20542 0.26965,-0.33364 0.48399,-0.635 0.48399,-0.67805 0,-0.0915 -0.11063,-0.16144 -0.42868,-0.26369 l -0.25583,-0.0861 z m -5.62124,6.79127 c 0.43559,0.2045 0.56005,0.51662 0.33188,0.86102 -0.15211,0.22602 -0.48399,0.3767 -0.85736,0.3767 -0.25583,0 -0.3388,-0.0323 -0.56697,-0.20988 -0.22816,-0.17758 -0.26965,-0.24216 -0.26965,-0.43589 0,-0.19911 0.0415,-0.2583 0.30423,-0.46279 0.24891,-0.19911 0.34571,-0.23678 0.56696,-0.23678 0.15211,0 0.36645,0.0484 0.49091,0.10762 z" />
    <path
       style="fill:#ffbf2f;stroke:none;stroke-width:0.00609982;fill-opacity:1"
       inkscape:connector-curvature="0"
       id="path688"
       d="m 10.995638,266.55375 c -0.15212,0.18297 -0.45634,0.44666 -0.6776,0.59195 -0.7121599,0.46818 -1.2791199,0.635 -2.3715599,0.6942 -0.61537,0.0323 -0.85045,0.0753 -1.15468,0.18835 -0.46325,0.16682 -0.89193,0.52737 -1.05787,0.87716 -0.29731,0.635 -2.10192,1.65207 -3.01459,1.70589 -0.38028,0.0215 -0.80896,0.12377 -1.56952,0.36593 l -0.50474,0.16144 0.0415,0.24216 c 0.0761,0.41975 0.4909,1.28614 0.84353,1.74356 0.62228,0.8072 2.20563,1.94267 2.57899,1.84581 0.21434,-0.0484 1.25839,-0.94174 1.40359,-1.19467 0.20742,-0.36055 1.09244,-0.92559 2.06043,-1.30767 0.37337,-0.15067 0.56005,-0.18834 1.09244,-0.22063 0.51857,-0.0269 0.73291,-0.07 1.08553,-0.20449 0.5185699,-0.19911 0.7467299,-0.40899 1.0855299,-0.97403 0.13137,-0.22063 0.37337,-0.52737 0.53239,-0.67805 0.52548,-0.51661 1.54187,-0.9525 2.37157,-1.02784 0.39411,-0.0377 0.42177,-0.0753 0.53931,-0.62424 0.11754,-0.59733 -0.11063,-1.24847 -0.61536,-1.74356 -0.41486,-0.41436 -1.3621,-0.76953 -2.03969,-0.76953 l -0.35263,0.005 z" />
    <path
       style="fill:#ffbf2f;stroke:none;stroke-width:0.00609982;fill-opacity:1"
       inkscape:connector-curvature="0"
       id="path690"
       d="m 6.0865481,267.35558 c -0.75364,0.36593 -0.93341,0.52737 -0.93341,0.83949 0,0.24216 0.15211,0.55966 0.27657,0.55966 0.0346,0 0.083,-0.0538 0.11062,-0.11839 0.0207,-0.0646 0.20743,-0.24754 0.40103,-0.40898 0.40102,-0.33365 0.9749,-0.57581 1.50038,-0.62962 0.18668,-0.0215 0.33879,-0.0484 0.33879,-0.0592 0,-0.0807 -0.25582,-0.30674 -0.42176,-0.3767 -0.36646,-0.14529 -0.67759,-0.0969 -1.27222,0.19373 z" />
    <path
       style="fill:#ffbf2f;stroke:none;stroke-width:0.00609982;fill-opacity:1"
       inkscape:connector-curvature="0"
       id="path694"
       d="m 10.898838,271.52613 c -0.33188,0.4897 -0.9748999,0.82873 -1.8115199,0.96326 l -0.40794,0.0646 9.9633599,11.4569 c 5.48296,6.30695 10.0325,11.50534 10.11547,11.55377 0.42177,0.27445 0.9749,0.2314 1.64558,-0.12915 0.51856,-0.26907 0.67759,-0.46818 0.67759,-0.83411 0,-0.33364 1.10627,0.98479 -8.78103,-10.45597 -7.72316,-8.93844 -11.13186,-12.85606 -11.201,-12.86144 -0.0207,0 -0.11063,0.10763 -0.20051,0.24216 z" />
    <path
       style="fill:#ffbf2f;stroke:none;stroke-width:0.00609982;fill-opacity:1"
       inkscape:connector-curvature="0"
       id="path698"
       d="m 25.688308,275.84197 c -0.24891,0.0753 -0.76748,0.17759 -1.14776,0.2314 -0.81587,0.11301 -0.94724,0.16144 -1.54878,0.55428 -0.42177,0.27445 -0.46325,0.32827 -0.71908,0.82335 -0.29039,0.58657 -1.28604,2.16869 -1.88066,2.99203 -0.21434,0.29598 -0.36645,0.56505 -0.34571,0.6081 0.0622,0.13453 1.28604,1.53368 1.34136,1.53368 0.0553,0 2.58591,-3.288 3.31881,-4.30508 0.84353,-1.1839 1.53495,-2.31937 1.53495,-2.52924 0,-0.07 -0.0207,-0.0646 -0.55313,0.0915 z" />
    <path
       style="fill:#ffbf2f;stroke:none;stroke-width:0.00609982;fill-opacity:1"
       inkscape:connector-curvature="0"
       id="path704"
       d="m 11.389748,286.55087 c -4.6532599,6.2639 -6.0291899,8.13123 -6.2020399,8.42183 l -0.12446,0.19372 0.20052,0.13992 c 0.11062,0.0753 0.35953,0.20449 0.56005,0.28521 0.56696,0.23678 0.57387,0.2314 1.7078,-1.19466 0.53931,-0.68343 2.06735,-2.60458 3.3948699,-4.27818 1.32062,-1.6736 3.22893,-4.06292 4.23149,-5.31678 l 1.81844,-2.27631 -0.67068,-0.77492 c -0.37337,-0.42512 -0.69833,-0.77491 -0.71908,-0.78029 -0.0276,0 -1.91523,2.51309 -4.19691,5.58046 z" />
    <path
       style="fill:#ffbf2f;stroke:none;stroke-width:0.00609982;fill-opacity:1"
       inkscape:connector-curvature="0"
       id="path706"
       d="m 17.474238,284.2638 c -2.71037,3.42254 -9.4862799,12.07576 -9.4862799,12.12419 0,0.11301 0.25582,0.25293 0.71908,0.38208 l 0.45633,0.12915 0.1452,-0.12377 c 0.23508,-0.18835 1.2030699,-1.21081 2.1019199,-2.21712 1.9982,-2.24402 7.84761,-9.20212 7.84761,-9.33665 0,-0.0323 -0.29039,-0.39822 -0.64993,-0.81259 l -0.64994,-0.75339 z" />
  </g>
</svg>
