<?xml version="1.0" encoding="UTF-8" standalone="no"?>
<svg
   xmlns:dc="http://purl.org/dc/elements/1.1/"
   xmlns:cc="http://creativecommons.org/ns#"
   xmlns:rdf="http://www.w3.org/1999/02/22-rdf-syntax-ns#"
   xmlns:svg="http://www.w3.org/2000/svg"
   xmlns="http://www.w3.org/2000/svg"
   xmlns:sodipodi="http://sodipodi.sourceforge.net/DTD/sodipodi-0.dtd"
   xmlns:inkscape="http://www.inkscape.org/namespaces/inkscape"
   viewBox="0 0 10520.91 5544.9331"
   height="5544.9331"
   width="10520.909"
   xml:space="preserve"
   id="svg2"
   version="1.1"
   sodipodi:docname="shield.svg"
   inkscape:version="0.92.4 (5da689c313, 2019-01-14)"><sodipodi:namedview
     pagecolor="#ffffff"
     bordercolor="#666666"
     borderopacity="1"
     objecttolerance="10"
     gridtolerance="10"
     guidetolerance="10"
     inkscape:pageopacity="0"
     inkscape:pageshadow="2"
     inkscape:window-width="1366"
     inkscape:window-height="705"
     id="namedview6995"
     showgrid="false"
     inkscape:zoom="0.083452864"
     inkscape:cx="4815.2941"
     inkscape:cy="2066.0722"
     inkscape:window-x="-8"
     inkscape:window-y="-8"
     inkscape:window-maximized="1"
     inkscape:current-layer="svg2" /><metadata
     id="metadata8"><rdf:RDF><cc:Work
         rdf:about=""><dc:format>image/svg+xml</dc:format><dc:type
           rdf:resource="http://purl.org/dc/dcmitype/StillImage" /></cc:Work></rdf:RDF></metadata><defs
     id="defs6"><linearGradient
       id="linearGradient32"
       spreadMethod="pad"
       gradientTransform="matrix(59.565552,0,0,-59.565552,37.48843,966.41193)"
       gradientUnits="userSpaceOnUse"
       y2="0"
       x2="1"
       y1="0"
       x1="0"><stop
         id="stop26"
         offset="0"
         style="stop-opacity:1;stop-color:#971238" /><stop
         id="stop28"
         offset="0.859044"
         style="stop-opacity:1;stop-color:#ba1d39" /><stop
         id="stop30"
         offset="1"
         style="stop-opacity:1;stop-color:#ba1d39" /></linearGradient><linearGradient
       id="linearGradient54"
       spreadMethod="pad"
       gradientTransform="matrix(59.565544,0,0,-59.565544,272.228,966.41193)"
       gradientUnits="userSpaceOnUse"
       y2="0"
       x2="1"
       y1="0"
       x1="0"><stop
         id="stop48"
         offset="0"
         style="stop-opacity:1;stop-color:#971238" /><stop
         id="stop50"
         offset="0.859044"
         style="stop-opacity:1;stop-color:#ba1d39" /><stop
         id="stop52"
         offset="1"
         style="stop-opacity:1;stop-color:#ba1d39" /></linearGradient><clipPath
       id="clipPath64"
       clipPathUnits="userSpaceOnUse"><path
         inkscape:connector-curvature="0"
         id="path62"
         d="M 0,1162.2 H 2097.64 V 0 H 0 Z" /></clipPath></defs><g
     id="g14"
     transform="matrix(25.029908,0,0,-27.851636,1130.2027,30649.65)"><g
       id="g16"><g
         id="g22"><g
           id="g24"><path
             inkscape:connector-curvature="0"
             d="M 37.489,979.807 50.752,964.611 38.307,945.023 c 19.395,3.199 38.982,5.897 58.747,8.073 v 0 34.704 c -20.036,-2.147 -39.896,-4.82 -59.565,-7.993"
             style="fill:url(#linearGradient32);stroke:none"
             id="path34" /></g></g></g></g><g
     id="g36"
     transform="matrix(25.029908,0,0,-27.851636,1130.2027,30649.65)"><g
       id="g38"><g
         id="g44"><g
           id="g46"><path
             inkscape:connector-curvature="0"
             d="m 272.228,953.096 c 19.766,-2.176 39.352,-4.874 58.749,-8.073 v 0 l -12.447,19.588 13.263,15.196 c -19.668,3.173 -39.527,5.846 -59.565,7.993 v 0 z"
             style="fill:url(#linearGradient54);stroke:none"
             id="path56" /></g></g></g></g><g
     id="g58"
     transform="matrix(25.029908,0,0,-27.851636,1127.4119,30649.747)"><g
       id="g60"
       clip-path="url(#clipPath64)"><g
         id="g66"
         transform="translate(62.0305,989.3825)"><path
           inkscape:connector-curvature="0"
           d="m 0,0 v -27.776 l 35.137,-8.507 v 27.776 z"
           style="fill:#631223;fill-opacity:1;fill-rule:nonzero;stroke:none"
           id="path68" /></g><g
         id="g70"
         transform="translate(307.4765,989.3825)"><path
           inkscape:connector-curvature="0"
           d="m 0,0 v -27.776 l -35.137,-8.507 v 27.776 z"
           style="fill:#631223;fill-opacity:1;fill-rule:nonzero;stroke:none"
           id="path72" /></g><g
         id="g74"
         transform="translate(307.4765,961.5226)"><path
           inkscape:connector-curvature="0"
           d="m 0,0 v 39.405 c -40.245,5.153 -81.197,7.809 -122.722,7.809 -41.525,0 -82.478,-2.656 -122.721,-7.809 V 0 c 40.222,5.288 81.178,8.01 122.721,8.01 C -81.179,8.01 -40.224,5.288 0,0"
           style="fill:#e9344e;fill-opacity:1;fill-rule:nonzero;stroke:none"
           id="path76" /></g></g></g><g
     transform="matrix(0.37153732,0,0,-0.37153732,1.5411125e-4,5544.933)"
     id="g450"><path
       id="path452"
       style="fill:#ffffff;fill-opacity:1;fill-rule:nonzero;stroke:none"
       d="m 15220.6,14745.9 c -266.9,-198.7 -322.4,-577.4 -123.7,-844.4 198.6,-266.9 577.4,-322.4 844.3,-123.8 266.9,198.7 322.5,577.5 123.8,844.4 -198.7,266.9 -577.4,322.5 -844.4,123.8 z m 739.8,-993.9 c -281.1,-209.3 -680.1,-150.8 -889.3,130.4 -209.2,281.1 -150.7,680 130.4,889.3 281.1,209.2 680,150.7 889.3,-130.4 209.2,-281.2 150.7,-680.1 -130.4,-889.3"
       inkscape:connector-curvature="0" /></g><g
     transform="matrix(0.38470799,0,0,-0.38470799,-2768.0294,5047.5518)"
     id="g522"><path
       id="path524"
       style="fill:#ffffff;fill-opacity:1;fill-rule:nonzero;stroke:none"
       d="m 16300,11328.8 -26.4,-16.3 -1101,1784 26.4,16.3 1101,-1784"
       inkscape:connector-curvature="0" /></g><g
     transform="matrix(0.4377299,0,0,-0.38352795,-227.48669,3609.6143)"
     id="g534"><path
       id="path536"
       style="fill:#181615;fill-opacity:1;fill-rule:nonzero;stroke:none"
       d="m 13491.1,60.3459 c 571.1,528.1341 2798.4,2864.6641 2808.7,6420.9841 0.2,71.14 -58.2,132.82 -140.4,148.58 -452.3,86.76 -1893.4,469.08 -2716.6,1185.84 -45.9,39.95 -121.8,39.95 -167.7,0 -823.2,-716.76 -2264.3,-1099.08 -2716.6,-1185.84 -82.2,-15.76 -140.6,-77.44 -140.4,-148.58 10.3,-3556.32 2237.6,-5892.85 2808.7,-6420.9841 70.9,-65.63409 193.3,-65.63409 264.3,0"
       inkscape:connector-curvature="0" /></g><g
     transform="matrix(0.43336111,0,0,-0.37970011,-227.48669,3609.6143)"
     id="g538"><path
       id="path540"
       style="fill:#181615;fill-opacity:1;fill-rule:nonzero;stroke:none"
       d="m 13621,240.853 c 550.3,508.908 2668.9,2747.487 2678.8,6174.247 0.2,68.56 -56.1,127.99 -135.3,143.18 -435.8,83.58 -1796.8,464.81 -2590.1,1155.47 -44.2,38.49 -117.3,38.49 -161.5,0 -793.3,-690.66 -2157,-1090.07 -2592.8,-1173.65 -79.2,-15.19 -135.5,-74.62 -135.3,-143.18 9.9,-3426.76 2131.2,-5647.159 2681.5,-6156.067 68.4,-63.243 186.3,-63.243 254.7,0"
       inkscape:connector-curvature="0" /></g><g
     transform="matrix(0.39209932,0,0,-0.33735091,-5871.801,4424.4456)"
     id="g542"
     style="fill:#ffffff"><path
       id="path544"
       style="fill:#ffffff;fill-opacity:1;fill-rule:nonzero;stroke:none;stroke-width:1.09549296"
       d="m 29431.97,2983.3245 c 532.58,539.2461 2648.135,2910.0866 2657.688,6541.2511 0.218,72.6429 -54.278,135.6127 -130.919,151.7089 -421.852,88.5844 -1804.106,382.4065 -2571.82,1114.2535 -42.771,40.793 -113.55,40.793 -156.322,0 -767.822,-731.847 -2150.076,-1025.6691 -2571.928,-1114.2535 -76.641,-16.0962 -131.136,-79.066 -130.919,-151.7089 9.553,-3631.1645 2125.217,-6002.005 2657.688,-6541.2511 66.22,-67.0137 180.313,-67.0137 246.532,0"
       inkscape:connector-curvature="0" /></g><g
     transform="matrix(0.28764922,0,0,-0.25203102,-227.48669,3609.6143)"
     id="g546"><path
       id="path548"
       style="fill:#181615;fill-opacity:1;fill-rule:nonzero;stroke:none"
       d="m 16098.4,9745.21 c 0,-55.65 45.2,-100.79 100.8,-100.79 55.7,0 100.8,45.14 100.8,100.79 0,55.65 -45.1,100.79 -100.8,100.79 -55.6,0 -100.8,-45.14 -100.8,-100.79"
       inkscape:connector-curvature="0" /></g><g
     transform="matrix(0.28779802,0,0,-0.25216139,-227.48669,3609.6143)"
     id="g550"><path
       id="path552"
       style="fill:#ffffff;fill-opacity:1;fill-rule:nonzero;stroke:none"
       d="m 16190.8,9832.45 c -50.9,0 -92.3,-41.4 -92.3,-92.29 0,-50.9 41.4,-92.29 92.3,-92.29 50.9,0 92.3,41.39 92.3,92.29 0,50.89 -41.4,92.29 -92.3,92.29 z m 0,-201.48 c -60.2,0 -109.2,48.97 -109.2,109.19 0,60.18 49,109.18 109.2,109.18 60.2,0 109.2,-49 109.2,-109.18 0,-60.22 -49,-109.19 -109.2,-109.19"
       inkscape:connector-curvature="0" /></g><g
     transform="matrix(0.30519055,0,0,-0.2674003,-227.48669,3609.6143)"
     id="g554"><path
       id="path556"
       style="fill:#181615;fill-opacity:1;fill-rule:nonzero;stroke:none"
       d="m 16110,9529.89 c 0,-52.46 42.5,-95 95,-95 52.5,0 95,42.54 95,95 0,52.45 -42.5,95 -95,95 -52.5,0 -95,-42.55 -95,-95"
       inkscape:connector-curvature="0" /></g><g
     transform="matrix(0.30533935,0,0,-0.26753067,-227.48669,3609.6143)"
     id="g558"><path
       id="path560"
       style="fill:#ffffff;fill-opacity:1;fill-rule:nonzero;stroke:none"
       d="m 16197.1,9612.22 c -48,0 -87,-39.02 -87,-86.99 0,-47.97 39,-86.99 87,-86.99 48,0 87,39.02 87,86.99 0,47.97 -39,86.99 -87,86.99 z m 0,-189.9 c -56.8,0 -102.9,46.15 -102.9,102.91 0,56.73 46.1,102.92 102.9,102.92 56.7,0 102.9,-46.19 102.9,-102.92 0,-56.76 -46.2,-102.91 -102.9,-102.91"
       inkscape:connector-curvature="0" /></g><g
     transform="matrix(0.32410515,0,0,-0.2839728,-227.48669,3609.6143)"
     id="g562"><path
       id="path564"
       style="fill:#181615;fill-opacity:1;fill-rule:nonzero;stroke:none"
       d="m 16121.1,9285.82 c 0,-49.4 40.1,-89.46 89.4,-89.46 49.4,0 89.5,40.06 89.5,89.46 0,49.39 -40.1,89.45 -89.5,89.45 -49.3,0 -89.4,-40.06 -89.4,-89.45"
       inkscape:connector-curvature="0" /></g><g
     transform="matrix(0.32425396,0,0,-0.28410317,-227.48669,3609.6143)"
     id="g566"><path
       id="path568"
       style="fill:#ffffff;fill-opacity:1;fill-rule:nonzero;stroke:none"
       d="m 16203.1,9363.46 c -45.2,0 -81.9,-36.74 -81.9,-81.92 0,-45.17 36.7,-81.91 81.9,-81.91 45.2,0 81.9,36.74 81.9,81.91 0,45.18 -36.7,81.92 -81.9,81.92 z m 0,-178.83 c -53.5,0 -96.9,43.46 -96.9,96.91 0,53.42 43.4,96.91 96.9,96.91 53.4,0 96.9,-43.49 96.9,-96.91 0,-53.45 -43.5,-96.91 -96.9,-96.91"
       inkscape:connector-curvature="0" /></g><g
     transform="matrix(0.34200536,0,0,-0.29965651,-227.48669,3609.6143)"
     id="g570"><path
       id="path572"
       style="fill:#181615;fill-opacity:1;fill-rule:nonzero;stroke:none"
       d="m 16130.5,9175.18 c 0,-46.82 37.9,-84.77 84.7,-84.77 46.8,0 84.8,37.95 84.8,84.77 0,46.81 -38,84.77 -84.8,84.77 -46.8,0 -84.7,-37.96 -84.7,-84.77"
       inkscape:connector-curvature="0" /></g><g
     transform="matrix(0.34215415,0,0,-0.29978688,-227.48669,3609.6143)"
     id="g574"><path
       id="path576"
       style="fill:#ffffff;fill-opacity:1;fill-rule:nonzero;stroke:none"
       d="m 16208.2,9248.8 c -42.9,0 -77.7,-34.82 -77.7,-77.62 0,-42.8 34.8,-77.62 77.7,-77.62 42.8,0 77.6,34.82 77.6,77.62 0,42.8 -34.8,77.62 -77.6,77.62 z m 0,-169.45 c -50.7,0 -91.9,41.19 -91.9,91.83 0,50.64 41.2,91.84 91.9,91.84 50.6,0 91.8,-41.2 91.8,-91.84 0,-50.64 -41.2,-91.83 -91.8,-91.83"
       inkscape:connector-curvature="0" /></g><g
     transform="matrix(0.36052704,0,0,-0.31588474,-227.48669,3609.6143)"
     id="g578"><path
       id="path580"
       style="fill:#181615;fill-opacity:1;fill-rule:nonzero;stroke:none"
       d="m 16139.2,9240.98 c 0,-44.41 36,-80.41 80.4,-80.41 44.4,0 80.4,36 80.4,80.41 0,44.41 -36,80.41 -80.4,80.41 -44.4,0 -80.4,-36 -80.4,-80.41"
       inkscape:connector-curvature="0" /></g><g
     transform="matrix(0.36067682,0,0,-0.31601598,-227.48669,3609.6143)"
     id="g582"><path
       id="path584"
       style="fill:#ffffff;fill-opacity:1;fill-rule:nonzero;stroke:none"
       d="m 16212.9,9310.79 c -40.6,0 -73.6,-33.03 -73.6,-73.63 0,-40.6 33,-73.64 73.6,-73.64 40.6,0 73.6,33.04 73.6,73.64 0,40.6 -33,73.63 -73.6,73.63 z m 0,-160.75 c -48,0 -87.1,39.08 -87.1,87.12 0,48.04 39.1,87.12 87.1,87.12 48,0 87.1,-39.08 87.1,-87.12 0,-48.04 -39.1,-87.12 -87.1,-87.12"
       inkscape:connector-curvature="0" /></g><g
     transform="matrix(0.36052704,0,0,-0.31588474,-227.48669,3609.6143)"
     id="g586"><path
       id="path588"
       style="fill:#181615;fill-opacity:1;fill-rule:nonzero;stroke:none"
       d="m 16139.2,308.664 c 0,-44.404 36,-80.417 80.4,-80.417 44.4,0 80.4,36.013 80.4,80.417 0,44.43 -36,80.416 -80.4,80.416 -44.4,0 -80.4,-35.986 -80.4,-80.416"
       inkscape:connector-curvature="0" /></g><g
     transform="matrix(0.36067682,0,0,-0.31601598,-227.48669,3609.6143)"
     id="g590"><path
       id="path592"
       style="fill:#ffffff;fill-opacity:1;fill-rule:nonzero;stroke:none"
       d="m 16212.9,382.177 c -40.6,0 -73.6,-33.032 -73.6,-73.641 0,-40.583 33,-73.642 73.6,-73.642 40.6,0 73.6,33.059 73.6,73.642 0,40.609 -33,73.641 -73.6,73.641 z m 0,-160.766 c -48,0 -87.1,39.1 -87.1,87.125 0,48.052 39.1,87.124 87.1,87.124 48,0 87.1,-39.072 87.1,-87.124 0,-48.025 -39.1,-87.125 -87.1,-87.125"
       inkscape:connector-curvature="0" /></g><g
     transform="matrix(0.28793612,0,0,-0.2522824,-227.48669,3609.6143)"
     id="g594"><path
       id="path596"
       style="fill:#181615;fill-opacity:1;fill-rule:nonzero;stroke:none"
       d="m 16098.6,8632.63 c 0,-55.63 45.1,-100.69 100.7,-100.69 55.6,0 100.7,45.06 100.7,100.69 0,55.6 -45.1,100.65 -100.7,100.65 -55.6,0 -100.7,-45.05 -100.7,-100.65"
       inkscape:connector-curvature="0" /></g><g
     transform="matrix(0.28808492,0,0,-0.25241278,-227.48669,3609.6143)"
     id="g598"><path
       id="path600"
       style="fill:#ffffff;fill-opacity:1;fill-rule:nonzero;stroke:none"
       d="m 16190.9,8720.32 c -50.8,0 -92.2,-41.35 -92.2,-92.16 0,-50.84 41.4,-92.2 92.2,-92.2 50.9,0 92.2,41.36 92.2,92.2 0,50.81 -41.3,92.16 -92.2,92.16 z m 0,-201.24 c -60.1,0 -109.1,48.92 -109.1,109.08 0,60.12 49,109.04 109.1,109.04 60.1,0 109.1,-48.92 109.1,-109.04 0,-60.16 -49,-109.08 -109.1,-109.08"
       inkscape:connector-curvature="0" /></g><g
     transform="matrix(0.29072936,0,0,-0.25472977,-227.48669,3609.6143)"
     id="g602"><path
       id="path604"
       style="fill:#181615;fill-opacity:1;fill-rule:nonzero;stroke:none"
       d="m 16100.6,7493.05 c 0,-55.06 44.6,-99.72 99.7,-99.72 55,0 99.7,44.66 99.7,99.72 0,55.06 -44.7,99.72 -99.7,99.72 -55.1,0 -99.7,-44.66 -99.7,-99.72"
       inkscape:connector-curvature="0" /></g><g
     transform="matrix(0.29087817,0,0,-0.25486014,-227.48669,3609.6143)"
     id="g606"><path
       id="path608"
       style="fill:#ffffff;fill-opacity:1;fill-rule:nonzero;stroke:none"
       d="m 16192,7580.52 c -50.4,0 -91.3,-40.96 -91.3,-91.31 0,-50.36 40.9,-91.31 91.3,-91.31 50.3,0 91.3,40.95 91.3,91.31 0,50.35 -41,91.31 -91.3,91.31 z m 0,-199.34 c -59.6,0 -108.1,48.45 -108.1,108.03 0,59.55 48.5,108.03 108.1,108.03 59.5,0 108,-48.48 108,-108.03 0,-59.58 -48.5,-108.03 -108,-108.03"
       inkscape:connector-curvature="0" /></g><g
     transform="matrix(0.2947033,0,0,-0.25821162,-227.48669,3609.6143)"
     id="g610"><path
       id="path612"
       style="fill:#181615;fill-opacity:1;fill-rule:nonzero;stroke:none"
       d="m 16103.3,6396.27 c 0,-54.32 44,-98.35 98.3,-98.35 54.4,0 98.4,44.03 98.4,98.35 0,54.35 -44,98.38 -98.4,98.38 -54.3,0 -98.3,-44.03 -98.3,-98.38"
       inkscape:connector-curvature="0" /></g><g
     transform="matrix(0.29485209,0,0,-0.25834201,-227.48669,3609.6143)"
     id="g614"><path
       id="path616"
       style="fill:#ffffff;fill-opacity:1;fill-rule:nonzero;stroke:none"
       d="m 16193.4,6483.12 c -49.6,0 -90,-40.41 -90,-90.09 0,-49.64 40.4,-90.05 90,-90.05 49.7,0 90.1,40.41 90.1,90.05 0,49.68 -40.4,90.09 -90.1,90.09 z m 0,-196.63 c -58.7,0 -106.5,47.8 -106.5,106.54 0,58.78 47.8,106.58 106.5,106.58 58.8,0 106.6,-47.8 106.6,-106.58 0,-58.74 -47.8,-106.54 -106.6,-106.54"
       inkscape:connector-curvature="0" /></g><g
     transform="matrix(0.30034617,0,0,-0.26315577,-227.48669,3609.6143)"
     id="g618"><path
       id="path620"
       style="fill:#181615;fill-opacity:1;fill-rule:nonzero;stroke:none"
       d="m 16106.9,5315.3 c 0,-53.3 43.3,-96.53 96.6,-96.53 53.3,0 96.5,43.23 96.5,96.53 0,53.3 -43.2,96.53 -96.5,96.53 -53.3,0 -96.6,-43.23 -96.6,-96.53"
       inkscape:connector-curvature="0" /></g><g
     transform="matrix(0.30049496,0,0,-0.26328615,-227.48669,3609.6143)"
     id="g622"><path
       id="path624"
       style="fill:#ffffff;fill-opacity:1;fill-rule:nonzero;stroke:none"
       d="m 16195.4,5401.05 c -48.7,0 -88.4,-39.64 -88.4,-88.39 0,-48.74 39.7,-88.39 88.4,-88.39 48.8,0 88.4,39.65 88.4,88.39 0,48.75 -39.6,88.39 -88.4,88.39 z m 0,-192.96 c -57.6,0 -104.5,46.93 -104.5,104.57 0,57.65 46.9,104.58 104.5,104.58 57.7,0 104.6,-46.93 104.6,-104.58 0,-57.64 -46.9,-104.57 -104.6,-104.57"
       inkscape:connector-curvature="0" /></g><g
     transform="matrix(0.30696938,0,0,-0.26895887,-227.48669,3609.6143)"
     id="g626"><path
       id="path628"
       style="fill:#181615;fill-opacity:1;fill-rule:nonzero;stroke:none"
       d="m 16111.1,4297.65 c 0,-52.15 42.3,-94.44 94.5,-94.44 52.1,0 94.4,42.29 94.4,94.44 0,52.15 -42.3,94.45 -94.4,94.45 -52.2,0 -94.5,-42.3 -94.5,-94.45"
       inkscape:connector-curvature="0" /></g><g
     transform="matrix(0.30711819,0,0,-0.26908925,-227.48669,3609.6143)"
     id="g630"><path
       id="path632"
       style="fill:#ffffff;fill-opacity:1;fill-rule:nonzero;stroke:none"
       d="m 16197.7,4382.05 c -47.7,0 -86.5,-38.79 -86.5,-86.48 0,-47.7 38.8,-86.49 86.5,-86.49 47.7,0 86.5,38.79 86.5,86.49 0,47.69 -38.8,86.48 -86.5,86.48 z m 0,-188.8 c -56.5,0 -102.3,45.91 -102.3,102.32 0,56.4 45.8,102.31 102.3,102.31 56.4,0 102.3,-45.91 102.3,-102.31 0,-56.41 -45.9,-102.32 -102.3,-102.32"
       inkscape:connector-curvature="0" /></g><g
     transform="matrix(0.31478596,0,0,-0.27580755,-227.48669,3609.6143)"
     id="g634"><path
       id="path636"
       style="fill:#181615;fill-opacity:1;fill-rule:nonzero;stroke:none"
       d="m 16115.8,3325.25 c 0,-50.85 41.2,-92.1 92.1,-92.1 50.9,0 92.1,41.25 92.1,92.1 0,50.86 -41.2,92.11 -92.1,92.11 -50.9,0 -92.1,-41.25 -92.1,-92.11"
       inkscape:connector-curvature="0" /></g><g
     transform="matrix(0.31493476,0,0,-0.27593793,-227.48669,3609.6143)"
     id="g638"><path
       id="path640"
       style="fill:#ffffff;fill-opacity:1;fill-rule:nonzero;stroke:none"
       d="m 16200.2,3408.02 c -46.5,0 -84.3,-37.83 -84.3,-84.34 0,-46.51 37.8,-84.34 84.3,-84.34 46.5,0 84.4,37.83 84.4,84.34 0,46.51 -37.9,84.34 -84.4,84.34 z m 0,-184.12 c -55,0 -99.8,44.75 -99.8,99.78 0,55 44.8,99.78 99.8,99.78 55,0 99.8,-44.78 99.8,-99.78 0,-55.03 -44.8,-99.78 -99.8,-99.78"
       inkscape:connector-curvature="0" /></g><g
     transform="matrix(0.32410515,0,0,-0.2839728,-227.48669,3609.6143)"
     id="g642"><path
       id="path644"
       style="fill:#181615;fill-opacity:1;fill-rule:nonzero;stroke:none"
       d="m 16121.1,2456 c 0,-49.39 40.1,-89.45 89.4,-89.45 49.4,0 89.5,40.06 89.5,89.45 0,49.39 -40.1,89.46 -89.5,89.46 -49.3,0 -89.4,-40.07 -89.4,-89.46"
       inkscape:connector-curvature="0" /></g><g
     transform="matrix(0.32425396,0,0,-0.28410317,-227.48669,3609.6143)"
     id="g646"><path
       id="path648"
       style="fill:#ffffff;fill-opacity:1;fill-rule:nonzero;stroke:none"
       d="m 16203.1,2536.79 c -45.2,0 -81.9,-36.75 -81.9,-81.92 0,-45.17 36.7,-81.91 81.9,-81.91 45.2,0 81.9,36.74 81.9,81.91 0,45.17 -36.7,81.92 -81.9,81.92 z m 0,-178.83 c -53.5,0 -96.9,43.49 -96.9,96.91 0,53.42 43.4,96.91 96.9,96.91 53.4,0 96.9,-43.49 96.9,-96.91 0,-53.42 -43.5,-96.91 -96.9,-96.91"
       inkscape:connector-curvature="0" /></g><g
     transform="matrix(0.33454572,0,0,-0.29312056,-227.48669,3609.6143)"
     id="g650"><path
       id="path652"
       style="fill:#181615;fill-opacity:1;fill-rule:nonzero;stroke:none"
       d="m 16126.7,1632.54 c 0,-47.85 38.8,-86.66 86.7,-86.66 47.8,0 86.6,38.81 86.6,86.66 0,47.85 -38.8,86.66 -86.6,86.66 -47.9,0 -86.7,-38.81 -86.7,-86.66"
       inkscape:connector-curvature="0" /></g><g
     transform="matrix(0.33469453,0,0,-0.29325094,-227.48669,3609.6143)"
     id="g654"><path
       id="path656"
       style="fill:#ffffff;fill-opacity:1;fill-rule:nonzero;stroke:none"
       d="m 16206.1,1711.17 c -43.7,0 -79.3,-35.6 -79.3,-79.36 0,-43.76 35.6,-79.36 79.3,-79.36 43.8,0 79.4,35.6 79.4,79.36 0,43.76 -35.6,79.36 -79.4,79.36 z m 0,-173.25 c -51.7,0 -93.8,42.14 -93.8,93.89 0,51.75 42.1,93.89 93.8,93.89 51.8,0 93.9,-42.14 93.9,-93.89 0,-51.75 -42.1,-93.89 -93.9,-93.89"
       inkscape:connector-curvature="0" /></g><g
     transform="matrix(0.34687893,0,0,-0.3039266,-227.48669,3609.6143)"
     id="g658"><path
       id="path660"
       style="fill:#181615;fill-opacity:1;fill-rule:nonzero;stroke:none"
       d="m 16132.8,887.258 c 0,-46.179 37.5,-83.581 83.6,-83.581 46.2,0 83.6,37.402 83.6,83.581 0,46.149 -37.4,83.58 -83.6,83.58 -46.1,0 -83.6,-37.431 -83.6,-83.58"
       inkscape:connector-curvature="0" /></g><g
     transform="matrix(0.34702773,0,0,-0.30405698,-227.48669,3609.6143)"
     id="g662"><path
       id="path664"
       style="fill:#ffffff;fill-opacity:1;fill-rule:nonzero;stroke:none"
       d="m 16209.4,963.387 c -42.2,0 -76.5,-34.332 -76.5,-76.511 0,-42.207 34.3,-76.539 76.5,-76.539 42.3,0 76.6,34.332 76.6,76.539 0,42.179 -34.3,76.511 -76.6,76.511 z m 0,-167.062 c -49.9,0 -90.5,40.609 -90.5,90.551 0,49.914 40.6,90.524 90.5,90.524 50,0 90.6,-40.61 90.6,-90.524 0,-49.942 -40.6,-90.551 -90.6,-90.551"
       inkscape:connector-curvature="0" /></g><g
     transform="matrix(0.43388435,0,0,-0.38015857,-227.48669,3609.6143)"
     id="g666"><path
       id="path668"
       style="fill:#181615;fill-opacity:1;fill-rule:nonzero;stroke:none"
       d="m 16300,6460.71 c 0,-36.9 -29.9,-66.82 -66.8,-66.82 -36.9,0 -66.8,29.92 -66.8,66.82 0,36.9 29.9,66.82 66.8,66.82 36.9,0 66.8,-29.92 66.8,-66.82"
       inkscape:connector-curvature="0" /></g><g
     transform="matrix(0.43403315,0,0,-0.38028895,-227.48669,3609.6143)"
     id="g670"><path
       id="path672"
       style="fill:#ffffff;fill-opacity:1;fill-rule:nonzero;stroke:none"
       d="m 16227.6,6519.69 c -33.7,0 -61.2,-27.45 -61.2,-61.2 0,-33.75 27.5,-61.2 61.2,-61.2 33.7,0 61.2,27.45 61.2,61.2 0,33.75 -27.5,61.2 -61.2,61.2 z m 0,-133.6 c -39.9,0 -72.4,32.47 -72.4,72.4 0,39.91 32.5,72.4 72.4,72.4 39.9,0 72.4,-32.49 72.4,-72.4 0,-39.93 -32.5,-72.4 -72.4,-72.4"
       inkscape:connector-curvature="0" /></g><g
     transform="matrix(0.41634205,0,0,-0.36478845,-227.48669,3609.6143)"
     id="g674"><path
       id="path676"
       style="fill:#181615;fill-opacity:1;fill-rule:nonzero;stroke:none"
       d="m 16300,6985.67 c 0,-38.45 -31.2,-69.64 -69.6,-69.64 -38.5,0 -69.7,31.19 -69.7,69.64 0,38.45 31.2,69.64 69.7,69.64 38.4,0 69.6,-31.19 69.6,-69.64"
       inkscape:connector-curvature="0" /></g><g
     transform="matrix(0.41649182,0,0,-0.36491968,-227.48669,3609.6143)"
     id="g678"><path
       id="path680"
       style="fill:#ffffff;fill-opacity:1;fill-rule:nonzero;stroke:none"
       d="m 16224.6,7046.94 c -35.2,0 -63.8,-28.6 -63.8,-63.77 0,-35.17 28.6,-63.77 63.8,-63.77 35.1,0 63.7,28.6 63.7,63.77 0,35.17 -28.6,63.77 -63.7,63.77 z m 0,-139.22 c -41.6,0 -75.5,33.84 -75.5,75.45 0,41.59 33.9,75.45 75.5,75.45 41.5,0 75.4,-33.86 75.4,-75.45 0,-41.61 -33.9,-75.45 -75.4,-75.45"
       inkscape:connector-curvature="0" /></g><g
     transform="matrix(0.39742842,0,0,-0.3482168,-227.48669,3609.6143)"
     id="g682"><path
       id="path684"
       style="fill:#181615;fill-opacity:1;fill-rule:nonzero;stroke:none"
       d="m 16300,7572.64 c 0,-40.28 -32.7,-72.95 -72.9,-72.95 -40.3,0 -73,32.67 -73,72.95 0,40.28 32.7,72.95 73,72.95 40.2,0 72.9,-32.67 72.9,-72.95"
       inkscape:connector-curvature="0" /></g><g
     transform="matrix(0.39757722,0,0,-0.34834718,-227.48669,3609.6143)"
     id="g686"><path
       id="path688"
       style="fill:#ffffff;fill-opacity:1;fill-rule:nonzero;stroke:none"
       d="m 16221,7636.61 c -36.9,0 -66.8,-29.97 -66.8,-66.81 0,-36.84 29.9,-66.81 66.8,-66.81 36.8,0 66.8,29.97 66.8,66.81 0,36.84 -30,66.81 -66.8,66.81 z m 0,-145.85 c -43.6,0 -79.1,35.45 -79.1,79.04 0,43.57 35.5,79.04 79.1,79.04 43.5,0 79,-35.47 79,-79.04 0,-43.59 -35.5,-79.04 -79,-79.04"
       inkscape:connector-curvature="0" /></g><g
     transform="matrix(0.3795282,0,0,-0.33253308,-227.48669,3609.6143)"
     id="g690"><path
       id="path692"
       style="fill:#181615;fill-opacity:1;fill-rule:nonzero;stroke:none"
       d="m 16300,8268.06 c 0,-42.19 -34.2,-76.39 -76.4,-76.39 -42.2,0 -76.4,34.2 -76.4,76.39 0,42.18 34.2,76.38 76.4,76.38 42.2,0 76.4,-34.2 76.4,-76.38"
       inkscape:connector-curvature="0" /></g><g
     transform="matrix(0.37967701,0,0,-0.33266347,-227.48669,3609.6143)"
     id="g694"><path
       id="path696"
       style="fill:#ffffff;fill-opacity:1;fill-rule:nonzero;stroke:none"
       d="m 16217.2,8334.76 c -38.5,0 -69.9,-31.38 -69.9,-69.95 0,-38.57 31.4,-69.95 69.9,-69.95 38.6,0 70,31.38 70,69.95 0,38.57 -31.4,69.95 -70,69.95 z m 0,-152.71 c -45.6,0 -82.7,37.13 -82.7,82.76 0,45.63 37.1,82.76 82.7,82.76 45.7,0 82.8,-37.13 82.8,-82.76 0,-45.63 -37.1,-82.76 -82.8,-82.76"
       inkscape:connector-curvature="0" /></g><g
     transform="matrix(0.43359743,0,0,-0.37990719,-227.48669,3609.6143)"
     id="g698"><path
       id="path700"
       style="fill:#181615;fill-opacity:1;fill-rule:nonzero;stroke:none"
       d="m 16300,5732.61 c 0,-36.94 -29.9,-66.86 -66.9,-66.86 -36.9,0 -66.8,29.92 -66.8,66.86 0,36.92 29.9,66.85 66.8,66.85 37,0 66.9,-29.93 66.9,-66.85"
       inkscape:connector-curvature="0" /></g><g
     transform="matrix(0.43374624,0,0,-0.38003757,-227.48669,3609.6143)"
     id="g702"><path
       id="path704"
       style="fill:#ffffff;fill-opacity:1;fill-rule:nonzero;stroke:none"
       d="m 16227.6,5791.86 c -33.8,0 -61.3,-27.47 -61.3,-61.22 0,-33.77 27.5,-61.23 61.3,-61.23 33.7,0 61.2,27.46 61.2,61.23 0,33.75 -27.5,61.22 -61.2,61.22 z m 0,-133.66 c -40,0 -72.5,32.49 -72.5,72.44 0,39.94 32.5,72.43 72.5,72.43 39.9,0 72.4,-32.49 72.4,-72.43 0,-39.95 -32.5,-72.44 -72.4,-72.44"
       inkscape:connector-curvature="0" /></g><g
     transform="matrix(0.43080421,0,0,-0.37745983,-227.48669,3609.6143)"
     id="g706"><path
       id="path708"
       style="fill:#181615;fill-opacity:1;fill-rule:nonzero;stroke:none"
       d="m 16300,5056.7 c 0,-37.16 -30.1,-67.3 -67.3,-67.3 -37.2,0 -67.3,30.14 -67.3,67.3 0,37.16 30.1,67.3 67.3,67.3 37.2,0 67.3,-30.14 67.3,-67.3"
       inkscape:connector-curvature="0" /></g><g
     transform="matrix(0.43095301,0,0,-0.37759021,-227.48669,3609.6143)"
     id="g710"><path
       id="path712"
       style="fill:#ffffff;fill-opacity:1;fill-rule:nonzero;stroke:none"
       d="m 16227.1,5116.58 c -34,0 -61.7,-27.64 -61.7,-61.63 0,-33.99 27.7,-61.63 61.7,-61.63 34,0 61.6,27.64 61.6,61.63 0,33.99 -27.6,61.63 -61.6,61.63 z m 0,-134.55 c -40.2,0 -72.9,32.7 -72.9,72.92 0,40.19 32.7,72.92 72.9,72.92 40.2,0 72.9,-32.73 72.9,-72.92 0,-40.22 -32.7,-72.92 -72.9,-72.92"
       inkscape:connector-curvature="0" /></g><g
     transform="matrix(0.4268293,0,0,-0.37397712,-227.48669,3609.6143)"
     id="g714"><path
       id="path716"
       style="fill:#181615;fill-opacity:1;fill-rule:nonzero;stroke:none"
       d="m 16300,4416.29 c 0,-37.5 -30.4,-67.9 -67.9,-67.9 -37.5,0 -67.9,30.4 -67.9,67.9 0,37.53 30.4,67.93 67.9,67.93 37.5,0 67.9,-30.4 67.9,-67.93"
       inkscape:connector-curvature="0" /></g><g
     transform="matrix(0.42697811,0,0,-0.37410749,-227.48669,3609.6143)"
     id="g718"><path
       id="path720"
       style="fill:#ffffff;fill-opacity:1;fill-rule:nonzero;stroke:none"
       d="m 16226.4,4476.96 c -34.3,0 -62.2,-27.9 -62.2,-62.21 0,-34.28 27.9,-62.18 62.2,-62.18 34.3,0 62.2,27.9 62.2,62.18 0,34.31 -27.9,62.21 -62.2,62.21 z m 0,-135.78 c -40.6,0 -73.6,33 -73.6,73.57 0,40.59 33,73.6 73.6,73.6 40.6,0 73.6,-33.01 73.6,-73.6 0,-40.57 -33,-73.57 -73.6,-73.57"
       inkscape:connector-curvature="0" /></g><g
     transform="matrix(0.42118643,0,0,-0.36903297,-227.48669,3609.6143)"
     id="g722"><path
       id="path724"
       style="fill:#181615;fill-opacity:1;fill-rule:nonzero;stroke:none"
       d="m 16300,3790.31 c 0,-38 -30.8,-68.83 -68.8,-68.83 -38,0 -68.9,30.83 -68.9,68.83 0,38.01 30.9,68.84 68.9,68.84 38,0 68.8,-30.83 68.8,-68.84"
       inkscape:connector-curvature="0" /></g><g
     transform="matrix(0.42133621,0,0,-0.36916421,-227.48669,3609.6143)"
     id="g726"><path
       id="path728"
       style="fill:#ffffff;fill-opacity:1;fill-rule:nonzero;stroke:none"
       d="m 16225.4,3852.01 c -34.7,0 -63,-28.27 -63,-63.04 0,-34.76 28.3,-63.04 63,-63.04 34.8,0 63.1,28.28 63.1,63.04 0,34.77 -28.3,63.04 -63.1,63.04 z m 0,-137.62 c -41.1,0 -74.6,33.47 -74.6,74.58 0,41.11 33.5,74.58 74.6,74.58 41.2,0 74.6,-33.47 74.6,-74.58 0,-41.11 -33.4,-74.58 -74.6,-74.58"
       inkscape:connector-curvature="0" /></g><g
     transform="matrix(0.41456418,0,0,-0.36323073,-227.48669,3609.6143)"
     id="g730"><path
       id="path732"
       style="fill:#181615;fill-opacity:1;fill-rule:nonzero;stroke:none"
       d="m 16300,3182.25 c 0,-38.61 -31.3,-69.93 -69.9,-69.93 -38.6,0 -70,31.32 -70,69.93 0,38.62 31.4,69.94 70,69.94 38.6,0 69.9,-31.32 69.9,-69.94"
       inkscape:connector-curvature="0" /></g><g
     transform="matrix(0.41471299,0,0,-0.36336111,-227.48669,3609.6143)"
     id="g734"><path
       id="path736"
       style="fill:#ffffff;fill-opacity:1;fill-rule:nonzero;stroke:none"
       d="m 16224.2,3245.16 c -35.3,0 -64,-28.73 -64,-64.05 0,-35.32 28.7,-64.05 64,-64.05 35.3,0 64.1,28.73 64.1,64.05 0,35.32 -28.8,64.05 -64.1,64.05 z m 0,-139.82 c -41.7,0 -75.7,34 -75.7,75.77 0,41.77 34,75.77 75.7,75.77 41.8,0 75.8,-34 75.8,-75.77 0,-41.77 -34,-75.77 -75.8,-75.77"
       inkscape:connector-curvature="0" /></g><g
     transform="matrix(0.40674761,0,0,-0.35638204,-227.48669,3609.6143)"
     id="g738"><path
       id="path740"
       style="fill:#181615;fill-opacity:1;fill-rule:nonzero;stroke:none"
       d="m 16300,2573.44 c 0,-39.35 -31.9,-71.27 -71.3,-71.27 -39.3,0 -71.3,31.92 -71.3,71.27 0,39.36 32,71.28 71.3,71.28 39.4,0 71.3,-31.92 71.3,-71.28"
       inkscape:connector-curvature="0" /></g><g
     transform="matrix(0.40689642,0,0,-0.35651243,-227.48669,3609.6143)"
     id="g742"><path
       id="path744"
       style="fill:#ffffff;fill-opacity:1;fill-rule:nonzero;stroke:none"
       d="m 16222.8,2637.78 c -36,0 -65.3,-29.28 -65.3,-65.28 0,-36 29.3,-65.28 65.3,-65.28 36,0 65.2,29.28 65.2,65.28 0,36 -29.2,65.28 -65.2,65.28 z m 0,-142.51 c -42.6,0 -77.3,34.64 -77.3,77.23 0,42.57 34.7,77.23 77.3,77.23 42.6,0 77.2,-34.66 77.2,-77.23 0,-42.59 -34.6,-77.23 -77.2,-77.23"
       inkscape:connector-curvature="0" /></g><g
     transform="matrix(0.39742842,0,0,-0.3482168,-227.48669,3609.6143)"
     id="g746"><path
       id="path748"
       style="fill:#181615;fill-opacity:1;fill-rule:nonzero;stroke:none"
       d="m 16300,2002.89 c 0,-40.29 -32.7,-72.96 -72.9,-72.96 -40.3,0 -73,32.67 -73,72.96 0,40.27 32.7,72.94 73,72.94 40.2,0 72.9,-32.67 72.9,-72.94"
       inkscape:connector-curvature="0" /></g><g
     transform="matrix(0.39757722,0,0,-0.34834718,-227.48669,3609.6143)"
     id="g750"><path
       id="path752"
       style="fill:#ffffff;fill-opacity:1;fill-rule:nonzero;stroke:none"
       d="m 16221,2068.94 c -36.9,0 -66.8,-29.97 -66.8,-66.81 0,-36.84 29.9,-66.8 66.8,-66.8 36.8,0 66.8,29.96 66.8,66.8 0,36.84 -30,66.81 -66.8,66.81 z m 0,-145.85 c -43.6,0 -79.1,35.48 -79.1,79.04 0,43.57 35.5,79.04 79.1,79.04 43.5,0 79,-35.47 79,-79.04 0,-43.56 -35.5,-79.04 -79,-79.04"
       inkscape:connector-curvature="0" /></g><g
     transform="matrix(0.38698687,0,0,-0.33906818,-227.48669,3609.6143)"
     id="g754"><path
       id="path756"
       style="fill:#181615;fill-opacity:1;fill-rule:nonzero;stroke:none"
       d="m 16300,1411.31 c 0,-41.37 -33.5,-74.92 -74.9,-74.92 -41.4,0 -74.9,33.55 -74.9,74.92 0,41.37 33.5,74.92 74.9,74.92 41.4,0 74.9,-33.55 74.9,-74.92"
       inkscape:connector-curvature="0" /></g><g
     transform="matrix(0.38713567,0,0,-0.33919856,-227.48669,3609.6143)"
     id="g758"><path
       id="path760"
       style="fill:#ffffff;fill-opacity:1;fill-rule:nonzero;stroke:none"
       d="m 16218.8,1479.37 c -37.8,0 -68.6,-30.77 -68.6,-68.6 0,-37.84 30.8,-68.61 68.6,-68.61 37.9,0 68.6,30.77 68.6,68.61 0,37.83 -30.7,68.6 -68.6,68.6 z m 0,-149.77 c -44.7,0 -81.1,36.42 -81.1,81.17 0,44.74 36.4,81.17 81.1,81.17 44.8,0 81.2,-36.43 81.2,-81.17 0,-44.75 -36.4,-81.17 -81.2,-81.17"
       inkscape:connector-curvature="0" /></g><g
     transform="matrix(0.37465463,0,0,-0.32826299,-227.48669,3609.6143)"
     id="g762"><path
       id="path764"
       style="fill:#181615;fill-opacity:1;fill-rule:nonzero;stroke:none"
       d="m 16300,821.479 c 0,-42.755 -34.7,-77.384 -77.4,-77.384 -42.7,0 -77.4,34.629 -77.4,77.384 0,42.729 34.7,77.384 77.4,77.384 42.7,0 77.4,-34.655 77.4,-77.384"
       inkscape:connector-curvature="0" /></g><g
     transform="matrix(0.37480344,0,0,-0.32839336,-227.48669,3609.6143)"
     id="g766"><path
       id="path768"
       style="fill:#ffffff;fill-opacity:1;fill-rule:nonzero;stroke:none"
       d="m 16216.2,891.993 c -39.1,0 -70.9,-31.787 -70.9,-70.841 0,-39.079 31.8,-70.866 70.9,-70.866 39,0 70.8,31.787 70.8,70.866 0,39.054 -31.8,70.841 -70.8,70.841 z m 0,-154.682 c -46.3,0 -83.9,37.6 -83.9,83.841 0,46.215 37.6,83.815 83.9,83.815 46.2,0 83.8,-37.6 83.8,-83.815 0,-46.241 -37.6,-83.841 -83.8,-83.841"
       inkscape:connector-curvature="0" /></g><g
     transform="matrix(0.42594621,0,0,-0.37320337,-227.48669,3609.6143)"
     id="g770"><path
       id="path772"
       style="fill:#ffffff;fill-opacity:1;fill-rule:nonzero;stroke:none"
       d="m 13728.5,7586.81 c -24.4,0 -47.2,-8.72 -64.1,-24.57 -302.2,-282.82 -742,-526.43 -1307.2,-724.1 -461.3,-161.29 -884.9,-248.65 -1065.8,-285.94 -65.8,-13.56 -111.6,-65.35 -111.5,-125.95 8.7,-3233.5 1872.3,-5337.06 2443.2,-5904.762 26.9,-26.761 65.4,-42.104 105.4,-42.104 40.1,0 78.5,15.343 105.4,42.104 571,567.702 2434.5,2671.262 2443.2,5904.762 0.1,60.6 -45.7,112.39 -111.5,125.95 -180.9,37.29 -604.5,124.65 -1065.7,285.94 -565.3,197.67 -1005.1,441.28 -1307.2,724.1 -17,15.85 -39.7,24.57 -64.2,24.57 z m 0,-7130.26 c -46.1,0 -90.3,17.764 -121.5,48.749 -238.8,237.42 -853.7,898.901 -1405.7,1910.961 -309.2,566.72 -553.6,1161.14 -726.7,1766.76 -99.9,349.51 -177.2,707.86 -229.8,1065.08 -57.1,387.69 -86.6,784.05 -87.7,1178.11 -0.1,34.52 12.9,68.38 36.6,95.3 23.5,26.67 56.5,45.51 93.1,53.04 1097,226.21 1891.6,564.14 2362,1004.36 21.1,19.82 49.5,30.74 79.7,30.74 30.3,0 58.6,-10.92 79.8,-30.74 470.3,-440.22 1265,-778.15 2361.9,-1004.36 36.6,-7.53 69.7,-26.37 93.1,-53.04 23.7,-26.92 36.7,-60.78 36.6,-95.3 -1,-394.06 -30.5,-790.42 -87.7,-1178.11 -52.6,-357.22 -129.9,-715.57 -229.8,-1065.08 -173,-605.62 -417.5,-1200.04 -726.6,-1766.76 -552,-1012.06 -1167,-1673.541 -1405.8,-1910.961 -31.1,-30.985 -75.4,-48.749 -121.5,-48.749"
       inkscape:connector-curvature="0" /></g><g
     transform="matrix(0.43802654,0,0,-0.38378785,-227.48669,3609.6143)"
     id="g774"
     style="fill:#ff2a2a"><path
       id="path776"
       style="fill:#ff2a2a;fill-opacity:1;fill-rule:nonzero;stroke:none"
       d="m 13349.9,7829.31 c -29.1,0 -56.3,-9.67 -76.4,-27.21 -191.5,-166.71 -430.3,-327.05 -709.8,-476.57 -235.8,-126.16 -501.6,-245.28 -790,-354.06 -489.4,-184.58 -963.2,-307.65 -1220.2,-356.95 -77.5,-14.85 -131.5,-71.42 -131.4,-137.55 10.6,-3641.8 2337,-5977.323 2803.3,-6408.5163 31.8,-29.398 77.1,-46.2502 124.5,-46.2502 47.4,0 92.8,16.8522 124.6,46.2502 466.2,431.1933 2792.7,2766.7163 2803.2,6408.5163 0.2,66.13 -53.8,122.7 -131.3,137.55 -257.1,49.3 -730.9,172.37 -1220.2,356.95 -288.4,108.78 -554.2,227.9 -790,354.06 -279.5,149.52 -518.3,309.86 -709.8,476.57 -20.2,17.54 -47.3,27.21 -76.5,27.21 z M 13349.9,0 c -52.9,0 -103.8,19.0066 -139.6,52.1332 -122.4,113.2608 -373.5,358.2538 -678.9,726.5668 -347.9,419.56 -663.1,873.64 -936.7,1349.58 -353.8,615.1 -633.5,1260.34 -831.6,1917.76 -114.3,379.04 -202.7,767.55 -262.9,1154.76 -65.3,420.09 -99,849.44 -100.3,1276.11 -0.1,37.23 15,73.69 42.4,102.67 27,28.53 65,48.69 107,56.75 256.1,49.13 728.5,171.83 1216.5,355.92 636.5,240.04 1138.8,518.15 1493.1,826.59 24.2,21.07 56.5,32.67 91,32.67 34.5,0 66.9,-11.6 91.1,-32.67 354.2,-308.44 856.6,-586.55 1493,-826.59 488.1,-184.09 960.4,-306.79 1216.5,-355.92 42.1,-8.06 80.1,-28.22 107.1,-56.75 27.4,-28.98 42.4,-65.44 42.3,-102.67 -1.2,-426.67 -35,-856.02 -100.3,-1276.11 -60.2,-387.21 -148.6,-775.72 -262.8,-1154.76 -198.1,-657.42 -477.9,-1302.66 -831.6,-1917.76 C 14831.5,1652.34 14516.3,1198.26 14168.4,778.7 13863,410.387 13612,165.394 13489.5,52.1332 13453.7,19.0066 13402.8,0 13349.9,0"
       inkscape:connector-curvature="0" /></g><text
     xml:space="preserve"
     style="font-style:normal;font-variant:normal;font-weight:normal;font-stretch:normal;font-size:558.78466797px;line-height:1.25;font-family:GothicG;-inkscape-font-specification:'GothicG, Normal';font-variant-ligatures:normal;font-variant-caps:normal;font-variant-numeric:normal;font-feature-settings:normal;text-align:start;letter-spacing:0px;word-spacing:0px;writing-mode:lr-tb;text-anchor:start;fill:#000000;fill-opacity:1;stroke:none;stroke-width:13.96976185"
     id="text8403"
     y="3744.9651"
     x="2470.0022"
     transform="matrix(0.95447912,-0.15025215,0.12263891,1.0283863,0,0)">Дедова </text>
<text
     xml:space="preserve"
     style="font-style:normal;font-variant:normal;font-weight:normal;font-stretch:normal;font-size:581.71765137px;line-height:1.25;font-family:GothicG;-inkscape-font-specification:'GothicG, Normal';font-variant-ligatures:normal;font-variant-caps:normal;font-variant-numeric:normal;font-feature-settings:normal;text-align:start;letter-spacing:0px;word-spacing:0px;writing-mode:lr-tb;text-anchor:start;fill:#000000;fill-opacity:1;stroke:none;stroke-width:14.54309082"
     id="text8403-1"
     y="2722.9568"
     x="5969.5312"
     transform="matrix(1.1586705,0.1457192,-0.17623369,0.84089426,0,0)">Кузня </text>
</svg>